SplineFontDB: 3.2
FontName: NeoSpleen
FullName: NeoSpleen
FamilyName: NeoSpleen
Weight: Medium
Copyright: "Copyright (c) 2018-2024, Frederic Cambus, Matthew Wilding"
Version: "1.0.0"
ItalicAngle: 0
UnderlinePosition: -100
UnderlineWidth: 40
Ascent: 832
Descent: 192
InvalidEm: 0
sfntRevision: 0x00010000
LayerCount: 2
Layer: 0 0 "Back" 1
Layer: 1 0 "Fore" 0
XUID: [1021 808 1848366223 37733]
StyleMap: 0x0000
FSType: 0
OS2Version: 1
OS2_WeightWidthSlopeOnly: 0
OS2_UseTypoMetrics: 0
CreationTime: 1703523052
ModificationTime: 1711317923
PfmFamily: 33
TTFWeight: 500
TTFWidth: 5
LineGap: 72
VLineGap: 0
Panose: 2 0 6 4 0 0 0 0 0 0
OS2TypoAscent: 832
OS2TypoAOffset: 0
OS2TypoDescent: -192
OS2TypoDOffset: 0
OS2TypoLinegap: 0
OS2WinAscent: 832
OS2WinAOffset: 0
OS2WinDescent: 192
OS2WinDOffset: 0
HheadAscent: 832
HheadAOffset: 0
HheadDescent: -192
HheadDOffset: 0
OS2SubXSize: 665
OS2SubYSize: 716
OS2SubXOff: 0
OS2SubYOff: 143
OS2SupXSize: 665
OS2SupYSize: 716
OS2SupXOff: 0
OS2SupYOff: 491
OS2StrikeYSize: 51
OS2StrikeYPos: 265
OS2CapHeight: 640
OS2XHeight: 448
OS2Vendor: 'PfEd'
OS2CodePages: 40000093.cdd40000
OS2UnicodeRanges: 800000af.100078e3.00040000.00000000
MarkAttachClasses: 1
DEI: 91125
LangName: 1033 "" "" "" "" "" "Version +ACIA-1.0.0+ACIA"
Encoding: UnicodeBmp
UnicodeInterp: none
NameList: AGL For New Fonts
DisplaySize: -48
AntiAlias: 1
FitToEm: 0
WinInfo: 0 19 14
BeginPrivate: 7
BlueValues 21 [0 0 448 448 640 640]
OtherBlues 11 [-192 -192]
BlueShift 1 0
StdHW 5 [128]
StdVW 5 [320]
StemSnapH 27 [64 96 128 160 192 256 320]
StemSnapV 28 [64 128 192 240 256 288 320]
EndPrivate
TeXData: 1 0 0 524288 262144 174762 458752 1048576 174762 783286 444596 497025 792723 393216 433062 380633 303038 157286 324010 404750 52429 2506097 1059062 262144
BeginChars: 65537 894

StartChar: .notdef
Encoding: 65536 -1 0
Width: 512
GlyphClass: 1
Flags: W
HStem: 0 51<102 410> 503 51<102 410>
VStem: 51 51<51 503> 410 51<51 503>
LayerCount: 2
Fore
SplineSet
51 0 m 1
 51 554 l 1
 461 554 l 1
 461 0 l 1
 51 0 l 1
102 51 m 1
 410 51 l 1
 410 503 l 1
 102 503 l 1
 102 51 l 1
EndSplineSet
EndChar

StartChar: EXCLAMATION
Encoding: 33 33 2
Width: 512
GlyphClass: 1
Flags: W
HStem: 0 128<224 288> 620 20G<224 288>
VStem: 224 64<0 128 236 640>
LayerCount: 2
Fore
SplineSet
288 0 m 1
 224 0 l 1
 224 128 l 1
 288 128 l 1
 288 0 l 1
224 236 m 1
 224 640 l 1
 288 640 l 1
 288 236 l 1
 224 236 l 1
EndSplineSet
EndChar

StartChar: QUOTATION
Encoding: 34 34 3
Width: 512
GlyphClass: 1
Flags: W
HStem: 448 192<96 160 352 416>
VStem: 96 64<448 640> 352 64<448 640>
LayerCount: 2
Fore
SplineSet
352 448 m 1
 352 640 l 1
 416 640 l 1
 416 448 l 1
 352 448 l 1
96 448 m 1
 96 640 l 1
 160 640 l 1
 160 448 l 1
 96 448 l 1
EndSplineSet
EndChar

StartChar: NUMBER
Encoding: 35 35 4
Width: 512
GlyphClass: 1
Flags: W
HStem: 0 21G<96 160 352 416> 128 64<32 96 160 352 416 480> 448 64<32 96 160 352 416 480> 620 20G<96 160 352 416>
VStem: 96 64<0 128 192 448 512 640> 352 64<0 128 192 448 512 640>
LayerCount: 2
Fore
SplineSet
352 0 m 1
 352 128 l 1
 160 128 l 1
 160 0 l 1
 96 0 l 1
 96 128 l 1
 32 128 l 1
 32 192 l 1
 96 192 l 1
 96 448 l 1
 32 448 l 1
 32 512 l 1
 96 512 l 1
 96 640 l 1
 160 640 l 1
 160 512 l 1
 352 512 l 1
 352 640 l 1
 416 640 l 1
 416 512 l 1
 480 512 l 1
 480 448 l 1
 416 448 l 1
 416 192 l 1
 480 192 l 1
 480 128 l 1
 416 128 l 1
 416 0 l 1
 352 0 l 1
352 192 m 1
 352 448 l 5
 160 448 l 5
 160 192 l 1
 352 192 l 1
EndSplineSet
EndChar

StartChar: DOLLAR
Encoding: 36 36 5
Width: 512
GlyphClass: 1
Flags: W
HStem: 0 64<64 224 288 356.136> 320 64<149.523 224 288 355.032> 576 64<150.25 224 288 448>
VStem: 50 66<415.994 539.851> 224 64<-64 0 64 320 384 576 640 704> 398 68<112.86 275.648>
LayerCount: 2
Fore
SplineSet
224 -64 m 1
 224 0 l 1
 64 0 l 1
 64 64 l 1
 224 64 l 1
 224 320 l 1
 102 320 50 396 50 474 c 0
 50 556 109 641 205 641 c 0
 211 641 217 641 224 640 c 1
 224 704 l 1
 288 704 l 1
 288 640 l 1
 448 640 l 1
 448 576 l 1
 288 576 l 1
 288 384 l 1
 412 384 466 293 466 199 c 0
 466 100 406 -1 309 -1 c 0
 302 -1 295 -1 288 0 c 1
 288 -64 l 1
 224 -64 l 1
288 64 m 1
 293 63 298 63 303 63 c 4
 361 63 398 131 398 198 c 0
 398 260 366 320 288 320 c 1
 288 64 l 1
224 384 m 1
 224 576 l 1
 218 577 213 578 207 578 c 0
 153 578 116 525 116 474 c 0
 116 428 147 384 224 384 c 1
EndSplineSet
EndChar

StartChar: PERCENT
Encoding: 37 37 6
Width: 512
GlyphClass: 1
Flags: W
HStem: 0.0996094 36.8008<334.5 434.82> 147.3 36.7998<334.5 434.82> 456.1 36.8008<74.5 174.82> 603.3 36.7998<74.5 174.82>
VStem: 23.8604 50.6396<492.9 603.3> 174.82 50.6396<492.9 603.3> 283.86 50.6396<36.9004 147.3> 434.82 50.6396<36.9004 147.3>
LayerCount: 2
Fore
SplineSet
445.139648438 184.099609375 m 2
 467.8203125 184.099609375 485.459960938 168 485.459960938 147.299804688 c 2
 485.459960938 36.900390625 l 2
 485.459960938 16.2001953125 467.8203125 0.099609375 445.139648438 0.099609375 c 2
 324.1796875 0.099609375 l 2
 301.5 0.099609375 283.860351562 16.2001953125 283.860351562 36.900390625 c 2
 283.860351562 147.299804688 l 2
 283.860351562 168 301.5 184.099609375 324.1796875 184.099609375 c 2
 445.139648438 184.099609375 l 2
434.8203125 36.900390625 m 5
 434.8203125 147.299804688 l 5
 334.5 147.299804688 l 1
 334.5 36.900390625 l 1
 434.8203125 36.900390625 l 5
492 576 m 1
 84 0 l 1
 20 0 l 1
 20 64 l 1
 428 640 l 1
 492 640 l 1
 492 576 l 1
185.139648438 640.099609375 m 2
 207.8203125 640.099609375 225.459960938 624 225.459960938 603.299804688 c 2
 225.459960938 492.900390625 l 2
 225.459960938 472.200195312 207.8203125 456.099609375 185.139648438 456.099609375 c 2
 64.1796875 456.099609375 l 2
 41.5 456.099609375 23.8603515625 472.200195312 23.8603515625 492.900390625 c 2
 23.8603515625 603.299804688 l 2
 23.8603515625 624 41.5 640.099609375 64.1796875 640.099609375 c 2
 185.139648438 640.099609375 l 2
174.8203125 492.900390625 m 1
 174.8203125 603.299804688 l 1
 74.5 603.299804688 l 1
 74.5 492.900390625 l 1
 174.8203125 492.900390625 l 1
EndSplineSet
EndChar

StartChar: AMPERSAND
Encoding: 38 38 7
Width: 512
GlyphClass: 1
Flags: W
HStem: 0 64<97.8862 318.589> 256 64<97.8862 160> 320 64<288 350.114> 576 64<161.886 350.114>
VStem: 32 64<65.8862 254.114> 96 64<385.654 574.114> 320 77<128 160> 352 64<385.886 574.114>
LayerCount: 2
Fore
SplineSet
364 64 m 1xb2
 332 0 l 1
 112 0 l 2
 68 0 32 36 32 80 c 2
 32 240 l 2xba
 32 284 68 320 112 320 c 2
 160 320 l 1
 160 336 l 1
 144 336 l 2
 118 336 96 365 96 400 c 2
 96 560 l 2
 96 604 132 640 176 640 c 2
 336 640 l 2
 380 640 416 604 416 560 c 2
 416 400 l 2xd5
 416 356 380 320 336 320 c 2
 288 320 l 1
 288 308 l 1
 364 233 l 1
 400 295 l 1
 448 295 l 1
 448 247 l 1
 397 160 l 1
 397 128 l 1
 480 48 l 1
 480 0 l 1
 432 0 l 1
 364 64 l 1xb2
288 64 m 2
 306 64 320 78 320 96 c 2
 320 192 l 1
 256 256 l 1
 128 256 l 2xda
 110 256 96 242 96 224 c 2
 96 96 l 2
 96 78 110 64 128 64 c 2
 288 64 l 2
320 384 m 2xb6
 338 384 352 398 352 416 c 2
 352 544 l 2xb1
 352 562 338 576 320 576 c 2
 192 576 l 2
 174 576 160 562 160 544 c 2
 160 416 l 2
 160 398 174 384 192 384 c 2
 320 384 l 2xb6
EndSplineSet
EndChar

StartChar: APOSTROPHE
Encoding: 39 39 8
Width: 512
GlyphClass: 1
Flags: W
HStem: 448 192<224 288>
VStem: 224 64<448 640>
LayerCount: 2
Fore
SplineSet
288 448 m 5
 224 448 l 5
 224 640 l 5
 288 640 l 5
 288 448 l 5
EndSplineSet
EndChar

StartChar: LEFT
Encoding: 40 40 9
Width: 512
GlyphClass: 1
Flags: W
HStem: -128 64<281.381 448> 704 64<281.381 448>
VStem: 121 64<67.3281 572.672>
LayerCount: 2
Fore
SplineSet
320 -128 m 2
 188 -128 121 15 121 192 c 6
 121 448 l 6
 121 625 188 768 320 768 c 2
 448 768 l 1
 448 704 l 1
 352 704 l 2
 237 704 185 575 185 416 c 6
 185 224 l 6
 185 65 237 -64 352 -64 c 2
 448 -64 l 1
 448 -128 l 1
 320 -128 l 2
EndSplineSet
EndChar

StartChar: RIGHT
Encoding: 41 41 10
Width: 512
GlyphClass: 1
Flags: W
HStem: -128 64<217 287.619> 704 64<217 287.619>
VStem: 384 64<67.3281 224 416 572.672>
LayerCount: 2
Fore
SplineSet
249 -128 m 2
 381 -128 448 15 448 192 c 6
 448 448 l 6
 448 625 381 768 249 768 c 2
 121 768 l 1
 121 704 l 1
 217 704 l 2
 332 704 384 575 384 416 c 6
 384 224 l 6
 384 65 332 -64 217 -64 c 2
 121 -64 l 1
 121 -128 l 1
 249 -128 l 2
EndSplineSet
EndChar

StartChar: ASTERISK
Encoding: 42 42 11
Width: 512
GlyphClass: 1
Flags: W
VStem: 212 76<654 816>
LayerCount: 2
Fore
SplineSet
163 413 m 1
 90 460 l 1
 192 589 l 1
 36 633 l 1
 64 709 l 1
 212 654 l 1
 205 816 l 1
 295 816 l 1
 288 654 l 1
 436 709 l 1
 464 633 l 1
 308 589 l 1
 410 460 l 1
 337 413 l 1
 250 544 l 1
 163 413 l 1
EndSplineSet
EndChar

StartChar: PLUS
Encoding: 43 43 12
Width: 512
GlyphClass: 1
Flags: W
HStem: 256 64<96 224 288 416> 428 20G<224 288>
VStem: 224 64<128 256 320 448>
LayerCount: 2
Fore
SplineSet
224 128 m 1
 224 256 l 1
 96 256 l 1
 96 320 l 1
 224 320 l 1
 224 448 l 1
 288 448 l 1
 288 320 l 1
 416 320 l 1
 416 256 l 1
 288 256 l 1
 288 128 l 1
 224 128 l 1
EndSplineSet
EndChar

StartChar: COMMA
Encoding: 44 44 13
Width: 512
GlyphClass: 1
Flags: W
HStem: -64 64<160 222.114>
VStem: 224 64<1.88625 128>
LayerCount: 2
Fore
SplineSet
288 16 m 6
 288 -28 252 -64 208 -64 c 6
 160 -64 l 5
 160 0 l 5
 192 0 l 6
 210 0 224 14 224 32 c 6
 224 128 l 5
 288 128 l 5
 288 16 l 6
EndSplineSet
EndChar

StartChar: HYPHEN-MINUS
Encoding: 45 45 14
Width: 512
GlyphClass: 1
Flags: W
HStem: 256 64<64 448>
LayerCount: 2
Fore
SplineSet
64 256 m 1
 64 320 l 1
 448 320 l 1
 448 256 l 1
 64 256 l 1
EndSplineSet
EndChar

StartChar: FULL
Encoding: 46 46 15
Width: 512
GlyphClass: 1
Flags: W
HStem: 0 128<224 288>
VStem: 224 64<0 128>
LayerCount: 2
Fore
SplineSet
288 0 m 5
 224 0 l 5
 224 128 l 1
 288 128 l 1
 288 0 l 5
EndSplineSet
EndChar

StartChar: SOLIDUS
Encoding: 47 47 16
Width: 512
GlyphClass: 1
Flags: W
LayerCount: 2
Fore
SplineSet
480 672 m 1
 96 -96 l 1
 32 -96 l 1
 32 -32 l 1
 416 736 l 1
 480 736 l 1
 480 672 l 1
EndSplineSet
EndChar

StartChar: DIGIT
Encoding: 48 48 17
Width: 512
GlyphClass: 1
Flags: W
HStem: 0 64<129.886 382.114> 576 64<129.886 382.114>
VStem: 64 64<65.8862 160 256 574.114> 384 64<65.8862 400 496 574.114>
LayerCount: 2
Fore
SplineSet
64 560 m 2
 64 604 100 640 144 640 c 2
 368 640 l 2
 412 640 448 604 448 560 c 2
 448 80 l 2
 448 36 412 0 368 0 c 2
 144 0 l 2
 100 0 64 36 64 80 c 2
 64 560 l 2
352 64 m 2
 370 64 384 78 384 96 c 2
 384 400 l 1
 128 160 l 1
 128 96 l 2
 128 78 142 64 160 64 c 2
 352 64 l 2
384 544 m 2
 384 562 370 576 352 576 c 2
 160 576 l 2
 142 576 128 562 128 544 c 2
 128 256 l 1
 384 496 l 1
 384 544 l 2
EndSplineSet
EndChar

StartChar: DIGIT
Encoding: 49 49 18
Width: 512
GlyphClass: 1
Flags: W
HStem: 0 64<96 224 288 416> 620 20G<172 288>
VStem: 224 64<64 576>
LayerCount: 2
Fore
SplineSet
208 576 m 1
 128 493 l 5
 96 493 l 5
 96 544 l 1
 192 640 l 1
 288 640 l 1
 288 64 l 1
 416 64 l 1
 416 0 l 1
 96 0 l 1
 96 64 l 1
 224 64 l 1
 224 576 l 1
 208 576 l 1
EndSplineSet
EndChar

StartChar: DIGIT
Encoding: 50 50 19
Width: 512
GlyphClass: 1
Flags: W
HStem: 0 128<384 448> 0 64<128 384> 576 64<129.886 382.114>
VStem: 64 64<64 112 512 574.114> 384 64<64 128 432 574.114>
LayerCount: 2
Fore
SplineSet
384 544 m 2xb8
 384 562 370 576 352 576 c 2
 160 576 l 2
 142 576 128 562 128 544 c 2
 128 512 l 1
 64 512 l 1
 64 560 l 2
 64 604 100 640 144 640 c 2
 368 640 l 2
 412 640 448 604 448 560 c 2
 448 432 l 2
 448 422 442 410 432 400 c 2
 128 112 l 1
 128 64 l 1
 384 64 l 1x78
 384 128 l 1
 448 128 l 1
 448 0 l 1xb8
 64 0 l 1x78
 64 128 l 1
 384 432 l 1
 384 544 l 2xb8
EndSplineSet
EndChar

StartChar: DIGIT
Encoding: 51 51 20
Width: 512
GlyphClass: 1
Flags: W
HStem: 0 64<129.886 382.114> 320 64<160 382.589> 576 64<129.886 382.114>
VStem: 64 64<65.8862 128 512 574.114> 384 64<65.8862 318.321 385.679 574.114>
LayerCount: 2
Fore
SplineSet
64 560 m 2
 64 604 100 640 144 640 c 2
 368 640 l 2
 412 640 448 604 448 560 c 2
 448 416 l 2
 448 390 426 368 400 368 c 2
 384 368 l 1
 384 336 l 1
 400 336 l 2
 426 336 448 314 448 288 c 2
 448 80 l 2
 448 36 412 0 368 0 c 2
 144 0 l 2
 100 0 64 36 64 80 c 2
 64 128 l 1
 128 128 l 1
 128 96 l 2
 128 78 142 64 160 64 c 2
 352 64 l 2
 370 64 384 78 384 96 c 2
 384 288 l 2
 384 306 370 320 352 320 c 2
 160 320 l 1
 160 384 l 1
 352 384 l 2
 370 384 384 398 384 416 c 2
 384 544 l 2
 384 562 370 576 352 576 c 2
 160 576 l 2
 142 576 128 562 128 544 c 2
 128 512 l 1
 64 512 l 1
 64 560 l 2
EndSplineSet
EndChar

StartChar: DIGIT
Encoding: 52 52 21
Width: 512
GlyphClass: 1
Flags: W
HStem: 0 21G<320 384> 192 64<128 320 384 448> 620 20G<64 128>
VStem: 64 64<256 640> 320 64<0 192 256 512>
LayerCount: 2
Fore
SplineSet
320 0 m 1
 320 192 l 1
 64 192 l 1
 64 640 l 1
 128 640 l 1
 128 256 l 1
 320 256 l 1
 320 512 l 1
 384 512 l 1
 384 256 l 1
 448 256 l 1
 448 192 l 1
 384 192 l 1
 384 0 l 1
 320 0 l 1
EndSplineSet
EndChar

StartChar: DIGIT
Encoding: 53 53 22
Width: 512
GlyphClass: 1
Flags: W
HStem: 0 64<129.886 382.114> 320 64<128 382.114> 512 128<384 448> 576 64<128 384>
VStem: 64 64<65.8862 128 384 576> 384 64<65.8862 318.114 512 576>
LayerCount: 2
Fore
SplineSet
128 96 m 2xdc
 128 78 142 64 160 64 c 2
 352 64 l 2
 370 64 384 78 384 96 c 2
 384 288 l 2
 384 306 370 320 352 320 c 2
 64 320 l 1
 64 640 l 1xdc
 448 640 l 1
 448 512 l 1
 384 512 l 1xec
 384 576 l 1
 128 576 l 1
 128 384 l 1
 368 384 l 2
 412 384 448 348 448 304 c 2
 448 80 l 2
 448 36 412 0 368 0 c 2
 144 0 l 2
 100 0 64 36 64 80 c 2
 64 128 l 1
 128 128 l 1
 128 96 l 2xdc
EndSplineSet
EndChar

StartChar: DIGIT
Encoding: 54 54 23
Width: 512
GlyphClass: 1
Flags: W
HStem: 0 64<129.886 382.114> 320 64<128 382.114> 576 64<129.886 382.114>
VStem: 64 64<65.8862 320 384 574.114> 384 64<65.8862 318.114 512 574.114>
LayerCount: 2
Fore
SplineSet
144 0 m 2
 100 0 64 36 64 80 c 2
 64 560 l 2
 64 604 100 640 144 640 c 2
 368 640 l 2
 412 640 448 604 448 560 c 2
 448 512 l 1
 384 512 l 1
 384 544 l 2
 384 562 370 576 352 576 c 2
 160 576 l 2
 142 576 128 562 128 544 c 2
 128 384 l 1
 368 384 l 2
 412 384 448 348 448 304 c 2
 448 80 l 2
 448 36 412 0 368 0 c 2
 144 0 l 2
128 96 m 2
 128 78 142 64 160 64 c 2
 352 64 l 2
 370 64 384 78 384 96 c 2
 384 288 l 2
 384 306 370 320 352 320 c 2
 128 320 l 1
 128 96 l 2
EndSplineSet
EndChar

StartChar: DIGIT
Encoding: 55 55 24
Width: 512
GlyphClass: 1
Flags: W
HStem: 1 21G<224 288> 576 64<63 382.155>
VStem: 224 64<1 256> 384 64<448 574.155>
LayerCount: 2
Fore
SplineSet
63 576 m 1
 63 640 l 1
 368 640 l 2
 412.16015625 640 448 604.16015625 448 560 c 2
 448 448 l 1
 288 256 l 1
 288 1 l 1
 224 1 l 1
 224 256 l 1
 384 448 l 1
 384 544 l 2
 384 561.6640625 369.6640625 576 352 576 c 2
 63 576 l 1
EndSplineSet
EndChar

StartChar: DIGIT
Encoding: 56 56 25
Width: 512
GlyphClass: 1
Flags: W
HStem: 0 64<129.845 382.155> 320 64<129.439 382.561> 576 64<129.845 382.155>
VStem: 64 64<65.8446 318.527 385.473 574.155> 384 64<65.8446 318.527 385.473 574.155>
LayerCount: 2
Fore
SplineSet
368 640 m 2
 412.16015625 640 448 604.16015625 448 560 c 2
 448 416 l 2
 448 389.50390625 426.49609375 368 400 368 c 2
 384 368 l 1
 384 336 l 1
 400 336 l 2
 426.49609375 336 448 314.49609375 448 288 c 2
 448 80 l 2
 448 35.83984375 412.16015625 0 368 0 c 2
 144 0 l 2
 99.83984375 0 64 35.83984375 64 80 c 2
 64 288 l 2
 64 314.49609375 85.50390625 336 112 336 c 6
 128 336 l 5
 128 368 l 5
 112 368 l 6
 85.50390625 368 64 389.50390625 64 416 c 2
 64 560 l 2
 64 604.16015625 99.83984375 640 144 640 c 2
 368 640 l 2
384 288 m 2
 384 305.6640625 369.6640625 320 352 320 c 2
 160 320 l 2
 142.3359375 320 128 305.6640625 128 288 c 2
 128 96 l 2
 128 78.3359375 142.3359375 64 160 64 c 2
 352 64 l 2
 369.6640625 64 384 78.3359375 384 96 c 2
 384 288 l 2
128 416 m 2
 128 398.3359375 142.3359375 384 160 384 c 2
 352 384 l 2
 369.6640625 384 384 398.3359375 384 416 c 2
 384 544 l 2
 384 561.6640625 369.6640625 576 352 576 c 2
 160 576 l 2
 142.3359375 576 128 561.6640625 128 544 c 2
 128 416 l 2
EndSplineSet
EndChar

StartChar: DIGIT
Encoding: 57 57 26
Width: 512
GlyphClass: 1
Flags: W
HStem: 0 64<129.886 382.114> 256 64<129.886 384> 576 64<129.886 382.114>
VStem: 64 64<65.8862 128 321.886 574.114> 384 64<65.8862 256 320 574.114>
LayerCount: 2
Fore
SplineSet
368 640 m 2
 412 640 448 604 448 560 c 2
 448 80 l 2
 448 36 412 0 368 0 c 2
 144 0 l 2
 100 0 64 36 64 80 c 2
 64 128 l 1
 128 128 l 1
 128 96 l 2
 128 78 142 64 160 64 c 2
 352 64 l 2
 370 64 384 78 384 96 c 2
 384 256 l 1
 144 256 l 2
 100 256 64 292 64 336 c 2
 64 560 l 2
 64 604 100 640 144 640 c 2
 368 640 l 2
384 544 m 2
 384 562 370 576 352 576 c 2
 160 576 l 2
 142 576 128 562 128 544 c 2
 128 352 l 2
 128 334 142 320 160 320 c 2
 384 320 l 1
 384 544 l 2
EndSplineSet
EndChar

StartChar: COLON
Encoding: 58 58 27
Width: 512
GlyphClass: 1
Flags: W
HStem: 0 21G<224 288>
VStem: 224 64<0 192 337 529>
LayerCount: 2
Fore
SplineSet
289 337 m 5
 225 337 l 5
 225 529 l 5
 289 529 l 5
 289 337 l 5
288 0 m 1
 224 0 l 1
 224 192 l 1
 288 192 l 1
 288 0 l 1
EndSplineSet
EndChar

StartChar: SEMICOLON
Encoding: 59 59 28
Width: 512
GlyphClass: 1
Flags: W
HStem: -64 64<160 222.114>
VStem: 225 64<1.90509 128 337 529>
LayerCount: 2
Fore
SplineSet
289 337 m 5
 225 337 l 5
 225 529 l 5
 289 529 l 5
 289 337 l 5
288 16 m 2
 288 -28 252 -64 208 -64 c 2
 160 -64 l 1
 160 0 l 1
 192 0 l 2
 210 0 224 14 224 32 c 2
 224 128 l 1
 288 128 l 1
 288 16 l 2
EndSplineSet
EndChar

StartChar: LESS-THAN
Encoding: 60 60 29
Width: 512
GlyphClass: 1
Flags: W
HStem: 0 21G<332 448> 620 20G<332 448>
VStem: 64 96<288 352>
LayerCount: 2
Fore
SplineSet
160 288 m 1
 448 0 l 1
 352 0 l 1
 64 288 l 1
 64 352 l 1
 352 640 l 1
 448 640 l 1
 160 352 l 1
 160 288 l 1
EndSplineSet
EndChar

StartChar: EQUALS
Encoding: 61 61 30
Width: 512
GlyphClass: 1
Flags: W
HStem: 192 64<64 448> 384 64<64 448>
LayerCount: 2
Fore
SplineSet
64 192 m 1
 64 256 l 1
 448 256 l 1
 448 192 l 1
 64 192 l 1
64 384 m 1
 64 448 l 1
 448 448 l 1
 448 384 l 1
 64 384 l 1
EndSplineSet
EndChar

StartChar: GREATER-THAN
Encoding: 62 62 31
Width: 512
GlyphClass: 1
Flags: W
HStem: 0 21G<64 180> 620 20G<64 180>
VStem: 352 96<288 352>
LayerCount: 2
Fore
SplineSet
352 288 m 1
 352 352 l 1
 64 640 l 1
 160 640 l 1
 448 352 l 1
 448 288 l 1
 160 0 l 1
 64 0 l 1
 352 288 l 1
EndSplineSet
EndChar

StartChar: QUESTION
Encoding: 63 63 32
Width: 512
GlyphClass: 1
Flags: W
HStem: 0 128<224 288> 576 64<129.886 382.114>
VStem: 64 64<512 574.114> 224 64<0 128 194 294> 384 64<448 574.114>
CounterMasks: 1 38
LayerCount: 2
Fore
SplineSet
288 0 m 5
 224 0 l 5
 224 128 l 1
 288 128 l 1
 288 0 l 5
224 330 m 1
 384 448 l 1
 384 544 l 2
 384 562 370 576 352 576 c 2
 160 576 l 2
 142 576 128 562 128 544 c 2
 128 512 l 1
 64 512 l 1
 64 560 l 2
 64 604 100 640 144 640 c 2
 368 640 l 2
 412 640 448 604 448 560 c 2
 448 415 l 1
 288 294 l 1
 288 194 l 1
 224 194 l 1
 224 330 l 1
EndSplineSet
EndChar

StartChar: COMMERCIAL
Encoding: 64 64 33
Width: 512
GlyphClass: 1
Flags: W
HStem: 0 64<129.886 416> 160 64<292 384> 512 64<129.886 382.114>
VStem: 64 64<65.8862 510.114> 224 68<224 416> 384 64<224 510.114>
LayerCount: 2
Fore
SplineSet
144 0 m 6
 100 0 64 36 64 80 c 6
 64 496 l 6
 64 540 100 576 144 576 c 6
 368 576 l 6
 412 576 448 540 448 496 c 6
 448 160 l 5
 224 160 l 5
 224 416 l 5
 292 416 l 5
 292 224 l 5
 384 224 l 5
 384 480 l 6
 384 498 370 512 352 512 c 6
 160 512 l 6
 142 512 128 498 128 480 c 6
 128 96 l 6
 128 78 142 64 160 64 c 6
 416 64 l 5
 416 0 l 5
 144 0 l 6
EndSplineSet
EndChar

StartChar: LATIN
Encoding: 65 65 34
Width: 512
GlyphClass: 1
Flags: W
HStem: 0 21G<64 128 384 448> 288 64<128 384> 576 64<129.886 382.114>
VStem: 64 64<0 288 352 574.114> 384 64<0 288 352 574.114>
LayerCount: 2
Fore
SplineSet
64 560 m 2
 64 604 100 640 144 640 c 2
 368 640 l 2
 412 640 448 604 448 560 c 2
 448 0 l 1
 384 0 l 1
 384 288 l 1
 128 288 l 1
 128 0 l 1
 64 0 l 1
 64 560 l 2
384 544 m 2
 384 562 370 576 352 576 c 2
 160 576 l 2
 142 576 128 562 128 544 c 2
 128 352 l 1
 384 352 l 1
 384 544 l 2
EndSplineSet
EndChar

StartChar: LATIN
Encoding: 66 66 35
Width: 512
GlyphClass: 1
Flags: W
HStem: 0 64<128 382.155> 320 64<128 382.561> 576 64<128 382.155>
VStem: 64 64<64 320 384 576> 384 64<65.8446 318.527 385.473 574.155>
LayerCount: 2
Fore
SplineSet
448 80 m 2
 448 35.83984375 412.16015625 0 368 0 c 2
 64 0 l 1
 64 640 l 1
 368 640 l 2
 412.16015625 640 448 604.16015625 448 560 c 2
 448 416 l 2
 448 389.50390625 426.49609375 368 400 368 c 2
 384 368 l 1
 384 336 l 1
 400 336 l 2
 426.49609375 336 448 314.49609375 448 288 c 2
 448 80 l 2
352 64 m 2
 369.6640625 64 384 78.3359375 384 96 c 2
 384 288 l 2
 384 305.6640625 369.6640625 320 352 320 c 2
 128 320 l 1
 128 64 l 1
 352 64 l 2
352 384 m 2
 369.6640625 384 384 398.3359375 384 416 c 2
 384 544 l 2
 384 561.6640625 369.6640625 576 352 576 c 2
 128 576 l 1
 128 384 l 1
 352 384 l 2
EndSplineSet
EndChar

StartChar: LATIN
Encoding: 67 67 36
Width: 512
GlyphClass: 1
Flags: W
HStem: 0 64<129.845 448> 576 64<129.845 448>
VStem: 64 64<65.8446 574.155>
LayerCount: 2
Fore
SplineSet
64 560 m 6
 64 604.16015625 99.83984375 640 144 640 c 6
 448 640 l 1
 448 576 l 1
 160 576 l 2
 142.3359375 576 128 561.6640625 128 544 c 2
 128 96 l 2
 128 78.3359375 142.3359375 64 160 64 c 2
 448 64 l 1
 448 0 l 1
 144 0 l 2
 99.83984375 0 64 35.83984375 64 80 c 2
 64 560 l 6
EndSplineSet
EndChar

StartChar: LATIN
Encoding: 68 68 37
Width: 512
GlyphClass: 1
Flags: W
HStem: 0 64<128 382.155> 576 64<128 382.155>
VStem: 64 64<64 576> 384 64<65.8446 574.155>
LayerCount: 2
Fore
SplineSet
448 80 m 2
 448 35.83984375 412.16015625 0 368 0 c 2
 64 0 l 1
 64 640 l 1
 368 640 l 2
 412.16015625 640 448 604.16015625 448 560 c 2
 448 80 l 2
352 64 m 2
 369.6640625 64 384 78.3359375 384 96 c 2
 384 544 l 2
 384 561.6640625 369.6640625 576 352 576 c 2
 128 576 l 1
 128 64 l 1
 352 64 l 2
EndSplineSet
EndChar

StartChar: LATIN
Encoding: 69 69 38
Width: 512
GlyphClass: 1
Flags: W
HStem: 0 64<129.845 448> 288 64<128 352> 576 64<129.845 448>
VStem: 64 64<65.8446 288 352 574.155>
CounterMasks: 1 e0
LayerCount: 2
Fore
SplineSet
144 0 m 6
 99.83984375 0 64 35.83984375 64 80 c 6
 64 560 l 2
 64 604.16015625 99.83984375 640 144 640 c 2
 448 640 l 1
 448 576 l 1
 160 576 l 2
 142.3359375 576 128 561.6640625 128 544 c 2
 128 352 l 1
 352 352 l 1
 352 288 l 1
 128 288 l 1
 128 96 l 2
 128 78.3359375 142.3359375 64 160 64 c 2
 448 64 l 1
 448 0 l 1
 144 0 l 6
EndSplineSet
EndChar

StartChar: LATIN
Encoding: 70 70 39
Width: 512
GlyphClass: 1
Flags: W
HStem: 0 21G<64 128> 288 64<128 352> 576 64<129.845 448>
VStem: 64 64<0 288 352 574.155>
LayerCount: 2
Fore
SplineSet
64 560 m 6
 64 604.16015625 99.83984375 640 144 640 c 6
 448 640 l 1
 448 576 l 1
 160 576 l 2
 142.3359375 576 128 561.6640625 128 544 c 2
 128 352 l 1
 352 352 l 1
 352 288 l 1
 128 288 l 1
 128 0 l 1
 64 0 l 1
 64 560 l 6
EndSplineSet
EndChar

StartChar: LATIN
Encoding: 71 71 40
Width: 512
GlyphClass: 1
Flags: W
HStem: 0 64<129.845 384> 288 64<256 384> 576 64<129.845 448>
VStem: 64 64<65.8446 574.155> 384 64<64 288>
CounterMasks: 1 e0
LayerCount: 2
Fore
SplineSet
144 0 m 6
 99.83984375 0 64 35.83984375 64 80 c 6
 64 560 l 2
 64 604.16015625 99.83984375 640 144 640 c 2
 448 640 l 1
 448 576 l 1
 160 576 l 2
 142.3359375 576 128 561.6640625 128 544 c 2
 128 96 l 2
 128 78.3359375 142.3359375 64 160 64 c 2
 384 64 l 1
 384 288 l 1
 256 288 l 1
 256 352 l 1
 448 352 l 1
 448 0 l 1
 144 0 l 6
EndSplineSet
EndChar

StartChar: LATIN
Encoding: 72 72 41
Width: 512
GlyphClass: 1
Flags: W
HStem: 0 21G<64 128 384 448> 288 64<128 384> 620 20G<64 128 384 448>
VStem: 64 64<0 288 352 640> 384 64<0 288 352 640>
LayerCount: 2
Fore
SplineSet
384 0 m 1
 384 288 l 1
 128 288 l 1
 128 0 l 1
 64 0 l 1
 64 640 l 1
 128 640 l 1
 128 352 l 1
 384 352 l 1
 384 640 l 1
 448 640 l 1
 448 0 l 1
 384 0 l 1
EndSplineSet
EndChar

StartChar: LATIN
Encoding: 73 73 42
Width: 512
GlyphClass: 1
Flags: W
HStem: 0 64<96 224 288 416> 576 64<96 224 288 416>
VStem: 224 64<64 576>
LayerCount: 2
Fore
SplineSet
96 0 m 1
 96 64 l 1
 224 64 l 1
 224 576 l 1
 96 576 l 1
 96 640 l 1
 416 640 l 1
 416 576 l 1
 288 576 l 1
 288 64 l 1
 416 64 l 1
 416 0 l 1
 96 0 l 1
EndSplineSet
EndChar

StartChar: LATIN
Encoding: 74 74 43
Width: 512
GlyphClass: 1
Flags: W
HStem: 0 64<32 222.155> 576 64<96 224 288 416>
VStem: 224 64<65.8446 576>
LayerCount: 2
Fore
SplineSet
288 80 m 6
 288 35.83984375 252.16015625 0 208 0 c 6
 32 0 l 1
 32 64 l 1
 192 64 l 2
 209.6640625 64 224 78.3359375 224 96 c 2
 224 576 l 1
 96 576 l 1
 96 640 l 1
 416 640 l 1
 416 576 l 1
 288 576 l 1
 288 80 l 6
EndSplineSet
EndChar

StartChar: LATIN
Encoding: 75 75 44
Width: 512
GlyphClass: 1
Flags: W
HStem: 0 21G<64 128 384 448> 288 64<128 304> 620 20G<64 128 384 448>
VStem: 64 64<0 288 352 640> 384 64<0 208 432 640>
LayerCount: 2
Fore
SplineSet
368 304 m 5
 448 224 l 5
 448 0 l 5
 384 0 l 5
 384 208 l 5
 304 288 l 5
 128 288 l 1
 128 0 l 1
 64 0 l 1
 64 640 l 1
 128 640 l 1
 128 352 l 1
 304 352 l 1
 384 432 l 1
 384 640 l 1
 448 640 l 1
 448 416 l 1
 368 336 l 1
 368 304 l 5
EndSplineSet
EndChar

StartChar: LATIN
Encoding: 76 76 45
Width: 512
GlyphClass: 1
Flags: W
HStem: 0 64<129.845 448> 620 20G<64 128>
VStem: 64 64<65.8446 640>
LayerCount: 2
Fore
SplineSet
144 0 m 2
 99.83984375 0 64 35.83984375 64 80 c 2
 64 640 l 1
 128 640 l 1
 128 96 l 2
 128 78.3359375 142.3359375 64 160 64 c 2
 448 64 l 1
 448 0 l 1
 144 0 l 2
EndSplineSet
EndChar

StartChar: LATIN
Encoding: 77 77 46
Width: 512
GlyphClass: 1
Flags: W
HStem: 0 21G<64 128 384 448> 620 20G<64 142.817 373.725 448>
VStem: 64 64<0 528> 384 64<0 528>
LayerCount: 2
Fore
SplineSet
240 296 m 1
 128 528 l 1
 128 0 l 1
 64 0 l 1
 64 640 l 1
 133 640 l 1
 240 422 l 5
 272 422 l 5
 384 640 l 1
 448 640 l 1
 448 0 l 1
 384 0 l 1
 384 528 l 1
 272 296 l 1
 240 296 l 1
EndSplineSet
EndChar

StartChar: LATIN
Encoding: 78 78 47
Width: 512
GlyphClass: 1
Flags: W
HStem: 0 21G<64 128 374.303 448> 620 20G<64 142.508 384 448>
VStem: 64 64<0 528> 384 64<112 640>
LayerCount: 2
Fore
SplineSet
128 528 m 1
 128 0 l 1
 64 0 l 1
 64 640 l 1
 133 640 l 1
 384 112 l 1
 384 640 l 1
 448 640 l 1
 448 0 l 1
 384 0 l 1
 128 528 l 1
EndSplineSet
EndChar

StartChar: LATIN
Encoding: 79 79 48
Width: 512
GlyphClass: 1
Flags: W
HStem: 0 64<129.845 382.155> 576 64<129.845 382.155>
VStem: 64 64<65.8446 574.155> 384 64<65.8446 574.155>
LayerCount: 2
Fore
SplineSet
64 560 m 2
 64 604.16015625 99.83984375 640 144 640 c 2
 368 640 l 2
 412.16015625 640 448 604.16015625 448 560 c 2
 448 80 l 2
 448 35.83984375 412.16015625 0 368 0 c 2
 144 0 l 2
 99.83984375 0 64 35.83984375 64 80 c 2
 64 560 l 2
128 96 m 2
 128 78.3359375 142.3359375 64 160 64 c 2
 352 64 l 2
 369.6640625 64 384 78.3359375 384 96 c 2
 384 544 l 2
 384 561.6640625 369.6640625 576 352 576 c 2
 160 576 l 2
 142.3359375 576 128 561.6640625 128 544 c 2
 128 96 l 2
EndSplineSet
EndChar

StartChar: LATIN
Encoding: 80 80 49
Width: 512
GlyphClass: 1
Flags: W
HStem: 0 21G<64 128> 288 64<128 382.155> 576 64<128 382.155>
VStem: 64 64<0 288 352 576> 384 64<353.845 574.155>
LayerCount: 2
Fore
SplineSet
448 368 m 2
 448 323.83984375 412.16015625 288 368 288 c 2
 128 288 l 1
 128 0 l 1
 64 0 l 1
 64 640 l 1
 368 640 l 2
 412.16015625 640 448 604.16015625 448 560 c 2
 448 368 l 2
352 352 m 2
 369.6640625 352 384 366.3359375 384 384 c 2
 384 544 l 2
 384 561.6640625 369.6640625 576 352 576 c 2
 128 576 l 1
 128 352 l 1
 352 352 l 2
EndSplineSet
EndChar

StartChar: LATIN
Encoding: 81 81 50
Width: 512
GlyphClass: 1
Flags: W
HStem: 0 64<129.845 256> 16 48<368 382.561> 576 64<129.845 382.155>
VStem: 64 64<65.8446 574.155> 384 64<65.5521 574.155>
LayerCount: 2
Fore
SplineSet
368 640 m 2xb8
 412.16015625 640 448 604.16015625 448 560 c 2
 448 80 l 2
 448 44.671875 426.49609375 16 400 16 c 2
 368 16 l 1x78
 416 -64 l 1
 416 -128 l 1
 352 -128 l 1
 289 0 l 1
 144 0 l 2
 99.83984375 0 64 35.83984375 64 80 c 2
 64 560 l 2
 64 604.16015625 99.83984375 640 144 640 c 2
 368 640 l 2xb8
288 192 m 1
 352 64 l 1x78
 369.6640625 64 384 78.3359375 384 96 c 2
 384 544 l 2
 384 561.6640625 369.6640625 576 352 576 c 2
 160 576 l 2
 142.3359375 576 128 561.6640625 128 544 c 2
 128 96 l 2
 128 78.3359375 142.3359375 64 160 64 c 2
 256 64 l 1xb8
 224 128 l 1
 224 192 l 1
 288 192 l 1
EndSplineSet
EndChar

StartChar: LATIN
Encoding: 82 82 51
Width: 512
GlyphClass: 1
Flags: W
HStem: 0 21G<64 128 384 448> 288 64<128 304> 576 64<128 382.155>
VStem: 64 64<0 288 352 576> 384 64<0 208 353.347 574.155>
LayerCount: 2
Fore
SplineSet
384 288 m 1
 448 224 l 1
 448 0 l 1
 384 0 l 1
 384 208 l 1
 304 288 l 1
 128 288 l 1
 128 0 l 1
 64 0 l 1
 64 640 l 1
 368 640 l 2
 412.16015625 640 448 604.16015625 448 560 c 2
 448 368 l 1
 444.110001506 327.639793804 418.871559524 297.073577711 384 288 c 1
384 544 m 2
 384 561.6640625 369.6640625 576 352 576 c 2
 128 576 l 1
 128 352 l 1
 352 351 l 2
 369.6640625 351 384 368.3359375 384 386 c 2
 384 544 l 2
EndSplineSet
EndChar

StartChar: LATIN
Encoding: 83 83 52
Width: 512
GlyphClass: 1
Flags: W
HStem: 0 64<64 382.155> 288 64<129.845 382.155> 576 64<129.845 448>
VStem: 64 64<353.845 574.155> 384 64<65.8446 286.155>
CounterMasks: 1 e0
LayerCount: 2
Fore
SplineSet
448 80 m 6
 448 35.83984375 412.16015625 0 368 0 c 6
 64 0 l 1
 64 64 l 1
 352 64 l 2
 369.6640625 64 384 78.3359375 384 96 c 2
 384 256 l 2
 384 273.6640625 369.6640625 288 352 288 c 2
 144 288 l 2
 99.83984375 288 64 323.83984375 64 368 c 2
 64 560 l 2
 64 604.16015625 99.83984375 640 144 640 c 2
 448 640 l 1
 448 576 l 1
 160 576 l 2
 142.3359375 576 128 561.6640625 128 544 c 2
 128 384 l 2
 128 366.3359375 142.3359375 352 160 352 c 2
 368 352 l 2
 412.16015625 352 448 316.16015625 448 272 c 2
 448 80 l 6
EndSplineSet
EndChar

StartChar: LATIN
Encoding: 84 84 53
Width: 512
GlyphClass: 1
Flags: W
HStem: 0 21G<224 288> 576 64<32 224 288 480>
VStem: 224 64<0 576>
LayerCount: 2
Fore
SplineSet
224 0 m 1
 224 576 l 1
 32 576 l 1
 32 640 l 1
 480 640 l 1
 480 576 l 1
 288 576 l 1
 288 0 l 1
 224 0 l 1
EndSplineSet
EndChar

StartChar: LATIN
Encoding: 85 85 54
Width: 512
GlyphClass: 1
Flags: W
HStem: 0 64<129.845 384> 620 20G<64 128 384 448>
VStem: 64 64<65.8446 640> 384 64<64 640>
LayerCount: 2
Fore
SplineSet
144 0 m 2
 99.83984375 0 64 35.83984375 64 80 c 2
 64 640 l 1
 128 640 l 1
 128 96 l 2
 128 78.3359375 142.3359375 64 160 64 c 2
 384 64 l 1
 384 640 l 1
 448 640 l 1
 448 0 l 1
 144 0 l 2
EndSplineSet
EndChar

StartChar: LATIN
Encoding: 86 86 55
Width: 512
GlyphClass: 1
Flags: W
HStem: 0 80<240 272> 620 20G<64 128 384 448>
VStem: 64 64<192 640> 384 64<192 640>
LayerCount: 2
Fore
SplineSet
224 0 m 5
 64 160 l 5
 64 640 l 1
 128 640 l 1
 128 192 l 1
 240 80 l 1
 272 80 l 1
 384 192 l 1
 384 640 l 1
 448 640 l 1
 448 160 l 1
 288 0 l 1
 224 0 l 5
EndSplineSet
EndChar

StartChar: LATIN
Encoding: 87 87 56
Width: 512
GlyphClass: 1
Flags: W
HStem: 0 21G<64 142.817 373.725 448> 620 20G<64 128 384 448>
VStem: 64 64<112 640> 384 64<112 640>
LayerCount: 2
Fore
SplineSet
240 344 m 1
 272 344 l 1
 384 112 l 1
 384 640 l 1
 448 640 l 1
 448 0 l 1
 384 0 l 1
 272 218 l 5
 240 218 l 5
 133 0 l 1
 64 0 l 1
 64 640 l 1
 128 640 l 1
 128 112 l 1
 240 344 l 1
EndSplineSet
EndChar

StartChar: LATIN
Encoding: 88 88 57
Width: 512
GlyphClass: 1
Flags: W
HStem: 0 21G<64 128 384 448> 288 64<208 304> 620 20G<64 128 384 448>
VStem: 64 64<0 208 432 640> 384 64<0 208 432 640>
LayerCount: 2
Fore
SplineSet
208 288 m 1
 128 208 l 1
 128 0 l 1
 64 0 l 1
 64 240 l 1
 144 304 l 1
 144 336 l 1
 64 400 l 1
 64 640 l 1
 128 640 l 1
 128 432 l 1
 208 352 l 1
 304 352 l 1
 384 432 l 1
 384 640 l 1
 448 640 l 1
 448 400 l 1
 368 336 l 1
 368 304 l 1
 448 240 l 1
 448 0 l 1
 384 0 l 1
 384 208 l 1
 304 288 l 1
 208 288 l 1
EndSplineSet
EndChar

StartChar: LATIN
Encoding: 89 89 58
Width: 512
GlyphClass: 1
Flags: W
HStem: 0 64<64 382.155> 288 64<129.845 384> 620 20G<64 128 384 448>
VStem: 64 64<353.845 640> 384 64<65.8446 288 352 640>
LayerCount: 2
Fore
SplineSet
448 80 m 6
 448 35.83984375 412.16015625 0 368 0 c 6
 64 0 l 1
 64 64 l 1
 352 64 l 2
 369.6640625 64 384 78.3359375 384 96 c 2
 384 288 l 1
 144 288 l 2
 99.83984375 288 64 323.83984375 64 368 c 2
 64 640 l 1
 128 640 l 1
 128 384 l 2
 128 366.3359375 142.3359375 352 160 352 c 2
 384 352 l 1
 384 640 l 1
 448 640 l 1
 448 80 l 6
EndSplineSet
EndChar

StartChar: LATIN
Encoding: 90 90 59
Width: 512
GlyphClass: 1
Flags: W
HStem: 0 64<128 448> 576 64<64 384>
VStem: 64 64<64 144> 384 64<464 576>
LayerCount: 2
Fore
SplineSet
64 160 m 5
 384 464 l 5
 384 576 l 1
 64 576 l 1
 64 640 l 1
 448 640 l 1
 448 448 l 1
 128 144 l 1
 128 64 l 1
 448 64 l 1
 448 0 l 1
 64 0 l 1
 64 160 l 5
EndSplineSet
EndChar

StartChar: LEFT
Encoding: 91 91 60
Width: 512
GlyphClass: 1
Flags: W
HStem: -128 64<192 448> 704 64<192 448>
VStem: 128 64<-64 704>
LayerCount: 2
Fore
SplineSet
128 -128 m 1
 128 768 l 1
 448 768 l 1
 448 704 l 1
 192 704 l 1
 192 -64 l 1
 448 -64 l 1
 448 -128 l 1
 128 -128 l 1
EndSplineSet
EndChar

StartChar: REVERSE
Encoding: 92 92 61
Width: 512
GlyphClass: 1
Flags: W
LayerCount: 2
Fore
SplineSet
96 736 m 5
 480 -32 l 5
 480 -96 l 1
 416 -96 l 1
 32 672 l 1
 32 736 l 1
 96 736 l 5
EndSplineSet
EndChar

StartChar: RIGHT
Encoding: 93 93 62
Width: 512
GlyphClass: 1
Flags: W
HStem: -128 64<64 320> 704 64<64 320>
VStem: 320 64<-64 704>
LayerCount: 2
Fore
SplineSet
64 -128 m 1
 64 -64 l 1
 320 -64 l 1
 320 704 l 1
 64 704 l 1
 64 768 l 1
 384 768 l 1
 384 -128 l 1
 64 -128 l 1
EndSplineSet
EndChar

StartChar: CIRCUMFLEX
Encoding: 94 94 63
Width: 512
GlyphClass: 1
Flags: W
HStem: 448 21G<32 98 414 480> 608 96<224 288>
LayerCount: 2
Fore
SplineSet
32 512 m 5
 224 704 l 5
 288 704 l 1
 480 512 l 1
 480 448 l 1
 432 448 l 1
 288 608 l 1
 224 608 l 1
 80 448 l 1
 32 448 l 1
 32 512 l 5
EndSplineSet
EndChar

StartChar: LOW
Encoding: 95 95 64
Width: 512
GlyphClass: 1
Flags: W
HStem: -128 64<32 480>
LayerCount: 2
Fore
SplineSet
32 -128 m 1
 32 -64 l 1
 480 -64 l 1
 480 -128 l 1
 32 -128 l 1
EndSplineSet
EndChar

StartChar: GRAVE
Encoding: 96 96 65
Width: 512
GlyphClass: 1
Flags: W
HStem: 512 192
VStem: 160 192
LayerCount: 2
Fore
SplineSet
208 704 m 5
 352 560 l 5
 352 512 l 5
 288 512 l 5
 160 640 l 5
 160 704 l 5
 208 704 l 5
EndSplineSet
EndChar

StartChar: LATIN
Encoding: 97 97 66
Width: 512
GlyphClass: 1
Flags: W
HStem: 0 64<129.845 384> 224 64<129.845 384> 384 64<64 382.155>
VStem: 64 64<65.8446 222.155> 384 64<64 224 288 382.155>
LayerCount: 2
Fore
SplineSet
144 0 m 2
 99.83984375 0 64 35.83984375 64 80 c 2
 64 208 l 2
 64 252.16015625 99.83984375 288 144 288 c 2
 384 288 l 1
 384 352 l 2
 384 369.6640625 369.6640625 384 352 384 c 2
 64 384 l 5
 64 448 l 5
 368 448 l 2
 412.16015625 448 448 412.16015625 448 368 c 2
 448 0 l 1
 144 0 l 2
128 96 m 2
 128 78.3359375 142.3359375 64 160 64 c 2
 384 64 l 1
 384 224 l 1
 160 224 l 2
 142.3359375 224 128 209.6640625 128 192 c 2
 128 96 l 2
EndSplineSet
EndChar

StartChar: LATIN
Encoding: 98 98 67
Width: 512
GlyphClass: 1
Flags: W
HStem: 0 64<128 382.155> 384 64<128 382.155> 620 20G<64 128>
VStem: 64 64<64 384 448 640> 384 64<65.8446 382.155>
LayerCount: 2
Fore
SplineSet
448 80 m 2
 448 35.83984375 412.16015625 0 368 0 c 2
 64 0 l 1
 64 640 l 1
 128 640 l 1
 128 448 l 1
 368 448 l 2
 412.16015625 448 448 412.16015625 448 368 c 2
 448 80 l 2
352 64 m 2
 369.6640625 64 384 78.3359375 384 96 c 2
 384 352 l 2
 384 369.6640625 369.6640625 384 352 384 c 2
 128 384 l 1
 128 64 l 1
 352 64 l 2
EndSplineSet
EndChar

StartChar: LATIN
Encoding: 99 99 68
Width: 512
GlyphClass: 1
Flags: W
HStem: 0 64<129.845 448> 384 64<129.845 448>
VStem: 64 64<65.8446 382.155>
LayerCount: 2
Fore
SplineSet
64 368 m 6
 64 412.16015625 99.83984375 448 144 448 c 6
 448 448 l 1
 448 384 l 1
 160 384 l 2
 142.3359375 384 128 369.6640625 128 352 c 2
 128 96 l 2
 128 78.3359375 142.3359375 64 160 64 c 2
 448 64 l 1
 448 0 l 1
 144 0 l 2
 99.83984375 0 64 35.83984375 64 80 c 2
 64 368 l 6
EndSplineSet
EndChar

StartChar: LATIN
Encoding: 100 100 69
Width: 512
GlyphClass: 1
Flags: W
HStem: 0 64<129.845 384> 384 64<129.845 384> 620 20G<384 448>
VStem: 64 64<65.8446 382.155> 384 64<64 384 448 640>
LayerCount: 2
Fore
SplineSet
64 368 m 6
 64 412.16015625 99.83984375 448 144 448 c 6
 384 448 l 1
 384 640 l 1
 448 640 l 1
 448 0 l 1
 144 0 l 2
 99.83984375 0 64 35.83984375 64 80 c 2
 64 368 l 6
128 96 m 2
 128 78.3359375 142.3359375 64 160 64 c 2
 384 64 l 1
 384 384 l 1
 160 384 l 2
 142.3359375 384 128 369.6640625 128 352 c 2
 128 96 l 2
EndSplineSet
EndChar

StartChar: LATIN
Encoding: 101 101 70
Width: 512
GlyphClass: 1
Flags: W
HStem: 0 64<129.845 448> 192 64<128 384> 384 64<129.845 384>
VStem: 64 64<65.8446 192 256 382.155> 384 64<256 384>
CounterMasks: 1 e0
LayerCount: 2
Fore
SplineSet
144 0 m 6
 99.83984375 0 64 35.83984375 64 80 c 6
 64 368 l 6
 64 412.16015625 99.83984375 448 144 448 c 6
 448 448 l 5
 448 192 l 5
 128 192 l 5
 128 96 l 6
 128 78.3359375 142.3359375 64 160 64 c 6
 448 64 l 5
 448 0 l 5
 144 0 l 6
160 384 m 6
 142.3359375 384 128 369.6640625 128 352 c 6
 128 256 l 5
 384 256 l 5
 384 384 l 5
 160 384 l 6
EndSplineSet
EndChar

StartChar: LATIN
Encoding: 102 102 71
Width: 512
GlyphClass: 1
Flags: W
HStem: 0 21G<160 224> 320 64<96 160 224 352> 576 64<225.845 416>
VStem: 160 64<0 320 384 574.155>
LayerCount: 2
Fore
SplineSet
160 560 m 6
 160 604.16015625 195.83984375 640 240 640 c 6
 416 640 l 1
 416 576 l 1
 256 576 l 2
 238.3359375 576 224 561.6640625 224 544 c 2
 224 384 l 1
 352 384 l 1
 352 320 l 1
 224 320 l 1
 224 0 l 1
 160 0 l 1
 160 320 l 1
 96 320 l 1
 96 384 l 1
 160 384 l 1
 160 560 l 6
EndSplineSet
EndChar

StartChar: LATIN
Encoding: 103 103 72
Width: 512
GlyphClass: 1
Flags: W
HStem: -192 64<64 382.155> 0 64<129.845 382.561> 384 64<129.845 384>
VStem: 64 64<65.8446 382.155> 384 64<-126.155 -1.43943 65.4394 384>
LayerCount: 2
Fore
SplineSet
448 -112 m 2
 448 -156.16015625 412.16015625 -192 368 -192 c 2
 64 -192 l 1
 64 -128 l 1
 352 -128 l 2
 369.6640625 -128 384 -113.6640625 384 -96 c 2
 384 -32 l 2
 384 -14.3359375 369.6640625 0 352 0 c 2
 144 0 l 2
 99.83984375 0 64 35.83984375 64 80 c 2
 64 368 l 2
 64 412.16015625 99.83984375 448 144 448 c 2
 448 448 l 1
 448 -112 l 2
352 64 m 2
 369.6640625 64 384 78.3359375 384 96 c 2
 384 384 l 1
 160 384 l 2
 142.3359375 384 128 369.6640625 128 352 c 2
 128 96 l 2
 128 78.3359375 142.3359375 64 160 64 c 2
 352 64 l 2
EndSplineSet
EndChar

StartChar: LATIN
Encoding: 104 104 73
Width: 512
GlyphClass: 1
Flags: W
HStem: 0 21G<64 128 384 448> 384 64<128 382.155> 620 20G<64 128>
VStem: 64 64<0 384 448 640> 384 64<0 382.155>
LayerCount: 2
Fore
SplineSet
368 448 m 6
 412.16015625 448 448 412.16015625 448 368 c 6
 448 0 l 1
 384 0 l 1
 384 352 l 2
 384 369.6640625 369.6640625 384 352 384 c 2
 128 384 l 1
 128 0 l 1
 64 0 l 1
 64 640 l 1
 128 640 l 1
 128 448 l 1
 368 448 l 6
EndSplineSet
EndChar

StartChar: LATIN
Encoding: 105 105 74
Width: 512
GlyphClass: 1
Flags: W
HStem: 0 21G<224 288> 428 20G<224 288> 544 96<224 288>
VStem: 224 64<0 448 544 640>
LayerCount: 2
Fore
SplineSet
224 0 m 1
 224 448 l 1
 288 448 l 1
 288 0 l 5
 224 0 l 1
224 544 m 1
 224 640 l 1
 288 640 l 1
 288 544 l 1
 224 544 l 1
EndSplineSet
EndChar

StartChar: LATIN
Encoding: 106 106 75
Width: 512
GlyphClass: 1
Flags: W
HStem: -192 64<36 222.155> 428 20G<224 288> 544 96<224 288>
VStem: 224 64<-126.155 448 544 640>
LayerCount: 2
Fore
SplineSet
288 -112 m 2
 288 -156.16015625 252.16015625 -192 208 -192 c 2
 36 -192 l 5
 36 -128 l 5
 192 -128 l 2
 209.6640625 -128 224 -113.6640625 224 -96 c 2
 224 448 l 1
 288 448 l 1
 288 -112 l 2
224 544 m 1
 224 640 l 1
 288 640 l 1
 288 544 l 1
 224 544 l 1
EndSplineSet
EndChar

StartChar: LATIN
Encoding: 107 107 76
Width: 512
GlyphClass: 1
Flags: W
HStem: 0 21G<96 160 381.429 448> 224 64<160 192> 428 20G<318 384> 620 20G<96 160>
VStem: 96 64<0 224 288 640>
LayerCount: 2
Fore
SplineSet
400 0 m 1
 192 224 l 1
 160 224 l 1
 160 0 l 1
 96 0 l 1
 96 640 l 1
 160 640 l 1
 160 288 l 1
 192 288 l 1
 336 448 l 1
 384 448 l 1
 384 400 l 1
 256 288 l 1
 256 224 l 1
 448 48 l 1
 448 0 l 1
 400 0 l 1
EndSplineSet
EndChar

StartChar: LATIN
Encoding: 108 108 77
Width: 512
GlyphClass: 1
Flags: W
HStem: 0 64<225.845 416> 620 20G<160 224>
VStem: 160 64<65.8446 640>
LayerCount: 2
Fore
SplineSet
240 0 m 6
 195.83984375 0 160 35.83984375 160 80 c 6
 160 640 l 1
 224 640 l 1
 224 96 l 2
 224 78.3359375 238.3359375 64 256 64 c 2
 416 64 l 1
 416 0 l 1
 240 0 l 6
EndSplineSet
EndChar

StartChar: LATIN
Encoding: 109 109 78
Width: 512
GlyphClass: 1
Flags: W
HStem: 0 21G<64 128 384 448> 384 64<128 221.865 288.258 382.155>
VStem: 64 64<0 384> 222 66<192 384> 384 64<0 382.155>
LayerCount: 2
Fore
SplineSet
352 384 m 2
 288.2578125 384 l 1
 288 192 l 5
 222 192 l 5
 221.865234375 384 l 1
 128 384 l 1
 128 0 l 1
 64 0 l 1
 64 448 l 1
 368 448 l 2
 412.16015625 448 448 412.16015625 448 368 c 2
 448 0 l 1
 384 0 l 1
 384 352 l 2
 384 369.6640625 369.6640625 384 352 384 c 2
EndSplineSet
EndChar

StartChar: LATIN
Encoding: 110 110 79
Width: 512
GlyphClass: 1
Flags: W
HStem: 0 21G<64 128 384 448> 384 64<128 382.155>
VStem: 64 64<0 384> 384 64<0 382.155>
LayerCount: 2
Fore
SplineSet
368 448 m 6
 412.16015625 448 448 412.16015625 448 368 c 6
 448 0 l 1
 384 0 l 1
 384 352 l 2
 384 369.6640625 369.6640625 384 352 384 c 2
 128 384 l 1
 128 0 l 1
 64 0 l 1
 64 448 l 1
 368 448 l 6
EndSplineSet
EndChar

StartChar: LATIN
Encoding: 111 111 80
Width: 512
GlyphClass: 1
Flags: W
HStem: 0 64<129.845 382.155> 384 64<129.845 382.155>
VStem: 64 64<65.8446 382.155> 384 64<65.8446 382.155>
LayerCount: 2
Fore
SplineSet
64 368 m 6
 64 412.16015625 99.83984375 448 144 448 c 6
 368 448 l 2
 412.16015625 448 448 412.16015625 448 368 c 2
 448 80 l 2
 448 35.83984375 412.16015625 0 368 0 c 2
 144 0 l 2
 99.83984375 0 64 35.83984375 64 80 c 2
 64 368 l 6
352 64 m 2
 369.6640625 64 384 78.3359375 384 96 c 2
 384 352 l 2
 384 369.6640625 369.6640625 384 352 384 c 2
 160 384 l 2
 142.3359375 384 128 369.6640625 128 352 c 2
 128 96 l 2
 128 78.3359375 142.3359375 64 160 64 c 2
 352 64 l 2
EndSplineSet
EndChar

StartChar: LATIN
Encoding: 112 112 81
Width: 512
GlyphClass: 1
Flags: W
HStem: -192 21G<64 128> 0 64<128 382.155> 384 64<128 382.155>
VStem: 64 64<-192 0 64 384> 384 64<65.8446 382.155>
LayerCount: 2
Fore
SplineSet
448 80 m 2
 448 35.83984375 412.16015625 0 368 0 c 2
 128 0 l 1
 128 -192 l 1
 64 -192 l 1
 64 448 l 1
 368 448 l 2
 412.16015625 448 448 412.16015625 448 368 c 2
 448 80 l 2
352 64 m 2
 369.6640625 64 384 78.3359375 384 96 c 2
 384 352 l 2
 384 369.6640625 369.6640625 384 352 384 c 2
 128 384 l 1
 128 64 l 1
 352 64 l 2
EndSplineSet
EndChar

StartChar: LATIN
Encoding: 113 113 82
Width: 512
GlyphClass: 1
Flags: W
HStem: -192 21G<384 448> 0 64<129.845 384> 384 64<129.845 384>
VStem: 64 64<65.8446 382.155> 384 64<-192 0 64 384>
LayerCount: 2
Fore
SplineSet
64 80 m 2
 64 368 l 2
 64 412.16015625 99.83984375 448 144 448 c 2
 448 448 l 1
 448 -192 l 1
 384 -192 l 1
 384 0 l 1
 144 0 l 2
 99.83984375 0 64 35.83984375 64 80 c 2
160 64 m 2
 384 64 l 1
 384 384 l 1
 160 384 l 2
 142.3359375 384 128 369.6640625 128 352 c 2
 128 96 l 2
 128 78.3359375 142.3359375 64 160 64 c 2
EndSplineSet
EndChar

StartChar: LATIN
Encoding: 114 114 83
Width: 512
GlyphClass: 1
Flags: W
HStem: 0 21G<64 128> 384 64<129.845 448>
VStem: 64 64<0 382.155>
LayerCount: 2
Fore
SplineSet
448 384 m 5
 160 384 l 2
 142.3359375 384 128 369.6640625 128 352 c 2
 128 0 l 1
 64 0 l 1
 64 368 l 2
 64 412.16015625 99.83984375 448 144 448 c 2
 448 448 l 1
 448 384 l 5
EndSplineSet
EndChar

StartChar: LATIN
Encoding: 115 115 84
Width: 512
GlyphClass: 1
Flags: W
HStem: 0 64<64 382.155> 192 64<129.845 382.155> 384 64<129.845 448>
VStem: 64 64<257.845 382.155> 384 64<65.8446 190.155>
CounterMasks: 1 e0
LayerCount: 2
Fore
SplineSet
160 384 m 2
 142.3359375 384 128 369.6640625 128 352 c 2
 128 288 l 2
 128 270.3359375 142.3359375 256 160 256 c 2
 368 256 l 2
 412.16015625 256 448 220.16015625 448 176 c 2
 448 80 l 2
 448 35.83984375 412.16015625 0 368 0 c 2
 64 0 l 1
 64 64 l 1
 352 64 l 2
 369.6640625 64 384 78.3359375 384 96 c 2
 384 160 l 2
 384 177.6640625 369.6640625 192 352 192 c 2
 144 192 l 2
 99.83984375 192 64 227.83984375 64 272 c 2
 64 368 l 2
 64 412.16015625 99.83984375 448 144 448 c 2
 448 448 l 1
 448 384 l 1
 160 384 l 2
EndSplineSet
EndChar

StartChar: LATIN
Encoding: 116 116 85
Width: 512
GlyphClass: 1
Flags: W
HStem: 0 64<225.845 416> 384 64<96 160 224 352> 620 20G<160 224>
VStem: 160 64<65.8446 384 448 640>
LayerCount: 2
Fore
SplineSet
240 0 m 6
 195.83984375 0 160 35.83984375 160 80 c 6
 160 384 l 1
 96 384 l 1
 96 448 l 1
 160 448 l 1
 160 640 l 1
 224 640 l 1
 224 448 l 1
 352 448 l 1
 352 384 l 1
 224 384 l 1
 224 96 l 2
 224 78.3359375 238.3359375 64 256 64 c 2
 416 64 l 1
 416 0 l 1
 240 0 l 6
EndSplineSet
EndChar

StartChar: LATIN
Encoding: 117 117 86
Width: 512
GlyphClass: 1
Flags: W
HStem: 0 64<129.439 384> 428 20G<64 128 384 448>
VStem: 64 64<65.4394 448> 384 64<64 448>
LayerCount: 2
Fore
SplineSet
128 0 m 2
 92.671875 0 64 28.671875 64 64 c 2
 64 448 l 1
 128 448 l 1
 128 96 l 2
 128 78.3359375 142.3359375 64 160 64 c 2
 384 64 l 1
 384 448 l 1
 448 448 l 1
 448 0 l 1
 128 0 l 2
EndSplineSet
EndChar

StartChar: LATIN
Encoding: 118 118 87
Width: 512
GlyphClass: 1
Flags: W
HStem: 0 64<240 272> 428 20G<64 128 384 448>
VStem: 64 64<176 448> 384 64<176 448>
LayerCount: 2
Fore
SplineSet
224 0 m 5
 64 160 l 5
 64 448 l 1
 128 448 l 1
 128 176 l 1
 240 64 l 1
 272 64 l 1
 384 176 l 1
 384 448 l 1
 448 448 l 1
 448 160 l 1
 288 0 l 1
 224 0 l 5
EndSplineSet
EndChar

StartChar: LATIN
Encoding: 119 119 88
Width: 512
GlyphClass: 1
Flags: W
HStem: 0 64<129.845 223.742 290.135 384> 428 20G<64 128 384 448>
VStem: 64 64<65.8446 448> 223.742 66.3926<64 256> 384 64<64 448>
LayerCount: 2
Fore
SplineSet
160 64 m 6
 223.7421875 64 l 5
 224 256 l 5
 290 256 l 5
 290.134765625 64 l 5
 384 64 l 5
 384 448 l 5
 448 448 l 5
 448 0 l 5
 144 0 l 6
 99.83984375 0 64 35.83984375 64 80 c 6
 64 448 l 5
 128 448 l 5
 128 96 l 6
 128 78.3359375 142.3359375 64 160 64 c 6
EndSplineSet
EndChar

StartChar: LATIN
Encoding: 120 120 89
Width: 512
GlyphClass: 1
Flags: W
HStem: 0 21G<64 142.286 369.714 448> 428 20G<64 142.286 369.714 448>
LayerCount: 2
Fore
SplineSet
128 0 m 5
 64 0 l 1
 384 448 l 1
 448 448 l 5
 128 0 l 5
64 448 m 1
 128 448 l 1
 448 0 l 1
 384 0 l 1
 64 448 l 1
EndSplineSet
EndChar

StartChar: LATIN
Encoding: 121 121 90
Width: 512
GlyphClass: 1
Flags: W
HStem: -192 64<64 382.155> 0 64<129.845 384> 428 20G<64 128 384 448>
VStem: 64 64<65.8446 448> 384 64<-126.155 0 64 448>
LayerCount: 2
Fore
SplineSet
448 -112 m 6
 448 -156.16015625 412.16015625 -192 368 -192 c 6
 64 -192 l 1
 64 -128 l 1
 352 -128 l 2
 369.6640625 -128 384 -113.6640625 384 -96 c 2
 384 0 l 1
 144 0 l 2
 99.83984375 0 64 35.83984375 64 80 c 2
 64 448 l 1
 128 448 l 1
 128 96 l 2
 128 78.3359375 142.3359375 64 160 64 c 2
 384 64 l 1
 384 448 l 1
 448 448 l 1
 448 -112 l 6
EndSplineSet
EndChar

StartChar: LATIN
Encoding: 122 122 91
Width: 512
GlyphClass: 1
Flags: W
HStem: 0 64<160 448> 384 64<64 384>
LayerCount: 2
Fore
SplineSet
448 352 m 1
 160 64 l 1
 448 64 l 1
 448 0 l 1
 64 0 l 1
 64 64 l 1
 384 384 l 1
 64 384 l 1
 64 448 l 1
 448 448 l 1
 448 352 l 1
EndSplineSet
EndChar

StartChar: LEFT
Encoding: 123 123 92
Width: 512
GlyphClass: 1
Flags: W
HStem: -128 64<257.845 448> 256 128<64 184.435> 704 64<257.845 448>
VStem: 64 128<288 352> 192 64<-62.1554 248.435 391.565 702.155>
CounterMasks: 1 e0
LayerCount: 2
Fore
SplineSet
192 688 m 2xe8
 192 732.16015625 227.83984375 768 272 768 c 2
 448 768 l 1
 448 704 l 1
 288 704 l 2
 270.3359375 704 256 689.6640625 256 672 c 2
 256 400 l 2xe8
 256 373.50390625 234.49609375 352 208 352 c 2
 192 352 l 1
 192 288 l 1xf0
 208 288 l 2
 234.49609375 288 256 266.49609375 256 240 c 2
 256 -32 l 2
 256 -49.6640625 270.3359375 -64 288 -64 c 2
 448 -64 l 1
 448 -128 l 1
 272 -128 l 2
 227.83984375 -128 192 -92.16015625 192 -48 c 2
 192 208 l 2xe8
 192 234.49609375 170.49609375 256 144 256 c 2
 64 256 l 1
 64 384 l 1xf0
 144 384 l 2
 170.49609375 384 192 405.50390625 192 432 c 2
 192 688 l 2xe8
EndSplineSet
EndChar

StartChar: VERTICAL
Encoding: 124 124 93
Width: 512
GlyphClass: 1
Flags: W
VStem: 224 64<-64 704>
LayerCount: 2
Fore
SplineSet
224 -64 m 1
 224 704 l 1
 288 704 l 1
 288 -64 l 1
 224 -64 l 1
EndSplineSet
EndChar

StartChar: RIGHT
Encoding: 125 125 94
Width: 512
GlyphClass: 1
Flags: W
HStem: -128 64<64 254.155> 256 128<327.565 448> 704 64<64 254.155>
VStem: 256 64<-62.1554 248.435 391.565 702.155> 320 128<288 352>
CounterMasks: 1 e0
LayerCount: 2
Fore
SplineSet
320 688 m 2xf0
 320 432 l 2xf0
 320 405.50390625 341.50390625 384 368 384 c 2
 448 384 l 1
 448 256 l 1xe8
 368 256 l 2
 341.50390625 256 320 234.49609375 320 208 c 2
 320 -48 l 2
 320 -92.16015625 284.16015625 -128 240 -128 c 2
 64 -128 l 1
 64 -64 l 1
 224 -64 l 2
 241.6640625 -64 256 -49.6640625 256 -32 c 2
 256 240 l 2xf0
 256 266.49609375 277.50390625 288 304 288 c 2
 320 288 l 1
 320 352 l 1xe8
 304 352 l 2
 277.50390625 352 256 373.50390625 256 400 c 2
 256 672 l 2
 256 689.6640625 241.6640625 704 224 704 c 2
 64 704 l 1
 64 768 l 1
 240 768 l 2
 284.16015625 768 320 732.16015625 320 688 c 2xf0
EndSplineSet
EndChar

StartChar: TILDE
Encoding: 126 126 95
Width: 512
GlyphClass: 1
Flags: W
HStem: 224 64<304 382.155> 320 64<129.845 192>
VStem: 64 64<224 318.561> 384 64<289.439 384>
LayerCount: 2
Fore
SplineSet
288 224 m 1
 192 320 l 1
 160 320 l 2
 142.3359375 320 128 305.6640625 128 288 c 2
 128 224 l 1
 64 224 l 1
 64 320 l 2
 64 355.328125 99.83984375 384 144 384 c 2
 208 384 l 25
 304 288 l 25
 352 288 l 2
 369.6640625 288 384 302.3359375 384 320 c 2
 384 384 l 1
 448 384 l 1
 448 288 l 2
 448 252.671875 412.16015625 224 368 224 c 2
 288 224 l 1
EndSplineSet
EndChar

StartChar: INVERTED
Encoding: 161 161 98
Width: 512
GlyphClass: 1
Flags: W
VStem: 224 64
LayerCount: 2
Fore
SplineSet
288 640 m 1
 224 640 l 1
 224 512 l 1
 288 512 l 1
 288 640 l 1
224 404 m 1
 224 0 l 1
 288 0 l 1
 288 404 l 1
 224 404 l 1
EndSplineSet
EndChar

StartChar: CENT
Encoding: 162 162 99
Width: 512
GlyphClass: 1
Flags: W
HStem: 0 64<129.845 256 320 448> 384 64<129.845 256 320 448>
VStem: 64 64<65.8446 382.155> 256 64<-64 0 64 384 448 512>
LayerCount: 2
Fore
SplineSet
144 0 m 6
 99.83984375 0 64 35.83984375 64 80 c 6
 64 368 l 2
 64 412.16015625 99.83984375 448 144 448 c 2
 256 448 l 1
 256 512 l 1
 320 512 l 1
 320 448 l 1
 448 448 l 1
 448 384 l 1
 320 384 l 1
 320 64 l 1
 448 64 l 1
 448 0 l 1
 320 0 l 1
 320 -64 l 1
 256 -64 l 1
 256 0 l 1
 144 0 l 6
128 96 m 2
 128 78.3359375 142.3359375 64 160 64 c 2
 256 64 l 1
 256 384 l 1
 160 384 l 2
 142.3359375 384 128 369.6640625 128 352 c 2
 128 96 l 2
EndSplineSet
EndChar

StartChar: POUND
Encoding: 163 163 100
Width: 512
GlyphClass: 1
Flags: W
HStem: 0 64<64 96 160 448> 288 64<64 128 192 384> 576 64<193.845 350.155>
VStem: 128 64<128 288 352 574.155> 352 64<512 574.155>
CounterMasks: 1 e0
LayerCount: 2
Fore
SplineSet
96 64 m 1
 128 128 l 1
 128 288 l 1
 64 288 l 1
 64 352 l 1
 128 352 l 1
 128 560 l 2
 128 604.16015625 163.83984375 640 208 640 c 2
 336 640 l 2
 380.16015625 640 416 604.16015625 416 560 c 2
 416 512 l 1
 352 512 l 1
 352 544 l 2
 352 561.6640625 337.6640625 576 320 576 c 2
 224 576 l 2
 206.3359375 576 192 561.6640625 192 544 c 2
 192 352 l 1
 384 352 l 1
 384 288 l 1
 192 288 l 1
 192 128 l 1
 160 64 l 1
 448 64 l 1
 448 0 l 1
 64 0 l 1
 64 64 l 1
 96 64 l 1
EndSplineSet
EndChar

StartChar: CURRENCY
Encoding: 164 164 101
Width: 512
GlyphClass: 1
Flags: WO
HStem: 160 64<240 272> 416 64<240 272>
VStem: 96 64<225.439 414.561> 352 64<225.439 414.561>
LayerCount: 2
Fore
SplineSet
320 544 m 5
 416 544 l 1
 352 464 l 1
 368 464 l 1
 394.49609375 464 416 442.49609375 416 416 c 1
 416 224 l 1
 416 197.50390625 394.49609375 176 368 176 c 1
 352 176 l 1
 352 160 l 1
 416 96 l 1
 320 96 l 1
 272 160 l 1
 240 160 l 1
 192 96 l 1
 96 96 l 1
 160 160 l 1
 160 176 l 1
 144 176 l 1
 117.50390625 176 96 197.50390625 96 224 c 1
 96 416 l 1
 96 442.49609375 117.50390625 464 144 464 c 1
 160 464 l 1
 96 544 l 1
 192 544 l 1
 240 480 l 1
 272 480 l 5
 320 544 l 5
352 256 m 1
 352 384 l 1
 352 401.6640625 337.6640625 416 320 416 c 1
 192 416 l 1
 174.3359375 416 160 401.6640625 160 384 c 1
 160 256 l 1
 160 238.3359375 174.3359375 224 192 224 c 1
 320 224 l 1
 337.6640625 224 352 238.3359375 352 256 c 1
EndSplineSet
EndChar

StartChar: YEN
Encoding: 165 165 102
Width: 512
GlyphClass: 1
Flags: W
HStem: 0 21G<224 288> 64 64<96 224 288 416> 192 64<96 224 288 416> 620 20G<64 136.75 375.25 448>
VStem: 224 64<0 64 128 192 256 320>
LayerCount: 2
Fore
SplineSet
288 320 m 5
 288 256 l 1
 416 256 l 1
 416 192 l 1
 288 192 l 1
 288 128 l 1
 416 128 l 1
 416 64 l 1
 288 64 l 1
 288 0 l 1
 224 0 l 1
 224 64 l 1
 96 64 l 1
 96 128 l 1
 224 128 l 1
 224 192 l 1
 96 192 l 1
 96 256 l 1
 224 256 l 1
 224 320 l 1
 64 608 l 1
 64 640 l 1
 128 640 l 1
 240 384 l 1
 272 384 l 1
 384 640 l 1
 448 640 l 1
 448 608 l 5
 288 320 l 5
EndSplineSet
EndChar

StartChar: BROKEN
Encoding: 166 166 103
Width: 512
GlyphClass: 1
Flags: W
VStem: 224 64<-64 256 384 704>
LayerCount: 2
Fore
SplineSet
288 -64 m 1
 224 -64 l 1
 224 256 l 1
 288 256 l 1
 288 -64 l 1
288 384 m 1
 224 384 l 1
 224 704 l 1
 288 704 l 1
 288 384 l 1
EndSplineSet
EndChar

StartChar: SECTION
Encoding: 167 167 104
Width: 512
GlyphClass: 1
Flags: W
HStem: -64 80<208 224 320 336> -64 64<224 320> -48 80<160 192 336 352> 0 32<128 144> 160 64<192 288> 416 64<224 320> 608 80<160 176 320 352> 608 32<368 384> 624 80<176 192 288 304> 640 64<192 288>
VStem: 96 80<240 256 384 400 528 544 608 624> 96 64<256 384 544 608> 112 80<224 240 400 416 512 528 624 640> 320 80<0 16 112 128 224 240 400 416> 336 80<16 32 96 112 240 256 384 400> 352 64<32 96 256 384>
LayerCount: 2
Fore
SplineSet
336 -64 m 1x8c02
 192 -64 l 1x4c0a
 192 -48 l 1x2c0a
 160 -48 l 1x2c10
 160 -32 l 1
 144 -32 l 1
 144 0 l 1
 128 0 l 1
 128 32 l 1
 208 32 l 1x1c10
 208 16 l 1
 224 16 l 1x8c10
 224 0 l 1
 320 0 l 1x4c14
 320 16 l 1x8c14
 336 16 l 1x8c02
 336 32 l 1x2c02
 352 32 l 1
 352 96 l 1x2c01
 336 96 l 1
 336 112 l 1x2c02
 320 112 l 1
 320 128 l 1
 304 128 l 1
 304 144 l 1
 288 144 l 1
 288 160 l 1
 176 160 l 1
 176 176 l 1x2c24
 144 176 l 1
 144 192 l 1
 128 192 l 1
 128 208 l 1
 112 208 l 1
 112 240 l 1x2c08
 96 240 l 1
 96 400 l 1x2c20
 112 400 l 1
 112 432 l 1
 128 432 l 1
 128 448 l 1
 144 448 l 1
 144 480 l 1
 128 480 l 1
 128 496 l 1
 112 496 l 1
 112 528 l 1x2c08
 96 528 l 1
 96 624 l 1x2ca0
 112 624 l 1
 112 656 l 1x2c88
 128 656 l 1
 128 672 l 1
 144 672 l 1
 144 688 l 1
 176 688 l 1x0e20
 176 704 l 1x0ca0
 320 704 l 1x0c64
 320 688 l 1x0e24
 352 688 l 1x0e01
 352 672 l 1
 368 672 l 1
 368 640 l 1
 384 640 l 1
 384 608 l 1
 304 608 l 1x0d01
 304 624 l 1
 288 624 l 1x0c81
 288 640 l 1
 192 640 l 1x0c49
 192 624 l 1x0c89
 176 624 l 1x0ca0
 176 608 l 1x0e20
 160 608 l 1
 160 544 l 1x0e10
 176 544 l 1
 176 528 l 1x0e20
 192 528 l 1
 192 512 l 1
 208 512 l 1
 208 496 l 1
 224 496 l 1
 224 480 l 1
 336 480 l 1
 336 464 l 1x0e0a
 368 464 l 1
 368 448 l 1
 384 448 l 1
 384 432 l 1
 400 432 l 1
 400 400 l 1x0e04
 416 400 l 1
 416 240 l 1x0e02
 400 240 l 1
 400 208 l 1
 384 208 l 1
 384 192 l 1
 368 192 l 1
 368 160 l 1
 384 160 l 1
 384 144 l 1
 400 144 l 1
 400 112 l 1x0e04
 416 112 l 1
 416 16 l 1x8e02
 400 16 l 1
 400 -16 l 1x8e04
 384 -16 l 1
 384 -32 l 1
 368 -32 l 1
 368 -48 l 1
 336 -48 l 1x2c02
 336 -64 l 1x8c02
192 224 m 1
 320 224 l 1
 320 240 l 1x0c0c
 336 240 l 1
 336 256 l 1x0c02
 352 256 l 1
 352 384 l 1x0c01
 336 384 l 1
 336 400 l 1x0c02
 320 400 l 1
 320 416 l 1
 192 416 l 1
 192 400 l 1x0c0c
 176 400 l 1
 176 384 l 1x0c20
 160 384 l 1
 160 256 l 1x0c10
 176 256 l 1
 176 240 l 1x0c20
 192 240 l 1
 192 224 l 1
EndSplineSet
EndChar

StartChar: DIAERESIS
Encoding: 168 168 105
Width: 512
GlyphClass: 1
Flags: W
HStem: 512 96<128 192 320 384>
VStem: 128 64<512 608> 320 64<512 608>
LayerCount: 2
Fore
SplineSet
384 512 m 1
 320 512 l 1
 320 608 l 1
 384 608 l 1
 384 512 l 1
192 512 m 1
 128 512 l 1
 128 608 l 1
 192 608 l 1
 192 512 l 1
EndSplineSet
EndChar

StartChar: COPYRIGHT
Encoding: 169 169 106
Width: 512
GlyphClass: 1
Flags: W
HStem: 0 80<144 160 352 368> 0 64<160 352> 16 80<128 144 368 384> 128 64<240 352> 320 64<240 352> 416 80<128 144 368 384> 432 80<144 160 352 368> 448 64<160 352>
VStem: 64 80<80 96 416 432> 64 64<96 416> 80 80<64 80 432 448> 160 80<192 208 304 320> 160 64<208 304> 352 80<64 80 432 448> 368 80<80 96 416 432> 384 64<96 416>
LayerCount: 2
Fore
SplineSet
368 0 m 1x9802
 144 0 l 1x9882
 144 16 l 1
 112 16 l 1x3882
 112 32 l 1
 96 32 l 1
 96 48 l 1
 80 48 l 1
 80 80 l 1x9820
 64 80 l 1
 64 432 l 1x9a80
 80 432 l 1
 80 464 l 1x9a20
 96 464 l 1
 96 480 l 1
 112 480 l 1
 112 496 l 1
 144 496 l 1x1c80
 144 512 l 1
 368 512 l 1x1a82
 368 496 l 1
 400 496 l 1x1c82
 400 480 l 1
 416 480 l 1
 416 464 l 1
 432 464 l 1
 432 432 l 1x1a04
 448 432 l 1
 448 80 l 1x9a02
 432 80 l 1
 432 48 l 1x9a04
 416 48 l 1
 416 32 l 1
 400 32 l 1
 400 16 l 1
 368 16 l 1x3802
 368 0 l 1x9802
160 64 m 1x5820
 352 64 l 1x5824
 352 80 l 1x9824
 368 80 l 1x9802
 368 96 l 1x3802
 384 96 l 1
 384 416 l 1x3c01
 368 416 l 1x3c02
 368 432 l 1x1a02
 352 432 l 1x1a04
 352 448 l 1
 160 448 l 1x1924
 160 432 l 1x1a24
 144 432 l 1x1a80
 144 416 l 1x1c80
 128 416 l 1
 128 96 l 1x3c40
 144 96 l 1x3c80
 144 80 l 1x9880
 160 80 l 1x9820
 160 64 l 1x5820
352 128 m 1
 224 128 l 1
 224 144 l 1x180c
 192 144 l 1
 192 160 l 1
 176 160 l 1
 176 192 l 1
 160 192 l 1
 160 320 l 1x1810
 176 320 l 1
 176 352 l 1
 192 352 l 1
 192 368 l 1
 224 368 l 1
 224 384 l 1x1808
 352 384 l 1
 352 320 l 1
 240 320 l 1
 240 304 l 1x1814
 224 304 l 1
 224 208 l 1x1808
 240 208 l 1
 240 192 l 1x1810
 352 192 l 1
 352 128 l 1
EndSplineSet
EndChar

StartChar: FEMININE
Encoding: 170 170 107
Width: 512
GlyphClass: 1
Flags: W
HStem: 256 64<128 384> 384 64<208 320> 512 64<208 320> 640 64<160 288>
VStem: 128 80<448 464 496 512> 128 64<464 496> 320 64<448 512 576 608>
LayerCount: 2
Fore
SplineSet
384 256 m 1xf6
 128 256 l 1
 128 320 l 1
 384 320 l 1
 384 256 l 1xf6
384 384 m 1
 192 384 l 1
 192 400 l 1xf6
 160 400 l 1
 160 416 l 1
 144 416 l 1
 144 448 l 1
 128 448 l 1
 128 512 l 1xfa
 144 512 l 1
 144 544 l 1
 160 544 l 1
 160 560 l 1
 192 560 l 1
 192 576 l 1
 320 576 l 1
 320 608 l 1
 304 608 l 1
 304 624 l 1
 288 624 l 1
 288 640 l 1
 160 640 l 1
 160 704 l 1
 304 704 l 1
 304 688 l 1
 336 688 l 1
 336 672 l 1
 352 672 l 1
 352 656 l 1
 368 656 l 1
 368 624 l 1
 384 624 l 1
 384 384 l 1
208 448 m 1xfa
 320 448 l 1
 320 512 l 1
 208 512 l 1
 208 496 l 1xfa
 192 496 l 1
 192 464 l 1xf6
 208 464 l 1
 208 448 l 1xfa
EndSplineSet
EndChar

StartChar: LEFT-POINTING
Encoding: 171 171 108
Width: 512
GlyphClass: 1
Flags: W
HStem: 64 80<208 224 368 384> 64 64<224 240 384 400> 64 48<240 256 400 416> 64 32<256 272 416 432> 64 16<272 288 432 448> 192 64<64 80 224 240> 208 32<48 64 208 224> 304 80<208 224 368 384> 320 64<224 240 384 400> 336 48<240 256 400 416> 352 32<256 272 416 432> 368 16<272 288 432 448>
LayerCount: 2
Fore
SplineSet
448 64 m 1x08
 352 64 l 1
 352 80 l 1
 336 80 l 1x08
 336 96 l 1
 320 96 l 1x10
 320 112 l 1
 304 112 l 1x20
 304 128 l 1
 288 128 l 1x40
 288 144 l 1
 272 144 l 1
 272 160 l 1
 256 160 l 1
 256 176 l 1
 240 176 l 1
 240 192 l 1
 224 192 l 1x84
 224 208 l 1
 208 208 l 1
 208 240 l 1
 224 240 l 1x02
 224 256 l 1
 240 256 l 1
 240 272 l 1
 256 272 l 1
 256 288 l 1
 272 288 l 1
 272 304 l 1
 288 304 l 1x05
 288 320 l 1
 304 320 l 1x0080
 304 336 l 1
 320 336 l 1x0040
 320 352 l 1
 336 352 l 1x0020
 336 368 l 1
 352 368 l 1
 352 384 l 1
 448 384 l 1
 448 368 l 1
 432 368 l 1x0010
 432 352 l 1
 416 352 l 1x0020
 416 336 l 1
 400 336 l 1x0040
 400 320 l 1
 384 320 l 1x0080
 384 304 l 1
 368 304 l 1
 368 288 l 1
 352 288 l 1
 352 272 l 1
 336 272 l 1
 336 256 l 1
 320 256 l 1x05
 320 240 l 1
 304 240 l 1
 304 208 l 1
 320 208 l 1x02
 320 192 l 1
 336 192 l 1
 336 176 l 1
 352 176 l 1
 352 160 l 1
 368 160 l 1
 368 144 l 1
 384 144 l 1x84
 384 128 l 1
 400 128 l 1x40
 400 112 l 1
 416 112 l 1x20
 416 96 l 1
 432 96 l 1x10
 432 80 l 1
 448 80 l 1
 448 64 l 1x08
288 64 m 1
 192 64 l 1
 192 80 l 1
 176 80 l 1x08
 176 96 l 1
 160 96 l 1x10
 160 112 l 1
 144 112 l 1x20
 144 128 l 1
 128 128 l 1x40
 128 144 l 1
 112 144 l 1
 112 160 l 1
 96 160 l 1
 96 176 l 1
 80 176 l 1
 80 192 l 1
 64 192 l 1x84
 64 208 l 1
 48 208 l 1
 48 240 l 1
 64 240 l 1x02
 64 256 l 1
 80 256 l 1
 80 272 l 1
 96 272 l 1
 96 288 l 1
 112 288 l 1
 112 304 l 1
 128 304 l 1x05
 128 320 l 1
 144 320 l 1x0080
 144 336 l 1
 160 336 l 1x0040
 160 352 l 1
 176 352 l 1x0020
 176 368 l 1
 192 368 l 1
 192 384 l 1
 288 384 l 1
 288 368 l 1
 272 368 l 1x0010
 272 352 l 1
 256 352 l 1x0020
 256 336 l 1
 240 336 l 1x0040
 240 320 l 1
 224 320 l 1x0080
 224 304 l 1
 208 304 l 1
 208 288 l 1
 192 288 l 1
 192 272 l 1
 176 272 l 1
 176 256 l 1
 160 256 l 1x05
 160 240 l 1
 144 240 l 1
 144 208 l 1
 160 208 l 1x02
 160 192 l 1
 176 192 l 1
 176 176 l 1
 192 176 l 1
 192 160 l 1
 208 160 l 1
 208 144 l 1
 224 144 l 1x84
 224 128 l 1
 240 128 l 1x40
 240 112 l 1
 256 112 l 1x20
 256 96 l 1
 272 96 l 1x10
 272 80 l 1
 288 80 l 1
 288 64 l 1
EndSplineSet
EndChar

StartChar: NOT
Encoding: 172 172 109
Width: 512
GlyphClass: 1
Flags: W
HStem: 384 64<64 384>
VStem: 384 64<192 384>
LayerCount: 2
Fore
SplineSet
448 192 m 1
 384 192 l 1
 384 384 l 1
 64 384 l 1
 64 448 l 1
 448 448 l 1
 448 192 l 1
EndSplineSet
EndChar

StartChar: SOFT
Encoding: 173 173 110
Width: 512
GlyphClass: 1
Flags: W
HStem: 256 64<96 416>
VStem: 96 320<256 320>
LayerCount: 2
Fore
SplineSet
416 256 m 1
 96 256 l 1
 96 320 l 1
 416 320 l 1
 416 256 l 1
EndSplineSet
EndChar

StartChar: REGISTERED
Encoding: 174 174 111
Width: 512
GlyphClass: 1
Flags: W
HStem: 64 80<144 160 352 368> 64 64<160 352> 80 80<128 144 368 384> 288 64<224 272> 384 64<224 288> 480 80<128 144 368 384> 496 80<144 160 352 368> 512 64<160 352>
VStem: 64 80<144 160 480 496> 64 64<160 480> 80 80<128 144 496 512> 160 64<192 288 352 384> 288 64<192 272 352 384> 352 80<128 144 496 512> 368 80<144 160 480 496> 384 64<160 480>
LayerCount: 2
Fore
SplineSet
368 64 m 1x9802
 144 64 l 1x9882
 144 80 l 1
 112 80 l 1x3882
 112 96 l 1
 96 96 l 1
 96 112 l 1
 80 112 l 1
 80 144 l 1x9820
 64 144 l 1
 64 496 l 1x9a80
 80 496 l 1
 80 528 l 1x9a20
 96 528 l 1
 96 544 l 1
 112 544 l 1
 112 560 l 1
 144 560 l 1x1c80
 144 576 l 1
 368 576 l 1x1a82
 368 560 l 1
 400 560 l 1x1c82
 400 544 l 1
 416 544 l 1
 416 528 l 1
 432 528 l 1
 432 496 l 1x1a04
 448 496 l 1
 448 144 l 1x9a02
 432 144 l 1
 432 112 l 1x9a04
 416 112 l 1
 416 96 l 1
 400 96 l 1
 400 80 l 1
 368 80 l 1x3802
 368 64 l 1x9802
160 128 m 1x5820
 352 128 l 1x5824
 352 144 l 1x9824
 368 144 l 1x9802
 368 160 l 1x3802
 384 160 l 1
 384 480 l 1x3c01
 368 480 l 1x3c02
 368 496 l 1x1a02
 352 496 l 1x1a04
 352 512 l 1
 160 512 l 1x1924
 160 496 l 1x1a24
 144 496 l 1x1a80
 144 480 l 1x1c80
 128 480 l 1
 128 160 l 1x3c40
 144 160 l 1x3c80
 144 144 l 1x9880
 160 144 l 1x9820
 160 128 l 1x5820
352 192 m 1x1808
 288 192 l 1
 288 272 l 1x1808
 272 272 l 1
 272 288 l 1
 224 288 l 1
 224 192 l 1
 160 192 l 1
 160 448 l 1
 320 448 l 1
 320 432 l 1
 336 432 l 1
 336 416 l 1
 352 416 l 1
 352 320 l 1x1814
 336 320 l 1
 336 304 l 1
 320 304 l 1
 320 288 l 1
 336 288 l 1
 336 272 l 1
 352 272 l 1
 352 192 l 1x1808
224 352 m 1x1818
 288 352 l 1
 288 384 l 1
 224 384 l 1
 224 352 l 1x1818
EndSplineSet
EndChar

StartChar: MACRON
Encoding: 175 175 112
Width: 512
GlyphClass: 1
Flags: W
HStem: 704 64<128 384>
VStem: 128 256<704 768>
LayerCount: 2
Fore
SplineSet
384 704 m 1
 128 704 l 1
 128 768 l 1
 384 768 l 1
 384 704 l 1
EndSplineSet
EndChar

StartChar: DEGREE
Encoding: 176 176 113
Width: 512
GlyphClass: 1
Flags: W
HStem: 384 80<208 224 288 304> 384 64<224 288> 400 80<192 208 304 320> 576 80<192 208 304 320> 592 80<208 224 288 304> 608 64<224 288>
VStem: 128 80<464 480 576 592> 128 64<480 576> 144 80<448 464 592 608> 288 80<448 464 592 608> 304 80<464 480 576 592> 320 64<480 576>
LayerCount: 2
Fore
SplineSet
304 384 m 1x8020
 208 384 l 1x8220
 208 400 l 1
 176 400 l 1x2220
 176 416 l 1
 160 416 l 1
 160 432 l 1
 144 432 l 1
 144 464 l 1x8080
 128 464 l 1
 128 592 l 1x8a
 144 592 l 1
 144 624 l 1x8880
 160 624 l 1
 160 640 l 1
 176 640 l 1
 176 656 l 1
 208 656 l 1x12
 208 672 l 1
 304 672 l 1x0a20
 304 656 l 1
 336 656 l 1x1220
 336 640 l 1
 352 640 l 1
 352 624 l 1
 368 624 l 1
 368 592 l 1x0840
 384 592 l 1
 384 464 l 1x8820
 368 464 l 1
 368 432 l 1x8840
 352 432 l 1
 352 416 l 1
 336 416 l 1
 336 400 l 1
 304 400 l 1x2020
 304 384 l 1x8020
224 448 m 1x4080
 288 448 l 1x40c0
 288 464 l 1x80c0
 304 464 l 1x8020
 304 480 l 1x2020
 320 480 l 1
 320 576 l 1x3010
 304 576 l 1x3020
 304 592 l 1x0820
 288 592 l 1x0840
 288 608 l 1
 224 608 l 1x04c0
 224 592 l 1x08c0
 208 592 l 1x0a
 208 576 l 1x12
 192 576 l 1
 192 480 l 1x31
 208 480 l 1x32
 208 464 l 1x82
 224 464 l 1x8080
 224 448 l 1x4080
EndSplineSet
EndChar

StartChar: PLUS-MINUS
Encoding: 177 177 114
Width: 512
GlyphClass: 1
Flags: W
HStem: 64 64<96 416> 320 64<96 224 288 416>
VStem: 224 64<192 320 384 512>
LayerCount: 2
Fore
SplineSet
416 64 m 1
 96 64 l 1
 96 128 l 1
 416 128 l 1
 416 64 l 1
288 192 m 1
 224 192 l 1
 224 320 l 1
 96 320 l 1
 96 384 l 1
 224 384 l 1
 224 512 l 1
 288 512 l 1
 288 384 l 1
 416 384 l 1
 416 320 l 1
 288 320 l 1
 288 192 l 1
EndSplineSet
EndChar

StartChar: SUPERSCRIPT
Encoding: 178 178 115
Width: 512
GlyphClass: 1
Flags: W
HStem: 288 96<160 176 320 384> 288 64<128 144 224 320> 576 48<144 160> 576 32<128 144> 592 64<192 208 304 320> 608 64<208 304>
VStem: 304 64<512 528 592 608> 320 64<352 384 528 592>
LayerCount: 2
Fore
SplineSet
384 288 m 1x81
 128 288 l 1
 128 352 l 1
 144 352 l 1x41
 144 368 l 1
 160 368 l 1
 160 384 l 1
 176 384 l 1
 176 400 l 1
 192 400 l 1
 192 416 l 1
 208 416 l 1
 208 432 l 1
 224 432 l 1
 224 448 l 1
 240 448 l 1
 240 464 l 1
 256 464 l 1
 256 480 l 1
 272 480 l 1
 272 496 l 1
 288 496 l 1
 288 512 l 1
 304 512 l 1
 304 528 l 1x82
 320 528 l 1
 320 592 l 1x89
 304 592 l 1x8a
 304 608 l 1
 208 608 l 1x06
 208 592 l 1
 192 592 l 1x0a
 192 576 l 1
 128 576 l 1
 128 608 l 1
 144 608 l 1x12
 144 624 l 1
 160 624 l 1x22
 160 640 l 1
 176 640 l 1
 176 656 l 1
 208 656 l 1x0a
 208 672 l 1
 304 672 l 1x06
 304 656 l 1
 336 656 l 1x0a
 336 640 l 1
 352 640 l 1
 352 624 l 1
 368 624 l 1x22
 368 592 l 1x0a
 384 592 l 1
 384 528 l 1x09
 368 528 l 1
 368 496 l 1x0a
 352 496 l 1
 352 480 l 1
 336 480 l 1
 336 464 l 1
 320 464 l 1
 320 448 l 1x09
 304 448 l 1
 304 432 l 1
 288 432 l 1
 288 416 l 1
 272 416 l 1
 272 400 l 1
 256 400 l 1
 256 384 l 1
 240 384 l 1x8a
 240 368 l 1
 224 368 l 1
 224 352 l 1
 320 352 l 1x41
 320 384 l 1
 384 384 l 1
 384 288 l 1x81
EndSplineSet
EndChar

StartChar: SUPERSCRIPT
Encoding: 179 179 116
Width: 512
GlyphClass: 1
Flags: W
HStem: 288 64<208 304> 304 64<192 208 304 320> 336 48<144 160> 352 32<128 144> 448 64<224 304> 576 48<144 160> 576 32<128 144> 592 64<192 208 304 320> 608 64<208 304>
VStem: 128 80<352 368 592 608> 128 64<368 384 576 592> 304 64<352 368 592 608> 320 64<368 432 528 592>
LayerCount: 2
Fore
SplineSet
304 288 m 1x8810
 208 288 l 1x8850
 208 304 l 1
 176 304 l 1x4850
 176 320 l 1
 160 320 l 1
 160 336 l 1
 144 336 l 1x2850
 144 352 l 1
 128 352 l 1x1850
 128 384 l 1
 192 384 l 1x1820
 192 368 l 1x4820
 208 368 l 1x4840
 208 352 l 1
 304 352 l 1x8850
 304 368 l 1x4850
 320 368 l 1
 320 432 l 1x4808
 304 432 l 1
 304 448 l 1
 224 448 l 1
 224 512 l 1
 304 512 l 1
 304 528 l 1x4810
 320 528 l 1
 320 592 l 1x4908
 304 592 l 1x4910
 304 608 l 1
 208 608 l 1x08d0
 208 592 l 1x0950
 192 592 l 1x0920
 192 576 l 1
 128 576 l 1x0a20
 128 608 l 1
 144 608 l 1x0a40
 144 624 l 1
 160 624 l 1x0c40
 160 640 l 1
 176 640 l 1
 176 656 l 1
 208 656 l 1x0940
 208 672 l 1
 304 672 l 1x08d0
 304 656 l 1
 336 656 l 1x0950
 336 640 l 1
 352 640 l 1
 352 624 l 1
 368 624 l 1x0c50
 368 592 l 1x0950
 384 592 l 1
 384 512 l 1x0908
 368 512 l 1
 368 496 l 1
 352 496 l 1
 352 464 l 1
 368 464 l 1
 368 448 l 1x0910
 384 448 l 1
 384 368 l 1x4908
 368 368 l 1x4910
 368 336 l 1
 352 336 l 1x2810
 352 320 l 1
 336 320 l 1
 336 304 l 1
 304 304 l 1x4810
 304 288 l 1x8810
EndSplineSet
EndChar

StartChar: ACUTE
Encoding: 180 180 117
Width: 512
GlyphClass: 1
Flags: W
HStem: 512 48<192 208>
VStem: 336 48<688 704>
LayerCount: 2
Fore
SplineSet
256 512 m 1
 192 512 l 1
 192 560 l 1
 208 560 l 1
 208 576 l 1
 224 576 l 1
 224 592 l 1
 240 592 l 1
 240 608 l 1
 256 608 l 1
 256 624 l 1
 272 624 l 1
 272 640 l 1
 288 640 l 1
 288 656 l 1
 304 656 l 1
 304 672 l 1
 320 672 l 1
 320 688 l 1
 336 688 l 1
 336 704 l 1
 384 704 l 1
 384 640 l 1
 368 640 l 1
 368 624 l 1
 352 624 l 1
 352 608 l 1
 336 608 l 1
 336 592 l 1
 320 592 l 1
 320 576 l 1
 304 576 l 1
 304 560 l 1
 288 560 l 1
 288 544 l 1
 272 544 l 1
 272 528 l 1
 256 528 l 1
 256 512 l 1
EndSplineSet
EndChar

StartChar: MICRO
Encoding: 181 181 118
Width: 512
GlyphClass: 1
Flags: W
HStem: -192 21G<64 128> 0 64<400 480> 24 40<130.516 317.484 386.516 400.186> 428 20G<64 128 320 384>
VStem: 64 64<-192 24 65.4394 448> 320 64<65.4394 448>
LayerCount: 2
Fore
SplineSet
128 24 m 1xbc
 128 -192 l 1
 64 -192 l 1
 64 448 l 1
 128 448 l 1
 128 96 l 2
 128 78.3359375 142.3359375 64 160 64 c 2
 288 64 l 2xbc
 305.6640625 64 320 78.3359375 320 96 c 2
 320 448 l 1
 384 448 l 1
 384 96 l 2
 384 78.3359375 398.3359375 64 416 64 c 2
 480 64 l 1
 480 0 l 1
 400 0 l 1xdc
 400 7 l 1
 404.275939205 19.246359221 389.379707289 26.9669341218 368 24 c 1
 128 24 l 1xbc
EndSplineSet
EndChar

StartChar: PILCROW
Encoding: 182 182 119
Width: 512
GlyphClass: 1
Flags: W
HStem: 0 21G<224 288 384 448> 320 64<160 224> 576 64<160 224 288 384>
VStem: 64 80<400 416 544 560> 64 64<416 544> 80 80<384 400 560 576> 224 64<0 320 384 576> 384 64<0 576>
LayerCount: 2
Fore
SplineSet
448 0 m 1xf3
 384 0 l 1
 384 576 l 1
 288 576 l 1
 288 0 l 1
 224 0 l 1
 224 320 l 1
 144 320 l 1
 144 336 l 1xf3
 112 336 l 1
 112 352 l 1
 96 352 l 1
 96 368 l 1
 80 368 l 1
 80 400 l 1xe7
 64 400 l 1
 64 560 l 1xf3
 80 560 l 1
 80 592 l 1xe7
 96 592 l 1
 96 608 l 1
 112 608 l 1
 112 624 l 1
 144 624 l 1
 144 640 l 1
 448 640 l 1
 448 0 l 1xf3
160 384 m 1xe7
 224 384 l 1
 224 576 l 1
 160 576 l 1
 160 560 l 1xe7
 144 560 l 1
 144 544 l 1xf3
 128 544 l 1
 128 416 l 1xeb
 144 416 l 1
 144 400 l 1xf3
 160 400 l 1
 160 384 l 1xe7
EndSplineSet
EndChar

StartChar: MIDDLE
Encoding: 183 183 120
Width: 512
GlyphClass: 1
Flags: W
HStem: 288 96<224 288>
VStem: 224 64<288 384>
LayerCount: 2
Fore
SplineSet
288 288 m 1
 224 288 l 1
 224 384 l 1
 288 384 l 1
 288 288 l 1
EndSplineSet
EndChar

StartChar: CEDILLA
Encoding: 184 184 121
Width: 512
GlyphClass: 1
Flags: W
HStem: -192 64<160 192> -20 20G<224 288>
VStem: 160 48<-192 -176> 224 64<-96 0>
LayerCount: 2
Fore
SplineSet
208 -192 m 1
 160 -192 l 1
 160 -128 l 1
 192 -128 l 1
 192 -112 l 1
 208 -112 l 1
 208 -96 l 1
 224 -96 l 1
 224 0 l 1
 288 0 l 1
 288 -112 l 1
 272 -112 l 1
 272 -144 l 1
 256 -144 l 1
 256 -160 l 1
 240 -160 l 1
 240 -176 l 1
 208 -176 l 1
 208 -192 l 1
EndSplineSet
EndChar

StartChar: SUPERSCRIPT
Encoding: 185 185 122
Width: 512
GlyphClass: 1
Flags: W
HStem: 288 64<160 224 288 352>
VStem: 160 48<560 576> 160 32<544 560> 224 64<352 576 656 672>
LayerCount: 2
Fore
SplineSet
352 288 m 1xd0
 160 288 l 1
 160 352 l 1xb0
 224 352 l 1
 224 576 l 1
 208 576 l 1
 208 560 l 1xd0
 192 560 l 1
 192 544 l 1
 160 544 l 1
 160 608 l 1
 176 608 l 1
 176 624 l 1
 192 624 l 1
 192 640 l 1xb0
 208 640 l 1
 208 656 l 1
 224 656 l 1
 224 672 l 1
 288 672 l 1
 288 352 l 1
 352 352 l 1
 352 288 l 1xd0
EndSplineSet
EndChar

StartChar: MASCULINE
Encoding: 186 186 123
Width: 512
GlyphClass: 1
Flags: W
HStem: 256 64<128 384> 384 80<208 224 288 304> 384 64<224 288> 400 80<192 208 304 320> 576 80<192 208 304 320> 592 80<208 224 288 304> 608 64<224 288>
VStem: 128 80<464 480 576 592> 128 64<480 576> 144 80<448 464 592 608> 288 80<448 464 592 608> 304 80<464 480 576 592> 320 64<480 576>
LayerCount: 2
Fore
SplineSet
384 256 m 1x8088
 128 256 l 1
 128 320 l 1
 384 320 l 1
 384 256 l 1x8088
304 384 m 1xc010
 208 384 l 1xc110
 208 400 l 1
 176 400 l 1x9110
 176 416 l 1
 160 416 l 1
 160 432 l 1
 144 432 l 1
 144 464 l 1xc040
 128 464 l 1
 128 592 l 1xc5
 144 592 l 1
 144 624 l 1xc440
 160 624 l 1
 160 640 l 1
 176 640 l 1
 176 656 l 1
 208 656 l 1x89
 208 672 l 1
 304 672 l 1x8510
 304 656 l 1
 336 656 l 1x8910
 336 640 l 1
 352 640 l 1
 352 624 l 1
 368 624 l 1
 368 592 l 1x8420
 384 592 l 1
 384 464 l 1xc410
 368 464 l 1
 368 432 l 1xc420
 352 432 l 1
 352 416 l 1
 336 416 l 1
 336 400 l 1
 304 400 l 1x9010
 304 384 l 1xc010
224 448 m 1xa040
 288 448 l 1xa060
 288 464 l 1xc060
 304 464 l 1xc010
 304 480 l 1x9010
 320 480 l 1
 320 576 l 1x9808
 304 576 l 1x9810
 304 592 l 1x8410
 288 592 l 1x8420
 288 608 l 1
 224 608 l 1x8260
 224 592 l 1x8460
 208 592 l 1x85
 208 576 l 1x89
 192 576 l 1
 192 480 l 1x9880
 208 480 l 1x99
 208 464 l 1xc1
 224 464 l 1xc040
 224 448 l 1xa040
EndSplineSet
EndChar

StartChar: RIGHT-POINTING
Encoding: 187 187 124
Width: 512
GlyphClass: 1
Flags: W
HStem: 64 80<128 144 288 304> 64 64<112 128 272 288> 64 48<96 112 256 272> 64 32<80 96 240 256> 64 16<64 80 224 240> 192 64<272 288 432 448> 208 32<288 304 448 464> 304 80<128 144 288 304> 320 64<112 128 272 288> 336 48<96 112 256 272> 352 32<80 96 240 256> 368 16<64 80 224 240>
LayerCount: 2
Fore
SplineSet
224 80 m 1x08
 240 80 l 1x08
 240 96 l 1
 256 96 l 1x10
 256 112 l 1
 272 112 l 1x20
 272 128 l 1
 288 128 l 1x40
 288 144 l 1
 304 144 l 1
 304 160 l 1
 320 160 l 1
 320 176 l 1
 336 176 l 1
 336 192 l 1
 352 192 l 1x84
 352 208 l 1
 368 208 l 1
 368 240 l 1
 352 240 l 1x02
 352 256 l 1
 336 256 l 1
 336 272 l 1
 320 272 l 1
 320 288 l 1
 304 288 l 1
 304 304 l 1
 288 304 l 1x05
 288 320 l 1
 272 320 l 1x0080
 272 336 l 1
 256 336 l 1x0040
 256 352 l 1
 240 352 l 1x0020
 240 368 l 1
 224 368 l 1
 224 384 l 1
 320 384 l 1
 320 368 l 1
 336 368 l 1x0010
 336 352 l 1
 352 352 l 1x0020
 352 336 l 1
 368 336 l 1x0040
 368 320 l 1
 384 320 l 1x0080
 384 304 l 1
 400 304 l 1
 400 288 l 1
 416 288 l 1
 416 272 l 1
 432 272 l 1
 432 256 l 1
 448 256 l 1x05
 448 240 l 1
 464 240 l 1
 464 208 l 1
 448 208 l 1x02
 448 192 l 1
 432 192 l 1
 432 176 l 1
 416 176 l 1
 416 160 l 1
 400 160 l 1
 400 144 l 1
 384 144 l 1x84
 384 128 l 1
 368 128 l 1x40
 368 112 l 1
 352 112 l 1x20
 352 96 l 1
 336 96 l 1x10
 336 80 l 1
 320 80 l 1
 320 64 l 1
 224 64 l 1
 224 80 l 1x08
64 80 m 1
 80 80 l 1x08
 80 96 l 1
 96 96 l 1x10
 96 112 l 1
 112 112 l 1x20
 112 128 l 1
 128 128 l 1x40
 128 144 l 1
 144 144 l 1
 144 160 l 1
 160 160 l 1
 160 176 l 1
 176 176 l 1
 176 192 l 1
 192 192 l 1x84
 192 208 l 1
 208 208 l 1
 208 240 l 1
 192 240 l 1x02
 192 256 l 1
 176 256 l 1
 176 272 l 1
 160 272 l 1
 160 288 l 1
 144 288 l 1
 144 304 l 1
 128 304 l 1x05
 128 320 l 1
 112 320 l 1x0080
 112 336 l 1
 96 336 l 1x0040
 96 352 l 1
 80 352 l 1x0020
 80 368 l 1
 64 368 l 1
 64 384 l 1
 160 384 l 1
 160 368 l 1
 176 368 l 1x0010
 176 352 l 1
 192 352 l 1x0020
 192 336 l 1
 208 336 l 1x0040
 208 320 l 1
 224 320 l 1x0080
 224 304 l 1
 240 304 l 1
 240 288 l 1
 256 288 l 1
 256 272 l 1
 272 272 l 1
 272 256 l 1
 288 256 l 1x05
 288 240 l 1
 304 240 l 1
 304 208 l 1
 288 208 l 1x02
 288 192 l 1
 272 192 l 1
 272 176 l 1
 256 176 l 1
 256 160 l 1
 240 160 l 1
 240 144 l 1
 224 144 l 1x84
 224 128 l 1
 208 128 l 1x40
 208 112 l 1
 192 112 l 1x20
 192 96 l 1
 176 96 l 1x10
 176 80 l 1
 160 80 l 1
 160 64 l 1
 64 64 l 1
 64 80 l 1
EndSplineSet
EndChar

StartChar: VULGAR
Encoding: 188 188 125
Width: 512
GlyphClass: 1
Flags: W
HStem: -32 64<288 352 416 480> 384 64<32 96 160 224> 640 21G<32 64>
VStem: 32 48<656 672> 32 32<640 656> 96 64<448 672 752 768> 224 64<32 224> 352 64<-128 -32 32 160>
LayerCount: 2
Fore
SplineSet
416 -128 m 1xe7
 352 -128 l 1
 352 -32 l 1
 224 -32 l 1
 224 224 l 1
 288 224 l 1
 288 32 l 1
 352 32 l 1
 352 160 l 1
 416 160 l 1
 416 32 l 1
 480 32 l 1
 480 -32 l 1
 416 -32 l 1
 416 -128 l 1xe7
96 96 m 1
 32 96 l 1
 32 160 l 1
 48 160 l 1
 48 176 l 1
 64 176 l 1
 64 192 l 1xef
 80 192 l 1
 80 208 l 1xf7
 96 208 l 1
 96 224 l 1
 112 224 l 1
 112 240 l 1
 128 240 l 1
 128 256 l 1
 144 256 l 1
 144 272 l 1
 160 272 l 1
 160 288 l 1
 176 288 l 1
 176 304 l 1
 192 304 l 1
 192 320 l 1
 208 320 l 1
 208 336 l 1
 224 336 l 1
 224 352 l 1
 240 352 l 1
 240 368 l 1
 256 368 l 1
 256 384 l 1
 272 384 l 1
 272 400 l 1
 288 400 l 1
 288 416 l 1
 304 416 l 1
 304 432 l 1
 320 432 l 1
 320 448 l 1
 336 448 l 1
 336 464 l 1
 352 464 l 1
 352 480 l 1
 368 480 l 1
 368 496 l 1
 384 496 l 1
 384 512 l 1
 400 512 l 1
 400 528 l 1
 416 528 l 1
 416 544 l 1
 480 544 l 1
 480 480 l 1
 464 480 l 1
 464 464 l 1
 448 464 l 1
 448 448 l 1
 432 448 l 1
 432 432 l 1
 416 432 l 1
 416 416 l 1
 400 416 l 1
 400 400 l 1
 384 400 l 1
 384 384 l 1
 368 384 l 1
 368 368 l 1
 352 368 l 1
 352 352 l 1
 336 352 l 1
 336 336 l 1
 320 336 l 1
 320 320 l 1
 304 320 l 1
 304 304 l 1
 288 304 l 1
 288 288 l 1
 272 288 l 1
 272 272 l 1
 256 272 l 1
 256 256 l 1
 240 256 l 1
 240 240 l 1
 224 240 l 1
 224 224 l 1
 208 224 l 1
 208 208 l 1
 192 208 l 1
 192 192 l 1
 176 192 l 1
 176 176 l 1
 160 176 l 1
 160 160 l 1
 144 160 l 1
 144 144 l 1
 128 144 l 1
 128 128 l 1
 112 128 l 1
 112 112 l 1
 96 112 l 1
 96 96 l 1
224 384 m 1
 32 384 l 1
 32 448 l 1xef
 96 448 l 1
 96 672 l 1
 80 672 l 1
 80 656 l 1xf7
 64 656 l 1
 64 640 l 1
 32 640 l 1
 32 704 l 1
 48 704 l 1
 48 720 l 1
 64 720 l 1
 64 736 l 1xef
 80 736 l 1
 80 752 l 1xf7
 96 752 l 1
 96 768 l 1
 160 768 l 1
 160 448 l 1
 224 448 l 1
 224 384 l 1
EndSplineSet
EndChar

StartChar: VULGAR
Encoding: 189 189 126
Width: 512
GlyphClass: 1
Flags: W
HStem: -128 96<256 272 416 480> -128 64<224 240 320 416> 160 48<240 256> 160 32<224 240> 176 64<288 304 400 416> 192 64<304 400> 384 64<32 96 160 224> 640 21G<32 64>
VStem: 32 48<656 672> 32 32<640 656> 96 64<448 672 752 768> 400 64<96 112 176 192> 416 64<-64 -32 112 176 528 544>
LayerCount: 2
Fore
SplineSet
480 -128 m 1x8328
 224 -128 l 1
 224 -64 l 1
 240 -64 l 1x4328
 240 -48 l 1
 256 -48 l 1
 256 -32 l 1
 272 -32 l 1
 272 -16 l 1
 288 -16 l 1
 288 0 l 1
 304 0 l 1
 304 16 l 1
 320 16 l 1
 320 32 l 1
 336 32 l 1
 336 48 l 1
 352 48 l 1
 352 64 l 1
 368 64 l 1
 368 80 l 1
 384 80 l 1
 384 96 l 1
 400 96 l 1
 400 112 l 1x8330
 416 112 l 1
 416 176 l 1x8b28
 400 176 l 1x8b30
 400 192 l 1
 304 192 l 1x0730
 304 176 l 1
 288 176 l 1x0b30
 288 160 l 1
 224 160 l 1
 224 192 l 1
 240 192 l 1x1330
 240 208 l 1
 256 208 l 1x2330
 256 224 l 1
 272 224 l 1
 272 240 l 1
 304 240 l 1x0b30
 304 256 l 1
 400 256 l 1x0730
 400 240 l 1
 432 240 l 1x0b30
 432 224 l 1
 448 224 l 1
 448 208 l 1
 464 208 l 1x2330
 464 176 l 1x0b30
 480 176 l 1
 480 112 l 1x0b28
 464 112 l 1
 464 80 l 1x0b30
 448 80 l 1
 448 64 l 1
 432 64 l 1
 432 48 l 1
 416 48 l 1
 416 32 l 1x0b28
 400 32 l 1
 400 16 l 1
 384 16 l 1
 384 0 l 1
 368 0 l 1
 368 -16 l 1
 352 -16 l 1
 352 -32 l 1
 336 -32 l 1x8b30
 336 -48 l 1
 320 -48 l 1
 320 -64 l 1
 416 -64 l 1x4328
 416 -32 l 1
 480 -32 l 1
 480 -128 l 1x8328
96 96 m 1
 32 96 l 1
 32 160 l 1
 48 160 l 1x1370
 48 176 l 1
 64 176 l 1x0b70
 64 192 l 1x0770
 80 192 l 1x07a0
 80 208 l 1
 96 208 l 1x23a0
 96 224 l 1
 112 224 l 1
 112 240 l 1
 128 240 l 1x0ba0
 128 256 l 1
 144 256 l 1
 144 272 l 1
 160 272 l 1
 160 288 l 1
 176 288 l 1
 176 304 l 1
 192 304 l 1
 192 320 l 1
 208 320 l 1
 208 336 l 1
 224 336 l 1
 224 352 l 1
 240 352 l 1
 240 368 l 1
 256 368 l 1
 256 384 l 1
 272 384 l 1
 272 400 l 1
 288 400 l 1
 288 416 l 1
 304 416 l 1
 304 432 l 1
 320 432 l 1
 320 448 l 1
 336 448 l 1
 336 464 l 1
 352 464 l 1
 352 480 l 1
 368 480 l 1
 368 496 l 1
 384 496 l 1
 384 512 l 1
 400 512 l 1
 400 528 l 1x07b0
 416 528 l 1
 416 544 l 1
 480 544 l 1
 480 480 l 1x0728
 464 480 l 1
 464 464 l 1x0730
 448 464 l 1
 448 448 l 1
 432 448 l 1
 432 432 l 1
 416 432 l 1
 416 416 l 1x0728
 400 416 l 1
 400 400 l 1
 384 400 l 1
 384 384 l 1
 368 384 l 1
 368 368 l 1
 352 368 l 1
 352 352 l 1
 336 352 l 1
 336 336 l 1
 320 336 l 1
 320 320 l 1
 304 320 l 1
 304 304 l 1
 288 304 l 1
 288 288 l 1
 272 288 l 1
 272 272 l 1
 256 272 l 1
 256 256 l 1
 240 256 l 1x0730
 240 240 l 1
 224 240 l 1x0b30
 224 224 l 1
 208 224 l 1
 208 208 l 1
 192 208 l 1x2330
 192 192 l 1
 176 192 l 1x0730
 176 176 l 1
 160 176 l 1x0b30
 160 160 l 1
 144 160 l 1x1330
 144 144 l 1
 128 144 l 1
 128 128 l 1
 112 128 l 1
 112 112 l 1
 96 112 l 1
 96 96 l 1
224 384 m 1
 32 384 l 1
 32 448 l 1x0360
 96 448 l 1
 96 672 l 1
 80 672 l 1
 80 656 l 1x03a0
 64 656 l 1
 64 640 l 1
 32 640 l 1
 32 704 l 1
 48 704 l 1
 48 720 l 1
 64 720 l 1
 64 736 l 1x0360
 80 736 l 1
 80 752 l 1x03a0
 96 752 l 1
 96 768 l 1
 160 768 l 1
 160 448 l 1
 224 448 l 1
 224 384 l 1
EndSplineSet
EndChar

StartChar: VULGAR
Encoding: 190 190 127
Width: 512
GlyphClass: 1
Flags: W
HStem: -32 64<288 352 416 480> 384 64<112 208> 400 64<96 112 208 224> 432 48<48 64> 448 32<32 48> 464 80<272 288 448 464> 544 64<128 208> 672 48<48 64> 672 32<32 48> 688 64<96 112 208 224> 704 64<112 208>
VStem: 32 80<112 128 448 464 688 704> 32 64<96 112 464 480 672 688> 208 64<448 464 688 704> 224 64<32 224 464 528 624 688> 352 64<-128 -32 32 160>
LayerCount: 2
Fore
SplineSet
416 -128 m 1x8003
 352 -128 l 1
 352 -32 l 1
 224 -32 l 1
 224 224 l 1
 288 224 l 1
 288 32 l 1
 352 32 l 1
 352 160 l 1
 416 160 l 1
 416 32 l 1
 480 32 l 1
 480 -32 l 1
 416 -32 l 1
 416 -128 l 1x8003
96 96 m 1xc009
 32 96 l 1
 32 160 l 1
 48 160 l 1
 48 176 l 1
 64 176 l 1
 64 192 l 1
 80 192 l 1
 80 208 l 1
 96 208 l 1
 96 224 l 1xc009
 112 224 l 1
 112 240 l 1
 128 240 l 1
 128 256 l 1
 144 256 l 1
 144 272 l 1
 160 272 l 1
 160 288 l 1
 176 288 l 1
 176 304 l 1
 192 304 l 1
 192 320 l 1
 208 320 l 1
 208 336 l 1xc015
 224 336 l 1
 224 352 l 1xc003
 240 352 l 1
 240 368 l 1
 256 368 l 1
 256 384 l 1
 272 384 l 1xc005
 272 400 l 1xa005
 288 400 l 1xa003
 288 416 l 1
 304 416 l 1
 304 432 l 1
 320 432 l 1x9003
 320 448 l 1
 336 448 l 1x8803
 336 464 l 1
 352 464 l 1x8403
 352 480 l 1
 368 480 l 1
 368 496 l 1
 384 496 l 1
 384 512 l 1
 400 512 l 1
 400 528 l 1
 416 528 l 1
 416 544 l 1
 480 544 l 1
 480 480 l 1
 464 480 l 1x8a03
 464 464 l 1
 448 464 l 1x8403
 448 448 l 1
 432 448 l 1x8803
 432 432 l 1
 416 432 l 1x9003
 416 416 l 1
 400 416 l 1
 400 400 l 1
 384 400 l 1xa003
 384 384 l 1
 368 384 l 1
 368 368 l 1
 352 368 l 1
 352 352 l 1
 336 352 l 1
 336 336 l 1
 320 336 l 1
 320 320 l 1
 304 320 l 1
 304 304 l 1
 288 304 l 1
 288 288 l 1xc003
 272 288 l 1
 272 272 l 1xc005
 256 272 l 1
 256 256 l 1
 240 256 l 1
 240 240 l 1
 224 240 l 1
 224 224 l 1xc003
 208 224 l 1
 208 208 l 1
 192 208 l 1
 192 192 l 1
 176 192 l 1
 176 176 l 1
 160 176 l 1
 160 160 l 1
 144 160 l 1
 144 144 l 1
 128 144 l 1
 128 128 l 1
 112 128 l 1
 112 112 l 1xc015
 96 112 l 1
 96 96 l 1xc009
208 384 m 1xc005
 112 384 l 1xc015
 112 400 l 1
 80 400 l 1xa015
 80 416 l 1
 64 416 l 1
 64 432 l 1
 48 432 l 1x9015
 48 448 l 1
 32 448 l 1x8815
 32 480 l 1
 96 480 l 1x8809
 96 464 l 1xa009
 112 464 l 1xa011
 112 448 l 1
 208 448 l 1xc015
 208 464 l 1xa015
 224 464 l 1
 224 528 l 1xa003
 208 528 l 1
 208 544 l 1
 128 544 l 1
 128 608 l 1
 208 608 l 1
 208 624 l 1xa205
 224 624 l 1
 224 688 l 1xa243
 208 688 l 1xa245
 208 704 l 1
 112 704 l 1x8035
 112 688 l 1x8055
 96 688 l 1x8049
 96 672 l 1
 32 672 l 1x8089
 32 704 l 1
 48 704 l 1x8091
 48 720 l 1
 64 720 l 1x8111
 64 736 l 1
 80 736 l 1
 80 752 l 1
 112 752 l 1x8051
 112 768 l 1
 208 768 l 1x8035
 208 752 l 1
 240 752 l 1x8055
 240 736 l 1
 256 736 l 1
 256 720 l 1
 272 720 l 1x8115
 272 688 l 1x8055
 288 688 l 1
 288 608 l 1x8243
 272 608 l 1x8245
 272 592 l 1
 256 592 l 1
 256 560 l 1
 272 560 l 1
 272 544 l 1x8405
 288 544 l 1
 288 464 l 1x8403
 272 464 l 1x8405
 272 432 l 1
 256 432 l 1x9005
 256 416 l 1
 240 416 l 1
 240 400 l 1
 208 400 l 1xa005
 208 384 l 1xc005
EndSplineSet
EndChar

StartChar: INVERTED
Encoding: 191 191 128
Width: 512
GlyphClass: 1
Flags: W
HStem: 0 64<129.886 382.114> 512 128<224 288>
VStem: 64 64<65.8862 192> 224 64<346 446 512 640> 384 64<65.8862 128>
CounterMasks: 1 38
LayerCount: 2
Fore
SplineSet
224 640 m 5
 288 640 l 5
 288 512 l 1
 224 512 l 1
 224 640 l 5
288 310 m 1
 128 192 l 1
 128 96 l 2
 128 78 142 64 160 64 c 2
 352 64 l 2
 370 64 384 78 384 96 c 2
 384 128 l 1
 448 128 l 1
 448 80 l 2
 448 36 412 0 368 0 c 2
 144 0 l 2
 100 0 64 36 64 80 c 2
 64 225 l 1
 224 346 l 1
 224 446 l 1
 288 446 l 1
 288 310 l 1
EndSplineSet
EndChar

StartChar: LATIN
Encoding: 192 192 129
Width: 512
GlyphClass: 1
Flags: W
HStem: 0 21G<64 128 384 448> 288 64<128 384> 544 80<128 144 368 384> 560 80<144 160 352 368> 576 64<160 352> 672 48<304 320> 672 32<320 336> 752 48<176 192> 768 32<160 176>
VStem: 64 64<0 288 352 544> 384 64<0 288 352 544>
LayerCount: 2
Fore
SplineSet
448 0 m 1xd060
 384 0 l 1
 384 288 l 1
 128 288 l 1
 128 0 l 1
 64 0 l 1
 64 560 l 1
 80 560 l 1xd060
 80 592 l 1
 96 592 l 1
 96 608 l 1
 112 608 l 1
 112 624 l 1
 144 624 l 1xe060
 144 640 l 1
 368 640 l 1xd060
 368 624 l 1
 400 624 l 1xe060
 400 608 l 1
 416 608 l 1
 416 592 l 1
 432 592 l 1
 432 560 l 1
 448 560 l 1
 448 0 l 1xd060
128 352 m 1
 384 352 l 1
 384 544 l 1
 368 544 l 1xe060
 368 560 l 1
 352 560 l 1xd060
 352 576 l 1
 160 576 l 1xc860
 160 560 l 1
 144 560 l 1xd060
 144 544 l 1
 128 544 l 1xe060
 128 352 l 1
336 672 m 1xc260
 256 672 l 1
 256 688 l 1
 240 688 l 1
 240 704 l 1
 224 704 l 1xc260
 224 720 l 1
 208 720 l 1
 208 736 l 1
 192 736 l 1
 192 752 l 1
 176 752 l 1xc560
 176 768 l 1
 160 768 l 1
 160 800 l 1
 240 800 l 1
 240 784 l 1
 256 784 l 1
 256 768 l 1
 272 768 l 1xc0e0
 272 752 l 1
 288 752 l 1
 288 736 l 1
 304 736 l 1
 304 720 l 1
 320 720 l 1xc560
 320 704 l 1
 336 704 l 1
 336 672 l 1xc260
EndSplineSet
EndChar

StartChar: LATIN
Encoding: 193 193 130
Width: 512
GlyphClass: 1
Flags: W
HStem: 0 21G<64 128 384 448> 288 64<128 384> 544 80<128 144 368 384> 560 80<144 160 352 368> 576 64<160 352> 672 48<192 208> 672 32<176 192> 752 48<320 336> 768 32<336 352>
VStem: 64 64<0 288 352 544> 384 64<0 288 352 544>
LayerCount: 2
Fore
SplineSet
448 0 m 1xd060
 384 0 l 1
 384 288 l 1
 128 288 l 1
 128 0 l 1
 64 0 l 1
 64 560 l 1
 80 560 l 1xd060
 80 592 l 1
 96 592 l 1
 96 608 l 1
 112 608 l 1
 112 624 l 1
 144 624 l 1xe060
 144 640 l 1
 368 640 l 1xd060
 368 624 l 1
 400 624 l 1xe060
 400 608 l 1
 416 608 l 1
 416 592 l 1
 432 592 l 1
 432 560 l 1
 448 560 l 1
 448 0 l 1xd060
128 352 m 1
 384 352 l 1
 384 544 l 1
 368 544 l 1xe060
 368 560 l 1
 352 560 l 1xd060
 352 576 l 1
 160 576 l 1xc860
 160 560 l 1
 144 560 l 1xd060
 144 544 l 1
 128 544 l 1xe060
 128 352 l 1
256 672 m 1xc260
 176 672 l 1
 176 704 l 1
 192 704 l 1xc260
 192 720 l 1
 208 720 l 1
 208 736 l 1
 224 736 l 1
 224 752 l 1
 240 752 l 1xc560
 240 768 l 1
 256 768 l 1
 256 784 l 1
 272 784 l 1
 272 800 l 1
 352 800 l 1
 352 768 l 1
 336 768 l 1xc0e0
 336 752 l 1
 320 752 l 1
 320 736 l 1
 304 736 l 1
 304 720 l 1
 288 720 l 1xc560
 288 704 l 1
 272 704 l 1
 272 688 l 1
 256 688 l 1
 256 672 l 1xc260
EndSplineSet
EndChar

StartChar: LATIN
Encoding: 194 194 131
Width: 512
GlyphClass: 1
Flags: W
HStem: 0 21G<64 128 384 448> 288 64<128 384> 544 80<128 144 368 384> 560 80<144 160 352 368> 576 64<160 352> 704 80<176 192 320 336> 704 64<160 176 336 352> 704 48<144 160 352 368> 704 32<128 144 368 384> 752 80<240 272>
VStem: 64 64<0 288 352 544> 384 64<0 288 352 544>
LayerCount: 2
Fore
SplineSet
448 0 m 1xd030
 384 0 l 1
 384 288 l 1
 128 288 l 1
 128 0 l 1
 64 0 l 1
 64 560 l 1
 80 560 l 1xd030
 80 592 l 1
 96 592 l 1
 96 608 l 1
 112 608 l 1
 112 624 l 1
 144 624 l 1xe030
 144 640 l 1
 368 640 l 1xd030
 368 624 l 1
 400 624 l 1xe030
 400 608 l 1
 416 608 l 1
 416 592 l 1
 432 592 l 1
 432 560 l 1
 448 560 l 1
 448 0 l 1xd030
128 352 m 1
 384 352 l 1
 384 544 l 1
 368 544 l 1xe030
 368 560 l 1
 352 560 l 1xd030
 352 576 l 1
 160 576 l 1xc830
 160 560 l 1
 144 560 l 1xd030
 144 544 l 1
 128 544 l 1xe030
 128 352 l 1
384 704 m 1xc0b0
 304 704 l 1
 304 720 l 1
 288 720 l 1
 288 736 l 1
 272 736 l 1
 272 752 l 1
 240 752 l 1
 240 736 l 1
 224 736 l 1
 224 720 l 1
 208 720 l 1
 208 704 l 1
 128 704 l 1
 128 736 l 1
 144 736 l 1xc0f0
 144 752 l 1
 160 752 l 1xc130
 160 768 l 1
 176 768 l 1xc230
 176 784 l 1
 192 784 l 1xc430
 192 800 l 1
 208 800 l 1
 208 816 l 1
 224 816 l 1
 224 832 l 1
 288 832 l 1xc070
 288 816 l 1
 304 816 l 1
 304 800 l 1
 320 800 l 1
 320 784 l 1
 336 784 l 1xc430
 336 768 l 1
 352 768 l 1xc230
 352 752 l 1
 368 752 l 1xc130
 368 736 l 1
 384 736 l 1
 384 704 l 1xc0b0
EndSplineSet
EndChar

StartChar: LATIN
Encoding: 195 195 132
Width: 512
GlyphClass: 1
Flags: W
HStem: 0 21G<64 128 384 448> 288 64<128 384> 544 80<128 144 368 384> 560 80<144 160 352 368> 576 64<160 352> 672 80<80 96 288 304 352 368> 672 64<64 80 304 352> 720 80<144 160 208 224 416 432> 736 64<160 208 432 448>
VStem: 64 80<544 560 704 720> 64 64<0 288 352 544 672 704> 368 80<544 560 752 768> 384 64<0 288 352 544 768 800>
LayerCount: 2
Fore
SplineSet
448 0 m 1xd008
 384 0 l 1
 384 288 l 1
 128 288 l 1
 128 0 l 1
 64 0 l 1xd028
 64 560 l 1
 80 560 l 1xd040
 80 592 l 1
 96 592 l 1
 96 608 l 1
 112 608 l 1
 112 624 l 1
 144 624 l 1xe040
 144 640 l 1
 368 640 l 1xd050
 368 624 l 1
 400 624 l 1xe050
 400 608 l 1
 416 608 l 1
 416 592 l 1
 432 592 l 1
 432 560 l 1
 448 560 l 1xd050
 448 0 l 1xd008
128 352 m 1
 384 352 l 1
 384 544 l 1xe028
 368 544 l 1xe010
 368 560 l 1
 352 560 l 1xd010
 352 576 l 1
 160 576 l 1xc810
 160 560 l 1
 144 560 l 1xd050
 144 544 l 1xe050
 128 544 l 1xe020
 128 352 l 1
368 672 m 1xc410
 272 672 l 1xc210
 272 688 l 1
 240 688 l 1
 240 704 l 1
 224 704 l 1
 224 720 l 1
 208 720 l 1xc110
 208 736 l 1
 160 736 l 1xc090
 160 720 l 1
 144 720 l 1
 144 704 l 1xc150
 128 704 l 1
 128 672 l 1
 64 672 l 1
 64 736 l 1
 80 736 l 1xc220
 80 752 l 1
 96 752 l 1xc420
 96 768 l 1
 112 768 l 1
 112 784 l 1
 144 784 l 1
 144 800 l 1xc140
 240 800 l 1xc0c0
 240 784 l 1
 272 784 l 1
 272 768 l 1
 288 768 l 1
 288 752 l 1
 304 752 l 1xc440
 304 736 l 1
 352 736 l 1xc240
 352 752 l 1
 368 752 l 1
 368 768 l 1xc450
 384 768 l 1
 384 800 l 1
 448 800 l 1
 448 736 l 1
 432 736 l 1xc088
 432 720 l 1
 416 720 l 1xc108
 416 704 l 1
 400 704 l 1
 400 688 l 1
 368 688 l 1
 368 672 l 1xc410
EndSplineSet
EndChar

StartChar: LATIN
Encoding: 196 196 133
Width: 512
GlyphClass: 1
Flags: W
HStem: 0 21G<64 128 384 448> 288 64<128 384> 544 80<128 144 368 384> 560 80<144 160 352 368> 576 64<160 352> 704 96<128 192 320 384>
VStem: 64 64<0 288 352 544> 128 64<704 800> 320 64<704 800> 384 64<0 288 352 544>
LayerCount: 2
Fore
SplineSet
448 0 m 1xd640
 384 0 l 1
 384 288 l 1
 128 288 l 1
 128 0 l 1
 64 0 l 1
 64 560 l 1
 80 560 l 1xd640
 80 592 l 1
 96 592 l 1
 96 608 l 1
 112 608 l 1
 112 624 l 1
 144 624 l 1xe640
 144 640 l 1
 368 640 l 1xd640
 368 624 l 1
 400 624 l 1xe640
 400 608 l 1
 416 608 l 1
 416 592 l 1
 432 592 l 1
 432 560 l 1
 448 560 l 1
 448 0 l 1xd640
128 352 m 1
 384 352 l 1
 384 544 l 1
 368 544 l 1xe640
 368 560 l 1
 352 560 l 1xd640
 352 576 l 1
 160 576 l 1xce40
 160 560 l 1
 144 560 l 1xd640
 144 544 l 1
 128 544 l 1xe640
 128 352 l 1
384 704 m 1xc480
 320 704 l 1
 320 800 l 1
 384 800 l 1
 384 704 l 1xc480
192 704 m 1xc5
 128 704 l 1
 128 800 l 1
 192 800 l 1
 192 704 l 1xc5
EndSplineSet
EndChar

StartChar: LATIN
Encoding: 197 197 134
Width: 512
GlyphClass: 1
Flags: W
HStem: 0 21G<64 128 384 448> 288 64<128 384> 544 80<128 144 368 384> 560 80<144 160 352 368> 576 64<160 224 288 352> 704 64<160 176 336 352> 768 64<224 288>
VStem: 64 64<0 288 352 544> 160 64<704 768> 224 64<640 656 816 832> 288 64<704 768> 384 64<0 288 352 544>
LayerCount: 2
Fore
SplineSet
448 0 m 1xd150
 384 0 l 1
 384 288 l 1
 128 288 l 1
 128 0 l 1
 64 0 l 1
 64 560 l 1
 80 560 l 1xd150
 80 592 l 1
 96 592 l 1
 96 608 l 1
 112 608 l 1
 112 624 l 1
 144 624 l 1xe150
 144 640 l 1xd150
 224 640 l 1
 224 656 l 1xc950
 208 656 l 1
 208 672 l 1
 192 672 l 1
 192 688 l 1
 176 688 l 1
 176 704 l 1
 160 704 l 1
 160 768 l 1
 176 768 l 1xcd90
 176 784 l 1
 192 784 l 1
 192 800 l 1
 208 800 l 1
 208 816 l 1
 224 816 l 1
 224 832 l 1
 288 832 l 1
 288 816 l 1xc350
 304 816 l 1
 304 800 l 1
 320 800 l 1
 320 784 l 1
 336 784 l 1
 336 768 l 1
 352 768 l 1
 352 704 l 1xc530
 336 704 l 1
 336 688 l 1
 320 688 l 1
 320 672 l 1
 304 672 l 1
 304 656 l 1
 288 656 l 1
 288 640 l 1xcd50
 368 640 l 1xd150
 368 624 l 1
 400 624 l 1xe150
 400 608 l 1
 416 608 l 1
 416 592 l 1
 432 592 l 1
 432 560 l 1
 448 560 l 1
 448 0 l 1xd150
128 352 m 1
 384 352 l 1
 384 544 l 1
 368 544 l 1xe1b0
 368 560 l 1
 352 560 l 1xd1b0
 352 576 l 1
 160 576 l 1xc9b0
 160 560 l 1
 144 560 l 1xd1b0
 144 544 l 1
 128 544 l 1xe1b0
 128 352 l 1
224 704 m 1xc5b0
 288 704 l 1xc5b0
 288 768 l 1
 224 768 l 1xc3b0
 224 704 l 1xc5b0
EndSplineSet
EndChar

StartChar: LATIN
Encoding: 198 198 135
Width: 512
GlyphClass: 1
Flags: W
HStem: 0 64<320 448> 288 64<128 256 320 448> 576 64<160 256 320 448>
VStem: 64 64<0 288 352 544> 256 64<64 288 352 576>
CounterMasks: 1 e0
LayerCount: 2
Fore
SplineSet
448 0 m 1
 256 0 l 1
 256 288 l 1
 128 288 l 1
 128 0 l 1
 64 0 l 1
 64 560 l 1
 80 560 l 1
 80 592 l 1
 96 592 l 1
 96 608 l 1
 112 608 l 1
 112 624 l 1
 144 624 l 1
 144 640 l 1
 448 640 l 1
 448 576 l 1
 320 576 l 1
 320 352 l 1
 448 352 l 1
 448 288 l 1
 320 288 l 1
 320 64 l 1
 448 64 l 1
 448 0 l 1
128 352 m 1
 256 352 l 1
 256 576 l 1
 160 576 l 1
 160 560 l 1
 144 560 l 1
 144 544 l 1
 128 544 l 1
 128 352 l 1
EndSplineSet
EndChar

StartChar: LATIN
Encoding: 199 199 136
Width: 512
GlyphClass: 1
Flags: W
HStem: -192 64<192 224> 0 64<160 256 320 448> 576 64<160 448>
VStem: 64 80<80 96 544 560> 64 64<96 544> 80 80<64 80 560 576> 192 48<-192 -176> 256 64<-96 0>
LayerCount: 2
Fore
SplineSet
240 -192 m 1xe7
 192 -192 l 1
 192 -128 l 1
 224 -128 l 1
 224 -112 l 1
 240 -112 l 1
 240 -96 l 1
 256 -96 l 1
 256 0 l 1
 144 0 l 1
 144 16 l 1xf3
 112 16 l 1
 112 32 l 1
 96 32 l 1
 96 48 l 1
 80 48 l 1
 80 80 l 1xe7
 64 80 l 1
 64 560 l 1xf3
 80 560 l 1
 80 592 l 1xe7
 96 592 l 1
 96 608 l 1
 112 608 l 1
 112 624 l 1
 144 624 l 1
 144 640 l 1xf3
 448 640 l 1
 448 576 l 1
 160 576 l 1
 160 560 l 1xe7
 144 560 l 1
 144 544 l 1xf3
 128 544 l 1
 128 96 l 1xeb
 144 96 l 1
 144 80 l 1xf3
 160 80 l 1
 160 64 l 1
 448 64 l 1
 448 0 l 1
 320 0 l 1
 320 -112 l 1
 304 -112 l 1
 304 -144 l 1
 288 -144 l 1
 288 -160 l 1
 272 -160 l 1
 272 -176 l 1
 240 -176 l 1
 240 -192 l 1xe7
EndSplineSet
EndChar

StartChar: LATIN
Encoding: 200 200 137
Width: 512
GlyphClass: 1
Flags: W
HStem: 0 64<160 448> 288 64<128 352> 576 64<160 448> 672 48<304 320> 672 32<320 336> 752 48<176 192> 768 32<160 176>
VStem: 64 80<80 96 544 560> 64 64<96 288 352 544> 80 80<64 80 560 576>
LayerCount: 2
Fore
SplineSet
448 0 m 1xe040
 144 0 l 1
 144 16 l 1xe1
 112 16 l 1
 112 32 l 1
 96 32 l 1
 96 48 l 1
 80 48 l 1
 80 80 l 1xe040
 64 80 l 1
 64 560 l 1xe1
 80 560 l 1
 80 592 l 1xe040
 96 592 l 1
 96 608 l 1
 112 608 l 1
 112 624 l 1
 144 624 l 1
 144 640 l 1xe1
 448 640 l 1
 448 576 l 1
 160 576 l 1
 160 560 l 1xe040
 144 560 l 1
 144 544 l 1xe1
 128 544 l 1
 128 352 l 1
 352 352 l 1
 352 288 l 1
 128 288 l 1
 128 96 l 1xe080
 144 96 l 1
 144 80 l 1xe1
 160 80 l 1
 160 64 l 1
 448 64 l 1
 448 0 l 1xe040
336 672 m 1xe840
 256 672 l 1
 256 688 l 1
 240 688 l 1
 240 704 l 1
 224 704 l 1xe840
 224 720 l 1
 208 720 l 1
 208 736 l 1
 192 736 l 1
 192 752 l 1
 176 752 l 1xf440
 176 768 l 1
 160 768 l 1
 160 800 l 1
 240 800 l 1
 240 784 l 1
 256 784 l 1
 256 768 l 1
 272 768 l 1xe240
 272 752 l 1
 288 752 l 1
 288 736 l 1
 304 736 l 1
 304 720 l 1
 320 720 l 1xf440
 320 704 l 1
 336 704 l 1
 336 672 l 1xe840
EndSplineSet
EndChar

StartChar: LATIN
Encoding: 201 201 138
Width: 512
GlyphClass: 1
Flags: W
HStem: 0 64<160 448> 288 64<128 352> 576 64<160 448> 672 48<192 208> 672 32<176 192> 752 48<320 336> 768 32<336 352>
VStem: 64 80<80 96 544 560> 64 64<96 288 352 544> 80 80<64 80 560 576>
LayerCount: 2
Fore
SplineSet
448 0 m 1xe040
 144 0 l 1
 144 16 l 1xe1
 112 16 l 1
 112 32 l 1
 96 32 l 1
 96 48 l 1
 80 48 l 1
 80 80 l 1xe040
 64 80 l 1
 64 560 l 1xe1
 80 560 l 1
 80 592 l 1xe040
 96 592 l 1
 96 608 l 1
 112 608 l 1
 112 624 l 1
 144 624 l 1
 144 640 l 1xe1
 448 640 l 1
 448 576 l 1
 160 576 l 1
 160 560 l 1xe040
 144 560 l 1
 144 544 l 1xe1
 128 544 l 1
 128 352 l 1
 352 352 l 1
 352 288 l 1
 128 288 l 1
 128 96 l 1xe080
 144 96 l 1
 144 80 l 1xe1
 160 80 l 1
 160 64 l 1
 448 64 l 1
 448 0 l 1xe040
256 672 m 1xe8
 176 672 l 1
 176 704 l 1
 192 704 l 1xe8
 192 720 l 1
 208 720 l 1
 208 736 l 1
 224 736 l 1
 224 752 l 1
 240 752 l 1xf4
 240 768 l 1
 256 768 l 1
 256 784 l 1
 272 784 l 1
 272 800 l 1
 352 800 l 1
 352 768 l 1
 336 768 l 1xe2
 336 752 l 1
 320 752 l 1
 320 736 l 1
 304 736 l 1
 304 720 l 1
 288 720 l 1xf4
 288 704 l 1
 272 704 l 1
 272 688 l 1
 256 688 l 1
 256 672 l 1xe8
EndSplineSet
EndChar

StartChar: LATIN
Encoding: 202 202 139
Width: 512
GlyphClass: 1
Flags: W
HStem: 0 64<160 448> 288 64<128 352> 576 64<160 448> 704 80<176 192 320 336> 704 64<160 176 336 352> 704 48<144 160 352 368> 704 32<128 144 368 384> 752 80<240 272>
VStem: 64 80<80 96 544 560> 64 64<96 288 352 544> 80 80<64 80 560 576>
LayerCount: 2
Fore
SplineSet
448 0 m 1xe020
 144 0 l 1
 144 16 l 1xe080
 112 16 l 1
 112 32 l 1
 96 32 l 1
 96 48 l 1
 80 48 l 1
 80 80 l 1xe020
 64 80 l 1
 64 560 l 1xe080
 80 560 l 1
 80 592 l 1xe020
 96 592 l 1
 96 608 l 1
 112 608 l 1
 112 624 l 1
 144 624 l 1
 144 640 l 1xe080
 448 640 l 1
 448 576 l 1
 160 576 l 1
 160 560 l 1xe020
 144 560 l 1
 144 544 l 1xe080
 128 544 l 1
 128 352 l 1
 352 352 l 1
 352 288 l 1
 128 288 l 1
 128 96 l 1xe040
 144 96 l 1
 144 80 l 1xe080
 160 80 l 1
 160 64 l 1
 448 64 l 1
 448 0 l 1xe020
384 704 m 1xe220
 304 704 l 1
 304 720 l 1
 288 720 l 1
 288 736 l 1
 272 736 l 1
 272 752 l 1
 240 752 l 1
 240 736 l 1
 224 736 l 1
 224 720 l 1
 208 720 l 1
 208 704 l 1
 128 704 l 1
 128 736 l 1xe340
 144 736 l 1xe380
 144 752 l 1xe480
 160 752 l 1xe420
 160 768 l 1
 176 768 l 1xe820
 176 784 l 1
 192 784 l 1xf020
 192 800 l 1
 208 800 l 1
 208 816 l 1
 224 816 l 1
 224 832 l 1
 288 832 l 1xe120
 288 816 l 1
 304 816 l 1
 304 800 l 1
 320 800 l 1
 320 784 l 1
 336 784 l 1xf020
 336 768 l 1
 352 768 l 1xe820
 352 752 l 1
 368 752 l 1xe420
 368 736 l 1
 384 736 l 1
 384 704 l 1xe220
EndSplineSet
EndChar

StartChar: LATIN
Encoding: 203 203 140
Width: 512
GlyphClass: 1
Flags: W
HStem: 0 64<160 448> 288 64<128 352> 576 64<160 448> 704 96<128 192 320 384>
VStem: 64 80<80 96 544 560> 64 64<96 288 352 544> 80 80<64 80 560 576> 128 64<704 800> 320 64<704 800>
LayerCount: 2
Fore
SplineSet
448 0 m 1xf280
 144 0 l 1
 144 16 l 1xf880
 112 16 l 1
 112 32 l 1
 96 32 l 1
 96 48 l 1
 80 48 l 1
 80 80 l 1xf280
 64 80 l 1
 64 560 l 1xf880
 80 560 l 1
 80 592 l 1xf280
 96 592 l 1
 96 608 l 1
 112 608 l 1
 112 624 l 1
 144 624 l 1
 144 640 l 1xf880
 448 640 l 1
 448 576 l 1
 160 576 l 1
 160 560 l 1xf280
 144 560 l 1
 144 544 l 1xf880
 128 544 l 1
 128 352 l 1
 352 352 l 1
 352 288 l 1
 128 288 l 1
 128 96 l 1xf480
 144 96 l 1
 144 80 l 1xf880
 160 80 l 1
 160 64 l 1
 448 64 l 1
 448 0 l 1xf280
384 704 m 1
 320 704 l 1
 320 800 l 1
 384 800 l 1
 384 704 l 1
192 704 m 1xf180
 128 704 l 1
 128 800 l 1
 192 800 l 1
 192 704 l 1xf180
EndSplineSet
EndChar

StartChar: LATIN
Encoding: 204 204 141
Width: 512
GlyphClass: 1
Flags: W
HStem: 0 64<96 224 288 416> 576 64<96 224 288 416> 672 48<304 320> 672 32<320 336> 752 48<176 192> 768 32<160 176>
VStem: 224 64<64 576>
LayerCount: 2
Fore
SplineSet
416 0 m 1xc2
 96 0 l 1
 96 64 l 1
 224 64 l 1
 224 576 l 1
 96 576 l 1
 96 640 l 1
 416 640 l 1
 416 576 l 1
 288 576 l 1
 288 64 l 1
 416 64 l 1
 416 0 l 1xc2
336 672 m 1xd2
 256 672 l 1
 256 688 l 1
 240 688 l 1
 240 704 l 1
 224 704 l 1xd2
 224 720 l 1
 208 720 l 1
 208 736 l 1
 192 736 l 1
 192 752 l 1
 176 752 l 1xea
 176 768 l 1
 160 768 l 1
 160 800 l 1
 240 800 l 1
 240 784 l 1
 256 784 l 1
 256 768 l 1
 272 768 l 1xc6
 272 752 l 1
 288 752 l 1
 288 736 l 1
 304 736 l 1
 304 720 l 1
 320 720 l 1xea
 320 704 l 1
 336 704 l 1
 336 672 l 1xd2
EndSplineSet
EndChar

StartChar: LATIN
Encoding: 205 205 142
Width: 512
GlyphClass: 1
Flags: W
HStem: 0 64<96 224 288 416> 576 64<96 224 288 416> 672 48<192 208> 672 32<176 192> 752 48<320 336> 768 32<336 352>
VStem: 224 64<64 576>
LayerCount: 2
Fore
SplineSet
416 0 m 1xc2
 96 0 l 1
 96 64 l 1
 224 64 l 1
 224 576 l 1
 96 576 l 1
 96 640 l 1
 416 640 l 1
 416 576 l 1
 288 576 l 1
 288 64 l 1
 416 64 l 1
 416 0 l 1xc2
256 672 m 1xd2
 176 672 l 1
 176 704 l 1
 192 704 l 1xd2
 192 720 l 1
 208 720 l 1
 208 736 l 1
 224 736 l 1
 224 752 l 1
 240 752 l 1xea
 240 768 l 1
 256 768 l 1
 256 784 l 1
 272 784 l 1
 272 800 l 1
 352 800 l 1
 352 768 l 1
 336 768 l 1xc6
 336 752 l 1
 320 752 l 1
 320 736 l 1
 304 736 l 1
 304 720 l 1
 288 720 l 1xea
 288 704 l 1
 272 704 l 1
 272 688 l 1
 256 688 l 1
 256 672 l 1xd2
EndSplineSet
EndChar

StartChar: LATIN
Encoding: 206 206 143
Width: 512
GlyphClass: 1
Flags: W
HStem: 0 64<96 224 288 416> 576 64<96 224 288 416> 704 80<176 192 320 336> 704 64<160 176 336 352> 704 48<144 160 352 368> 704 32<128 144 368 384> 752 80<240 272>
VStem: 224 64<64 576 816 832>
LayerCount: 2
Fore
SplineSet
416 0 m 1xc1
 96 0 l 1
 96 64 l 1
 224 64 l 1
 224 576 l 1
 96 576 l 1
 96 640 l 1
 416 640 l 1
 416 576 l 1
 288 576 l 1
 288 64 l 1
 416 64 l 1
 416 0 l 1xc1
384 704 m 1xc5
 304 704 l 1
 304 720 l 1
 288 720 l 1
 288 736 l 1
 272 736 l 1
 272 752 l 1
 240 752 l 1
 240 736 l 1
 224 736 l 1
 224 720 l 1
 208 720 l 1
 208 704 l 1
 128 704 l 1
 128 736 l 1
 144 736 l 1xc7
 144 752 l 1
 160 752 l 1xc9
 160 768 l 1
 176 768 l 1xd1
 176 784 l 1
 192 784 l 1xe1
 192 800 l 1
 208 800 l 1
 208 816 l 1
 224 816 l 1
 224 832 l 1
 288 832 l 1xc3
 288 816 l 1
 304 816 l 1
 304 800 l 1
 320 800 l 1
 320 784 l 1
 336 784 l 1xe1
 336 768 l 1
 352 768 l 1xd1
 352 752 l 1
 368 752 l 1xc9
 368 736 l 1
 384 736 l 1
 384 704 l 1xc5
EndSplineSet
EndChar

StartChar: LATIN
Encoding: 207 207 144
Width: 512
GlyphClass: 1
Flags: W
HStem: 0 64<96 224 288 416> 576 64<96 224 288 416> 704 96<128 192 320 384>
VStem: 128 64<704 800> 224 64<64 576> 320 64<704 800>
CounterMasks: 1 1c
LayerCount: 2
Fore
SplineSet
416 0 m 1
 96 0 l 1
 96 64 l 1
 224 64 l 1
 224 576 l 1
 96 576 l 1
 96 640 l 1
 416 640 l 1
 416 576 l 1
 288 576 l 1
 288 64 l 1
 416 64 l 1
 416 0 l 1
384 704 m 1
 320 704 l 1
 320 800 l 1
 384 800 l 1
 384 704 l 1
192 704 m 1
 128 704 l 1
 128 800 l 1
 192 800 l 1
 192 704 l 1
EndSplineSet
EndChar

StartChar: LATIN
Encoding: 208 208 145
Width: 512
GlyphClass: 1
Flags: W
HStem: 0 64<128 352> 288 64<0 64 128 256> 576 64<128 352>
VStem: 64 64<64 288 352 576> 352 80<64 80 560 576> 368 80<80 96 544 560> 384 64<96 544>
CounterMasks: 1 e0
LayerCount: 2
Fore
SplineSet
368 0 m 1xf4
 64 0 l 1
 64 288 l 1
 0 288 l 1
 0 352 l 1
 64 352 l 1
 64 640 l 1
 368 640 l 1
 368 624 l 1xf4
 400 624 l 1
 400 608 l 1
 416 608 l 1
 416 592 l 1
 432 592 l 1
 432 560 l 1xf8
 448 560 l 1
 448 80 l 1xf4
 432 80 l 1
 432 48 l 1xf8
 416 48 l 1
 416 32 l 1
 400 32 l 1
 400 16 l 1
 368 16 l 1
 368 0 l 1xf4
128 64 m 1
 352 64 l 1
 352 80 l 1xf8
 368 80 l 1
 368 96 l 1xf4
 384 96 l 1
 384 544 l 1xf2
 368 544 l 1
 368 560 l 1xf4
 352 560 l 1
 352 576 l 1xf8
 128 576 l 1
 128 352 l 1
 256 352 l 1
 256 288 l 1
 128 288 l 1
 128 64 l 1
EndSplineSet
EndChar

StartChar: LATIN
Encoding: 209 209 146
Width: 512
GlyphClass: 1
Flags: W
HStem: 0 21G<64 128 352 448> 620 20G<64 128 384 448> 672 80<80 96 288 304 352 368> 672 64<64 80 304 352> 720 80<144 160 208 224 416 432> 736 64<160 208 432 448>
VStem: 64 96<544 576 720 736> 64 80<576 608 704 720> 64 64<0 448 608 640 672 704> 144 80<416 448> 160 80<384 416> 176 80<352 384> 192 80<320 352> 208 80<288 320> 224 80<256 288> 240 80<224 256> 256 80<192 224> 272 80<160 192> 288 80<128 160> 352 96<0 32 736 752> 384 64<128 640 768 800>
LayerCount: 2
Fore
SplineSet
448 0 m 1xc00010
 352 0 l 1
 352 32 l 1
 336 32 l 1
 336 64 l 1xc00090
 320 64 l 1
 320 96 l 1xc001
 304 96 l 1
 304 128 l 1xc002
 288 128 l 1
 288 160 l 1xc00020
 272 160 l 1
 272 192 l 1xc00040
 256 192 l 1
 256 224 l 1xc00080
 240 224 l 1
 240 256 l 1xc001
 224 256 l 1
 224 288 l 1xc002
 208 288 l 1
 208 320 l 1xc004
 192 320 l 1
 192 352 l 1xc008
 176 352 l 1
 176 384 l 1xc010
 160 384 l 1
 160 416 l 1xc020
 144 416 l 1
 144 448 l 1
 128 448 l 1
 128 0 l 1
 64 0 l 1
 64 640 l 1
 128 640 l 1
 128 608 l 1xc0c0
 144 608 l 1
 144 576 l 1xc1
 160 576 l 1
 160 544 l 1
 176 544 l 1
 176 512 l 1xc210
 192 512 l 1
 192 480 l 1xc008
 208 480 l 1
 208 448 l 1xc004
 224 448 l 1
 224 416 l 1xc040
 240 416 l 1
 240 384 l 1xc020
 256 384 l 1
 256 352 l 1xc010
 272 352 l 1
 272 320 l 1xc008
 288 320 l 1
 288 288 l 1xc004
 304 288 l 1
 304 256 l 1xc002
 320 256 l 1
 320 224 l 1xc001
 336 224 l 1
 336 192 l 1xc00080
 352 192 l 1
 352 160 l 1xc00040
 368 160 l 1
 368 128 l 1
 384 128 l 1
 384 640 l 1
 448 640 l 1xc00028
 448 0 l 1xc00010
368 672 m 1xe00020
 272 672 l 1
 272 688 l 1xd00040
 240 688 l 1
 240 704 l 1xd001
 224 704 l 1
 224 720 l 1xc802
 208 720 l 1xc804
 208 736 l 1
 160 736 l 1xc604
 160 720 l 1xca04
 144 720 l 1
 144 704 l 1xc9
 128 704 l 1
 128 672 l 1
 64 672 l 1xd080
 64 736 l 1
 80 736 l 1xd2
 80 752 l 1
 96 752 l 1xe2
 96 768 l 1
 112 768 l 1
 112 784 l 1
 144 784 l 1
 144 800 l 1xc840
 240 800 l 1
 240 784 l 1xc441
 272 784 l 1
 272 768 l 1xc40040
 288 768 l 1
 288 752 l 1xe00020
 304 752 l 1xe002
 304 736 l 1
 352 736 l 1xd00210
 352 752 l 1xe00210
 368 752 l 1xe00020
 368 768 l 1
 384 768 l 1
 384 800 l 1
 448 800 l 1xc40028
 448 736 l 1
 432 736 l 1xc40010
 432 720 l 1
 416 720 l 1xc80010
 416 704 l 1
 400 704 l 1
 400 688 l 1
 368 688 l 1
 368 672 l 1xe00020
EndSplineSet
EndChar

StartChar: LATIN
Encoding: 210 210 147
Width: 512
GlyphClass: 1
Flags: W
HStem: 0 80<144 160 352 368> 0 64<160 352> 16 80<128 144 368 384> 544 80<128 144 368 384> 560 80<144 160 352 368> 576 64<160 352> 672 48<304 320> 672 32<320 336> 752 48<176 192> 768 32<160 176>
VStem: 64 80<80 96 544 560> 64 64<96 544> 80 80<64 80 560 576> 352 80<64 80 560 576> 368 80<80 96 544 560> 384 64<96 544>
LayerCount: 2
Fore
SplineSet
368 0 m 1x8002
 144 0 l 1x8022
 144 16 l 1
 112 16 l 1x2022
 112 32 l 1
 96 32 l 1
 96 48 l 1
 80 48 l 1
 80 80 l 1x8008
 64 80 l 1
 64 560 l 1x8820
 80 560 l 1
 80 592 l 1x8808
 96 592 l 1
 96 608 l 1
 112 608 l 1
 112 624 l 1
 144 624 l 1x1020
 144 640 l 1
 368 640 l 1x0822
 368 624 l 1
 400 624 l 1x1022
 400 608 l 1
 416 608 l 1
 416 592 l 1
 432 592 l 1
 432 560 l 1x0804
 448 560 l 1
 448 80 l 1x8802
 432 80 l 1
 432 48 l 1x8804
 416 48 l 1
 416 32 l 1
 400 32 l 1
 400 16 l 1
 368 16 l 1x2002
 368 0 l 1x8002
160 64 m 1x4008
 352 64 l 1x400c
 352 80 l 1x800c
 368 80 l 1x8002
 368 96 l 1x2002
 384 96 l 1
 384 544 l 1x3001
 368 544 l 1x3002
 368 560 l 1x0802
 352 560 l 1x0804
 352 576 l 1
 160 576 l 1x040c
 160 560 l 1x080c
 144 560 l 1x0820
 144 544 l 1x1020
 128 544 l 1
 128 96 l 1x3010
 144 96 l 1x3020
 144 80 l 1x8020
 160 80 l 1x8008
 160 64 l 1x4008
336 672 m 1x0108
 256 672 l 1
 256 688 l 1
 240 688 l 1
 240 704 l 1
 224 704 l 1x0108
 224 720 l 1
 208 720 l 1
 208 736 l 1
 192 736 l 1
 192 752 l 1
 176 752 l 1x0288
 176 768 l 1
 160 768 l 1
 160 800 l 1
 240 800 l 1
 240 784 l 1
 256 784 l 1
 256 768 l 1
 272 768 l 1x0048
 272 752 l 1
 288 752 l 1
 288 736 l 1
 304 736 l 1
 304 720 l 1
 320 720 l 1x0288
 320 704 l 1
 336 704 l 1
 336 672 l 1x0108
EndSplineSet
EndChar

StartChar: LATIN
Encoding: 211 211 148
Width: 512
GlyphClass: 1
Flags: W
HStem: 0 80<144 160 352 368> 0 64<160 352> 16 80<128 144 368 384> 544 80<128 144 368 384> 560 80<144 160 352 368> 576 64<160 352> 672 48<192 208> 672 32<176 192> 752 48<320 336> 768 32<336 352>
VStem: 64 80<80 96 544 560> 64 64<96 544> 80 80<64 80 560 576> 352 80<64 80 560 576> 368 80<80 96 544 560> 384 64<96 544>
LayerCount: 2
Fore
SplineSet
368 0 m 1x8002
 144 0 l 1x8022
 144 16 l 1
 112 16 l 1x2022
 112 32 l 1
 96 32 l 1
 96 48 l 1
 80 48 l 1
 80 80 l 1x8008
 64 80 l 1
 64 560 l 1x8820
 80 560 l 1
 80 592 l 1x8808
 96 592 l 1
 96 608 l 1
 112 608 l 1
 112 624 l 1
 144 624 l 1x1020
 144 640 l 1
 368 640 l 1x0822
 368 624 l 1
 400 624 l 1x1022
 400 608 l 1
 416 608 l 1
 416 592 l 1
 432 592 l 1
 432 560 l 1x0804
 448 560 l 1
 448 80 l 1x8802
 432 80 l 1
 432 48 l 1x8804
 416 48 l 1
 416 32 l 1
 400 32 l 1
 400 16 l 1
 368 16 l 1x2002
 368 0 l 1x8002
160 64 m 1x4008
 352 64 l 1x400c
 352 80 l 1x800c
 368 80 l 1x8002
 368 96 l 1x2002
 384 96 l 1
 384 544 l 1x3001
 368 544 l 1x3002
 368 560 l 1x0802
 352 560 l 1x0804
 352 576 l 1
 160 576 l 1x040c
 160 560 l 1x080c
 144 560 l 1x0820
 144 544 l 1x1020
 128 544 l 1
 128 96 l 1x3010
 144 96 l 1x3020
 144 80 l 1x8020
 160 80 l 1x8008
 160 64 l 1x4008
256 672 m 1x0104
 176 672 l 1
 176 704 l 1
 192 704 l 1x0104
 192 720 l 1
 208 720 l 1
 208 736 l 1
 224 736 l 1
 224 752 l 1
 240 752 l 1x0284
 240 768 l 1
 256 768 l 1
 256 784 l 1
 272 784 l 1
 272 800 l 1
 352 800 l 1
 352 768 l 1
 336 768 l 1x0044
 336 752 l 1
 320 752 l 1
 320 736 l 1
 304 736 l 1
 304 720 l 1
 288 720 l 1x0284
 288 704 l 1
 272 704 l 1
 272 688 l 1
 256 688 l 1
 256 672 l 1x0104
EndSplineSet
EndChar

StartChar: LATIN
Encoding: 212 212 149
Width: 512
GlyphClass: 1
Flags: W
HStem: 0 80<144 160 352 368> 0 64<160 352> 16 80<128 144 368 384> 544 80<128 144 368 384> 560 80<144 160 352 368> 576 64<160 352> 704 80<176 192 320 336> 704 64<160 176 336 352> 704 48<144 160 352 368> 704 32<128 144 368 384> 752 80<240 272>
VStem: 64 80<80 96 544 560> 64 64<96 544> 80 80<64 80 560 576> 352 80<64 80 560 576> 368 80<80 96 544 560> 384 64<96 544>
LayerCount: 2
Fore
SplineSet
368 0 m 1x8001
 144 0 l 1x8011
 144 16 l 1
 112 16 l 1x2011
 112 32 l 1
 96 32 l 1
 96 48 l 1
 80 48 l 1
 80 80 l 1x8004
 64 80 l 1
 64 560 l 1x8810
 80 560 l 1
 80 592 l 1x8804
 96 592 l 1
 96 608 l 1
 112 608 l 1
 112 624 l 1
 144 624 l 1x1010
 144 640 l 1
 368 640 l 1x0811
 368 624 l 1
 400 624 l 1x1011
 400 608 l 1
 416 608 l 1
 416 592 l 1
 432 592 l 1
 432 560 l 1x0802
 448 560 l 1
 448 80 l 1x8801
 432 80 l 1
 432 48 l 1x8802
 416 48 l 1
 416 32 l 1
 400 32 l 1
 400 16 l 1
 368 16 l 1x2001
 368 0 l 1x8001
160 64 m 1x4004
 352 64 l 1x4006
 352 80 l 1x8006
 368 80 l 1x8001
 368 96 l 1x2001
 384 96 l 1
 384 544 l 1x300080
 368 544 l 1x3001
 368 560 l 1x0801
 352 560 l 1x0802
 352 576 l 1
 160 576 l 1x0406
 160 560 l 1x0806
 144 560 l 1x0810
 144 544 l 1x1010
 128 544 l 1
 128 96 l 1x3008
 144 96 l 1x3010
 144 80 l 1x8010
 160 80 l 1x8004
 160 64 l 1x4004
384 704 m 1x004080
 304 704 l 1
 304 720 l 1
 288 720 l 1
 288 736 l 1
 272 736 l 1
 272 752 l 1
 240 752 l 1
 240 736 l 1
 224 736 l 1
 224 720 l 1
 208 720 l 1
 208 704 l 1
 128 704 l 1
 128 736 l 1x006880
 144 736 l 1x0070
 144 752 l 1x0090
 160 752 l 1x0084
 160 768 l 1
 176 768 l 1x0104
 176 784 l 1
 192 784 l 1x0204
 192 800 l 1
 208 800 l 1
 208 816 l 1
 224 816 l 1
 224 832 l 1
 288 832 l 1x0024
 288 816 l 1
 304 816 l 1
 304 800 l 1
 320 800 l 1
 320 784 l 1
 336 784 l 1x0204
 336 768 l 1
 352 768 l 1x0106
 352 752 l 1x0086
 368 752 l 1x0081
 368 736 l 1x0041
 384 736 l 1
 384 704 l 1x004080
EndSplineSet
EndChar

StartChar: LATIN
Encoding: 213 213 150
Width: 512
GlyphClass: 1
Flags: W
HStem: 0 80<144 160 352 368> 0 64<160 352> 16 80<128 144 368 384> 544 80<128 144 368 384> 560 80<144 160 352 368> 576 64<160 352> 672 80<80 96 288 304 352 368> 672 64<64 80 304 352> 720 80<144 160 208 224 416 432> 736 64<160 208 432 448>
VStem: 64 80<80 96 544 560 704 720> 64 64<96 544 672 704> 80 80<64 80 560 576> 352 80<64 80 560 576> 368 80<80 96 544 560 752 768> 384 64<96 544 768 800>
LayerCount: 2
Fore
SplineSet
368 0 m 1x8002
 144 0 l 1x8022
 144 16 l 1
 112 16 l 1x2022
 112 32 l 1
 96 32 l 1
 96 48 l 1
 80 48 l 1
 80 80 l 1x8008
 64 80 l 1
 64 560 l 1x8820
 80 560 l 1
 80 592 l 1x8808
 96 592 l 1
 96 608 l 1
 112 608 l 1
 112 624 l 1
 144 624 l 1x1020
 144 640 l 1
 368 640 l 1x0822
 368 624 l 1
 400 624 l 1x1022
 400 608 l 1
 416 608 l 1
 416 592 l 1
 432 592 l 1
 432 560 l 1x0804
 448 560 l 1
 448 80 l 1x8802
 432 80 l 1
 432 48 l 1x8804
 416 48 l 1
 416 32 l 1
 400 32 l 1
 400 16 l 1
 368 16 l 1x2002
 368 0 l 1x8002
160 64 m 1x4008
 352 64 l 1x400c
 352 80 l 1x800c
 368 80 l 1x8002
 368 96 l 1x2002
 384 96 l 1
 384 544 l 1x3001
 368 544 l 1x3002
 368 560 l 1x0802
 352 560 l 1x0804
 352 576 l 1
 160 576 l 1x040c
 160 560 l 1x080c
 144 560 l 1x0820
 144 544 l 1x1020
 128 544 l 1
 128 96 l 1x3010
 144 96 l 1x3020
 144 80 l 1x8020
 160 80 l 1x8008
 160 64 l 1x4008
368 672 m 1x0202
 272 672 l 1x0102
 272 688 l 1
 240 688 l 1
 240 704 l 1
 224 704 l 1
 224 720 l 1
 208 720 l 1x0082
 208 736 l 1
 160 736 l 1x004a
 160 720 l 1x008a
 144 720 l 1
 144 704 l 1x00a0
 128 704 l 1
 128 672 l 1
 64 672 l 1
 64 736 l 1x0110
 80 736 l 1x0108
 80 752 l 1
 96 752 l 1x0208
 96 768 l 1
 112 768 l 1
 112 784 l 1
 144 784 l 1
 144 800 l 1x00a0
 240 800 l 1x0060
 240 784 l 1
 272 784 l 1
 272 768 l 1
 288 768 l 1
 288 752 l 1
 304 752 l 1x0220
 304 736 l 1
 352 736 l 1x0124
 352 752 l 1x0224
 368 752 l 1
 368 768 l 1x0202
 384 768 l 1
 384 800 l 1
 448 800 l 1
 448 736 l 1x0041
 432 736 l 1x0044
 432 720 l 1
 416 720 l 1x0084
 416 704 l 1
 400 704 l 1
 400 688 l 1
 368 688 l 1
 368 672 l 1x0202
EndSplineSet
EndChar

StartChar: LATIN
Encoding: 214 214 151
Width: 512
GlyphClass: 1
Flags: W
HStem: 0 80<144 160 352 368> 0 64<160 352> 16 80<128 144 368 384> 544 80<128 144 368 384> 560 80<144 160 352 368> 576 64<160 352> 704 96<128 192 320 384>
VStem: 64 80<80 96 544 560> 64 64<96 544> 80 80<64 80 560 576> 128 64<704 800> 320 64<704 800> 352 80<64 80 560 576> 368 80<80 96 544 560> 384 64<96 544>
LayerCount: 2
Fore
SplineSet
368 0 m 1x8204
 144 0 l 1x8304
 144 16 l 1
 112 16 l 1x2304
 112 32 l 1
 96 32 l 1
 96 48 l 1
 80 48 l 1
 80 80 l 1x8240
 64 80 l 1
 64 560 l 1x8b
 80 560 l 1
 80 592 l 1x8a40
 96 592 l 1
 96 608 l 1
 112 608 l 1
 112 624 l 1
 144 624 l 1x13
 144 640 l 1
 368 640 l 1x0b04
 368 624 l 1
 400 624 l 1x1304
 400 608 l 1
 416 608 l 1
 416 592 l 1
 432 592 l 1
 432 560 l 1x0a08
 448 560 l 1
 448 80 l 1x8a04
 432 80 l 1
 432 48 l 1x8a08
 416 48 l 1
 416 32 l 1
 400 32 l 1
 400 16 l 1
 368 16 l 1x2204
 368 0 l 1x8204
160 64 m 1x4240
 352 64 l 1x4248
 352 80 l 1x8248
 368 80 l 1x8204
 368 96 l 1x2204
 384 96 l 1
 384 544 l 1x3202
 368 544 l 1x3204
 368 560 l 1x0a04
 352 560 l 1x0a08
 352 576 l 1
 160 576 l 1x0648
 160 560 l 1x0a48
 144 560 l 1x0b
 144 544 l 1x13
 128 544 l 1
 128 96 l 1x3280
 144 96 l 1x33
 144 80 l 1x83
 160 80 l 1x8240
 160 64 l 1x4240
384 704 m 1x0210
 320 704 l 1
 320 800 l 1
 384 800 l 1
 384 704 l 1x0210
192 704 m 1x0220
 128 704 l 1
 128 800 l 1
 192 800 l 1
 192 704 l 1x0220
EndSplineSet
EndChar

StartChar: MULTIPLICATION
Encoding: 215 215 152
Width: 512
GlyphClass: 1
Flags: W
LayerCount: 2
Fore
SplineSet
192 304 m 1
 192 336 l 1
 64 448 l 1
 64 512 l 1
 112 512 l 1
 240 368 l 1
 272 368 l 1
 400 512 l 1
 448 512 l 1
 448 448 l 1
 320 336 l 1
 320 304 l 1
 448 192 l 1
 448 128 l 1
 400 128 l 1
 272 272 l 1
 240 272 l 1
 112 128 l 1
 64 128 l 1
 64 192 l 1
 192 304 l 1
EndSplineSet
EndChar

StartChar: LATIN
Encoding: 216 216 153
Width: 512
GlyphClass: 1
Flags: W
HStem: -64 32<32 48> 0 64<160 352> 576 64<160 320>
VStem: 32 64<-64 -32> 48 64<-32 0> 64 64<192 544> 144 80<192 224> 160 80<224 256> 176 80<256 288> 192 80<288 320> 208 80<320 352> 224 80<352 384> 240 80<384 416> 256 80<416 448> 272 80<448 480> 288 80<480 512> 368 80<80 96 640 672> 384 64<96 512 672 704>
LayerCount: 2
Fore
SplineSet
96 -64 m 1xf0
 32 -64 l 1
 32 -32 l 1xf0
 48 -32 l 1
 48 0 l 1xe8
 64 0 l 1
 64 560 l 1xe4
 80 560 l 1
 80 592 l 1
 96 592 l 1
 96 608 l 1xf0
 112 608 l 1
 112 624 l 1
 144 624 l 1
 144 640 l 1
 368 640 l 1
 368 672 l 1xea0080
 384 672 l 1
 384 704 l 1
 448 704 l 1xe00040
 448 640 l 1xe00080
 432 640 l 1
 432 608 l 1
 416 608 l 1
 416 592 l 1
 432 592 l 1
 432 576 l 1
 448 576 l 1xe00040
 448 80 l 1
 432 80 l 1
 432 48 l 1
 416 48 l 1
 416 32 l 1
 400 32 l 1
 400 16 l 1
 368 16 l 1
 368 0 l 1
 112 0 l 1
 112 -32 l 1xe80080
 96 -32 l 1
 96 -64 l 1xf0
160 64 m 1xe1
 352 64 l 1
 352 80 l 1
 368 80 l 1
 368 96 l 1xe10280
 384 96 l 1
 384 512 l 1
 368 512 l 1
 368 480 l 1xe00140
 352 480 l 1
 352 448 l 1xe002
 336 448 l 1
 336 416 l 1xe004
 320 416 l 1
 320 384 l 1xe008
 304 384 l 1
 304 352 l 1xe010
 288 352 l 1
 288 320 l 1xe020
 272 320 l 1
 272 288 l 1xe040
 256 288 l 1
 256 256 l 1xe080
 240 256 l 1
 240 224 l 1xe1
 224 224 l 1
 224 192 l 1xe2
 208 192 l 1
 208 160 l 1xe020
 192 160 l 1
 192 128 l 1xe040
 176 128 l 1
 176 96 l 1xe080
 160 96 l 1
 160 64 l 1xe1
144 192 m 1xe6
 144 224 l 1xe6
 160 224 l 1
 160 256 l 1xe1
 176 256 l 1
 176 288 l 1xe080
 192 288 l 1
 192 320 l 1xe040
 208 320 l 1
 208 352 l 1xe020
 224 352 l 1
 224 384 l 1xe010
 240 384 l 1
 240 416 l 1xe008
 256 416 l 1
 256 448 l 1xe004
 272 448 l 1
 272 480 l 1xe002
 288 480 l 1
 288 512 l 1xe001
 304 512 l 1
 304 544 l 1xe010
 320 544 l 1
 320 576 l 1xe008
 160 576 l 1
 160 560 l 1xe1
 144 560 l 1
 144 544 l 1
 128 544 l 1
 128 192 l 1
 144 192 l 1xe6
EndSplineSet
EndChar

StartChar: LATIN
Encoding: 217 217 154
Width: 512
GlyphClass: 1
Flags: W
HStem: 0 64<160 384> 620 20G<64 128 384 448> 672 48<304 320> 672 32<320 336> 752 48<176 192> 768 32<160 176>
VStem: 64 64<96 640> 384 64<64 640>
LayerCount: 2
Fore
SplineSet
448 0 m 1xc3
 144 0 l 1
 144 16 l 1
 112 16 l 1
 112 32 l 1
 96 32 l 1
 96 48 l 1
 80 48 l 1
 80 80 l 1
 64 80 l 1
 64 640 l 1
 128 640 l 1
 128 96 l 1
 144 96 l 1
 144 80 l 1
 160 80 l 1
 160 64 l 1
 384 64 l 1
 384 640 l 1
 448 640 l 1
 448 0 l 1xc3
336 672 m 1xd3
 256 672 l 1
 256 688 l 1
 240 688 l 1
 240 704 l 1
 224 704 l 1xd3
 224 720 l 1
 208 720 l 1
 208 736 l 1
 192 736 l 1
 192 752 l 1
 176 752 l 1xeb
 176 768 l 1
 160 768 l 1
 160 800 l 1
 240 800 l 1
 240 784 l 1
 256 784 l 1
 256 768 l 1
 272 768 l 1xc7
 272 752 l 1
 288 752 l 1
 288 736 l 1
 304 736 l 1
 304 720 l 1
 320 720 l 1xeb
 320 704 l 1
 336 704 l 1
 336 672 l 1xd3
EndSplineSet
EndChar

StartChar: LATIN
Encoding: 218 218 155
Width: 512
GlyphClass: 1
Flags: W
HStem: 0 64<160 384> 620 20G<64 128 384 448> 672 48<192 208> 672 32<176 192> 752 48<320 336> 768 32<336 352>
VStem: 64 64<96 640> 384 64<64 640>
LayerCount: 2
Fore
SplineSet
448 0 m 1xc3
 144 0 l 1
 144 16 l 1
 112 16 l 1
 112 32 l 1
 96 32 l 1
 96 48 l 1
 80 48 l 1
 80 80 l 1
 64 80 l 1
 64 640 l 1
 128 640 l 1
 128 96 l 1
 144 96 l 1
 144 80 l 1
 160 80 l 1
 160 64 l 1
 384 64 l 1
 384 640 l 1
 448 640 l 1
 448 0 l 1xc3
256 672 m 1xd3
 176 672 l 1
 176 704 l 1
 192 704 l 1xd3
 192 720 l 1
 208 720 l 1
 208 736 l 1
 224 736 l 1
 224 752 l 1
 240 752 l 1xeb
 240 768 l 1
 256 768 l 1
 256 784 l 1
 272 784 l 1
 272 800 l 1
 352 800 l 1
 352 768 l 1
 336 768 l 1xc7
 336 752 l 1
 320 752 l 1
 320 736 l 1
 304 736 l 1
 304 720 l 1
 288 720 l 1xeb
 288 704 l 1
 272 704 l 1
 272 688 l 1
 256 688 l 1
 256 672 l 1xd3
EndSplineSet
EndChar

StartChar: LATIN
Encoding: 219 219 156
Width: 512
GlyphClass: 1
Flags: W
HStem: 0 64<160 384> 620 20G<64 128 384 448> 704 80<176 192 320 336> 704 64<160 176 336 352> 704 48<144 160 352 368> 704 32<128 144 368 384> 752 80<240 272>
VStem: 64 64<96 640> 384 64<64 640>
LayerCount: 2
Fore
SplineSet
448 0 m 1xc180
 144 0 l 1
 144 16 l 1
 112 16 l 1
 112 32 l 1
 96 32 l 1
 96 48 l 1
 80 48 l 1
 80 80 l 1
 64 80 l 1
 64 640 l 1
 128 640 l 1
 128 96 l 1
 144 96 l 1
 144 80 l 1
 160 80 l 1
 160 64 l 1
 384 64 l 1
 384 640 l 1
 448 640 l 1
 448 0 l 1xc180
384 704 m 1xc580
 304 704 l 1
 304 720 l 1
 288 720 l 1
 288 736 l 1
 272 736 l 1
 272 752 l 1
 240 752 l 1
 240 736 l 1
 224 736 l 1
 224 720 l 1
 208 720 l 1
 208 704 l 1
 128 704 l 1
 128 736 l 1
 144 736 l 1xc780
 144 752 l 1
 160 752 l 1xc980
 160 768 l 1
 176 768 l 1xd180
 176 784 l 1
 192 784 l 1xe180
 192 800 l 1
 208 800 l 1
 208 816 l 1
 224 816 l 1
 224 832 l 1
 288 832 l 1xc380
 288 816 l 1
 304 816 l 1
 304 800 l 1
 320 800 l 1
 320 784 l 1
 336 784 l 1xe180
 336 768 l 1
 352 768 l 1xd180
 352 752 l 1
 368 752 l 1xc980
 368 736 l 1
 384 736 l 1
 384 704 l 1xc580
EndSplineSet
EndChar

StartChar: LATIN
Encoding: 220 220 157
Width: 512
GlyphClass: 1
Flags: W
HStem: 0 64<160 384> 620 20G<64 128 384 448> 704 96<128 192 320 384>
VStem: 64 64<96 640> 128 64<704 800> 320 64<704 800> 384 64<64 640>
LayerCount: 2
Fore
SplineSet
448 0 m 1xf2
 144 0 l 1
 144 16 l 1
 112 16 l 1
 112 32 l 1
 96 32 l 1
 96 48 l 1
 80 48 l 1
 80 80 l 1
 64 80 l 1
 64 640 l 1
 128 640 l 1
 128 96 l 1
 144 96 l 1
 144 80 l 1
 160 80 l 1
 160 64 l 1
 384 64 l 1
 384 640 l 1
 448 640 l 1
 448 0 l 1xf2
384 704 m 1xe4
 320 704 l 1
 320 800 l 1
 384 800 l 1
 384 704 l 1xe4
192 704 m 1xe8
 128 704 l 1
 128 800 l 1
 192 800 l 1
 192 704 l 1xe8
EndSplineSet
EndChar

StartChar: LATIN
Encoding: 221 221 158
Width: 512
GlyphClass: 1
Flags: W
HStem: 0 64<64 352> 288 64<160 384> 620 20G<64 128 384 448> 672 48<192 208> 672 32<176 192> 752 48<320 336> 768 32<336 352>
VStem: 64 64<384 640> 384 64<96 288 352 640>
LayerCount: 2
Fore
SplineSet
368 0 m 1xe180
 64 0 l 1
 64 64 l 1
 352 64 l 1
 352 80 l 1
 368 80 l 1
 368 96 l 1
 384 96 l 1
 384 288 l 1
 144 288 l 1
 144 304 l 1
 112 304 l 1
 112 320 l 1
 96 320 l 1
 96 336 l 1
 80 336 l 1
 80 368 l 1
 64 368 l 1
 64 640 l 1
 128 640 l 1
 128 384 l 1
 144 384 l 1
 144 368 l 1
 160 368 l 1
 160 352 l 1
 384 352 l 1
 384 640 l 1
 448 640 l 1
 448 80 l 1
 432 80 l 1
 432 48 l 1
 416 48 l 1
 416 32 l 1
 400 32 l 1
 400 16 l 1
 368 16 l 1
 368 0 l 1xe180
256 672 m 1xe980
 176 672 l 1
 176 704 l 1
 192 704 l 1xe980
 192 720 l 1
 208 720 l 1
 208 736 l 1
 224 736 l 1
 224 752 l 1
 240 752 l 1xf580
 240 768 l 1
 256 768 l 1
 256 784 l 1
 272 784 l 1
 272 800 l 1
 352 800 l 1
 352 768 l 1
 336 768 l 1xe380
 336 752 l 1
 320 752 l 1
 320 736 l 1
 304 736 l 1
 304 720 l 1
 288 720 l 1xf580
 288 704 l 1
 272 704 l 1
 272 688 l 1
 256 688 l 1
 256 672 l 1xe980
EndSplineSet
EndChar

StartChar: LATIN
Encoding: 222 222 159
Width: 512
GlyphClass: 1
Flags: W
HStem: 0 64<128 352> 384 64<128 352>
VStem: 64 64<-128 0 64 384 448 576> 352 80<64 80 368 384> 368 80<80 96 352 368> 384 64<96 352>
LayerCount: 2
Fore
SplineSet
128 -128 m 1xe8
 64 -128 l 1
 64 576 l 1
 128 576 l 1
 128 448 l 1
 368 448 l 1
 368 432 l 1xe8
 400 432 l 1
 400 416 l 1
 416 416 l 1
 416 400 l 1
 432 400 l 1
 432 368 l 1xf0
 448 368 l 1
 448 80 l 1xe8
 432 80 l 1
 432 48 l 1xf0
 416 48 l 1
 416 32 l 1
 400 32 l 1
 400 16 l 1
 368 16 l 1
 368 0 l 1
 128 0 l 1
 128 -128 l 1xe8
128 64 m 1
 352 64 l 1
 352 80 l 1xf0
 368 80 l 1
 368 96 l 1xe8
 384 96 l 1
 384 352 l 1xe4
 368 352 l 1
 368 368 l 1xe8
 352 368 l 1
 352 384 l 1xf0
 128 384 l 1
 128 64 l 1
EndSplineSet
EndChar

StartChar: LATIN
Encoding: 223 223 160
Width: 512
GlyphClass: 1
Flags: W
HStem: 0 80<240 256 352 368> 0 64<256 352> 288 80<256 288> 288 64<192 256> 544 80<128 144 304 320> 560 80<144 160 288 304> 576 64<160 288>
VStem: 64 64<0 544> 160 64<96 128> 288 80<368 384 560 576> 304 80<384 416 544 560> 320 64<416 544> 368 80<80 96 224 256> 384 64<96 224>
LayerCount: 2
Fore
SplineSet
384 0 m 1x5584
 224 0 l 1
 224 16 l 1
 192 16 l 1
 192 32 l 1
 176 32 l 1
 176 64 l 1
 160 64 l 1x5584
 160 128 l 1
 224 128 l 1
 224 96 l 1
 240 96 l 1
 240 80 l 1
 256 80 l 1x8184
 256 64 l 1
 352 64 l 1x4184
 352 80 l 1
 368 80 l 1
 368 96 l 1x8188
 384 96 l 1
 384 224 l 1x8184
 368 224 l 1
 368 256 l 1x8188
 352 256 l 1
 352 272 l 1
 320 272 l 1
 320 288 l 1
 192 288 l 1
 192 352 l 1
 256 352 l 1x9190
 256 368 l 1
 288 368 l 1
 288 384 l 1x21c0
 304 384 l 1
 304 416 l 1x21a0
 320 416 l 1
 320 544 l 1x2990
 304 544 l 1x29a0
 304 560 l 1x05a0
 288 560 l 1x05c0
 288 576 l 1
 160 576 l 1x03c0
 160 560 l 1
 144 560 l 1x05c0
 144 544 l 1
 128 544 l 1x09c0
 128 0 l 1
 64 0 l 1
 64 560 l 1
 80 560 l 1x45c0
 80 592 l 1
 96 592 l 1
 96 608 l 1
 112 608 l 1
 112 624 l 1
 144 624 l 1x09c0
 144 640 l 1
 304 640 l 1x05a0
 304 624 l 1x09a0
 336 624 l 1
 336 608 l 1
 352 608 l 1
 352 592 l 1
 368 592 l 1x0988
 368 560 l 1x05c0
 384 560 l 1
 384 384 l 1x05a0
 368 384 l 1x05c0
 368 352 l 1x1588
 352 352 l 1
 352 336 l 1
 384 336 l 1
 384 320 l 1x1584
 400 320 l 1
 400 304 l 1
 416 304 l 1
 416 288 l 1
 432 288 l 1
 432 256 l 1
 448 256 l 1x1588
 448 64 l 1
 432 64 l 1
 432 32 l 1
 416 32 l 1
 416 16 l 1
 384 16 l 1
 384 0 l 1x5584
EndSplineSet
EndChar

StartChar: LATIN
Encoding: 224 224 161
Width: 512
GlyphClass: 1
Flags: W
HStem: 0 64<160 384> 224 64<160 384> 384 64<96 352> 512 48<336 352>
VStem: 64 80<80 96 192 208> 64 64<96 192> 80 80<64 80 208 224> 160 48<688 704> 384 64<64 224 288 352>
LayerCount: 2
Fore
SplineSet
448 0 m 1xf880
 144 0 l 1
 144 16 l 1xf880
 112 16 l 1
 112 32 l 1
 96 32 l 1
 96 48 l 1
 80 48 l 1
 80 80 l 1xf280
 64 80 l 1
 64 208 l 1xf880
 80 208 l 1
 80 240 l 1xf280
 96 240 l 1
 96 256 l 1
 112 256 l 1
 112 272 l 1
 144 272 l 1
 144 288 l 1
 384 288 l 1
 384 352 l 1
 368 352 l 1
 368 368 l 1
 352 368 l 1
 352 384 l 1
 96 384 l 1
 96 448 l 1
 368 448 l 1
 368 432 l 1
 400 432 l 1
 400 416 l 1
 416 416 l 1
 416 400 l 1
 432 400 l 1
 432 368 l 1
 448 368 l 1
 448 0 l 1xf880
160 64 m 1xf280
 384 64 l 1
 384 224 l 1
 160 224 l 1
 160 208 l 1xf280
 144 208 l 1
 144 192 l 1xf880
 128 192 l 1
 128 96 l 1xf480
 144 96 l 1
 144 80 l 1xf880
 160 80 l 1
 160 64 l 1xf280
352 512 m 1
 288 512 l 1
 288 528 l 1
 272 528 l 1
 272 544 l 1
 256 544 l 1
 256 560 l 1
 240 560 l 1
 240 576 l 1
 224 576 l 1
 224 592 l 1
 208 592 l 1
 208 608 l 1
 192 608 l 1
 192 624 l 1
 176 624 l 1
 176 640 l 1
 160 640 l 1
 160 704 l 1
 208 704 l 1
 208 688 l 1xf180
 224 688 l 1
 224 672 l 1
 240 672 l 1
 240 656 l 1
 256 656 l 1
 256 640 l 1
 272 640 l 1
 272 624 l 1
 288 624 l 1
 288 608 l 1
 304 608 l 1
 304 592 l 1
 320 592 l 1
 320 576 l 1
 336 576 l 1
 336 560 l 1
 352 560 l 1
 352 512 l 1
EndSplineSet
EndChar

StartChar: LATIN
Encoding: 225 225 162
Width: 512
GlyphClass: 1
Flags: W
HStem: 0 64<160 384> 224 64<160 384> 384 64<96 352> 512 48<192 208>
VStem: 64 80<80 96 192 208> 64 64<96 192> 80 80<64 80 208 224> 336 48<688 704> 384 64<64 224 288 352>
LayerCount: 2
Fore
SplineSet
448 0 m 1xf880
 144 0 l 1
 144 16 l 1xf880
 112 16 l 1
 112 32 l 1
 96 32 l 1
 96 48 l 1
 80 48 l 1
 80 80 l 1xf2
 64 80 l 1
 64 208 l 1xf8
 80 208 l 1
 80 240 l 1xf2
 96 240 l 1
 96 256 l 1
 112 256 l 1
 112 272 l 1
 144 272 l 1
 144 288 l 1
 384 288 l 1
 384 352 l 1
 368 352 l 1
 368 368 l 1
 352 368 l 1
 352 384 l 1
 96 384 l 1
 96 448 l 1
 368 448 l 1
 368 432 l 1
 400 432 l 1
 400 416 l 1
 416 416 l 1
 416 400 l 1
 432 400 l 1
 432 368 l 1
 448 368 l 1
 448 0 l 1xf880
160 64 m 1xf2
 384 64 l 1
 384 224 l 1
 160 224 l 1
 160 208 l 1xf280
 144 208 l 1
 144 192 l 1xf8
 128 192 l 1
 128 96 l 1xf4
 144 96 l 1
 144 80 l 1xf8
 160 80 l 1
 160 64 l 1xf2
256 512 m 1
 192 512 l 1
 192 560 l 1
 208 560 l 1
 208 576 l 1
 224 576 l 1
 224 592 l 1
 240 592 l 1
 240 608 l 1
 256 608 l 1
 256 624 l 1
 272 624 l 1
 272 640 l 1
 288 640 l 1
 288 656 l 1
 304 656 l 1
 304 672 l 1
 320 672 l 1
 320 688 l 1
 336 688 l 1
 336 704 l 1
 384 704 l 1xf1
 384 640 l 1xf080
 368 640 l 1
 368 624 l 1
 352 624 l 1
 352 608 l 1
 336 608 l 1
 336 592 l 1xf1
 320 592 l 1
 320 576 l 1
 304 576 l 1
 304 560 l 1
 288 560 l 1
 288 544 l 1
 272 544 l 1
 272 528 l 1
 256 528 l 1
 256 512 l 1
EndSplineSet
EndChar

StartChar: LATIN
Encoding: 226 226 163
Width: 512
GlyphClass: 1
Flags: W
HStem: 0 64<160 384> 224 64<160 384> 384 64<96 352> 512 80<112 128 384 400> 512 64<96 112 400 416> 624 80<240 272>
VStem: 64 64<96 192> 80 80<64 80 208 224> 96 48<512 528> 368 48<512 528> 384 64<64 224 288 352>
LayerCount: 2
Fore
SplineSet
448 0 m 1xe420
 144 0 l 1
 144 16 l 1
 112 16 l 1
 112 32 l 1
 96 32 l 1
 96 48 l 1xe4a0
 80 48 l 1
 80 80 l 1xe5
 64 80 l 1
 64 208 l 1xe6
 80 208 l 1
 80 240 l 1xe5
 96 240 l 1
 96 256 l 1
 112 256 l 1
 112 272 l 1
 144 272 l 1
 144 288 l 1
 384 288 l 1
 384 352 l 1xe4a0
 368 352 l 1
 368 368 l 1
 352 368 l 1
 352 384 l 1
 96 384 l 1
 96 448 l 1
 368 448 l 1
 368 432 l 1
 400 432 l 1
 400 416 l 1
 416 416 l 1
 416 400 l 1xe4c0
 432 400 l 1
 432 368 l 1
 448 368 l 1
 448 0 l 1xe420
160 64 m 1xe5
 384 64 l 1
 384 224 l 1
 160 224 l 1
 160 208 l 1xe520
 144 208 l 1
 144 192 l 1xe480
 128 192 l 1
 128 96 l 1xe6
 144 96 l 1
 144 80 l 1xe480
 160 80 l 1
 160 64 l 1xe5
416 512 m 1xec40
 368 512 l 1
 368 528 l 1
 352 528 l 1
 352 544 l 1
 336 544 l 1
 336 560 l 1
 320 560 l 1
 320 576 l 1
 304 576 l 1xec40
 304 592 l 1
 288 592 l 1
 288 608 l 1
 272 608 l 1
 272 624 l 1
 240 624 l 1
 240 608 l 1
 224 608 l 1
 224 592 l 1
 208 592 l 1xf440
 208 576 l 1
 192 576 l 1
 192 560 l 1
 176 560 l 1
 176 544 l 1
 160 544 l 1
 160 528 l 1xed40
 144 528 l 1
 144 512 l 1
 96 512 l 1
 96 576 l 1
 112 576 l 1xec80
 112 592 l 1
 128 592 l 1
 128 608 l 1xf6
 144 608 l 1
 144 624 l 1xf480
 160 624 l 1
 160 640 l 1
 176 640 l 1
 176 656 l 1
 192 656 l 1
 192 672 l 1
 208 672 l 1
 208 688 l 1
 224 688 l 1
 224 704 l 1
 288 704 l 1
 288 688 l 1
 304 688 l 1
 304 672 l 1
 320 672 l 1
 320 656 l 1
 336 656 l 1
 336 640 l 1
 352 640 l 1
 352 624 l 1
 368 624 l 1
 368 608 l 1xf540
 384 608 l 1
 384 592 l 1
 400 592 l 1xf420
 400 576 l 1
 416 576 l 1
 416 512 l 1xec40
EndSplineSet
EndChar

StartChar: LATIN
Encoding: 227 227 164
Width: 512
GlyphClass: 1
Flags: W
HStem: 0 64<160 384> 224 64<160 384> 384 64<96 352> 544 80<288 304 352 368> 544 64<304 352> 560 80<272 288 368 384> 608 80<128 144 208 224> 624 80<144 160 192 208> 640 64<160 192>
VStem: 64 80<80 96 192 208 608 624> 64 64<96 192 544 608> 80 80<64 80 208 224> 368 80<352 368 624 640> 384 64<64 224 288 352 640 704>
LayerCount: 2
Fore
SplineSet
448 0 m 1xe004
 144 0 l 1
 144 16 l 1xe044
 112 16 l 1
 112 32 l 1
 96 32 l 1
 96 48 l 1
 80 48 l 1
 80 80 l 1xe010
 64 80 l 1
 64 208 l 1xe040
 80 208 l 1
 80 240 l 1xe010
 96 240 l 1
 96 256 l 1
 112 256 l 1
 112 272 l 1
 144 272 l 1
 144 288 l 1
 384 288 l 1
 384 352 l 1xe044
 368 352 l 1
 368 368 l 1
 352 368 l 1
 352 384 l 1
 96 384 l 1
 96 448 l 1
 368 448 l 1
 368 432 l 1
 400 432 l 1
 400 416 l 1
 416 416 l 1
 416 400 l 1
 432 400 l 1
 432 368 l 1
 448 368 l 1xe008
 448 0 l 1xe004
160 64 m 1xe010
 384 64 l 1
 384 224 l 1
 160 224 l 1
 160 208 l 1xe014
 144 208 l 1
 144 192 l 1xe040
 128 192 l 1
 128 96 l 1xe020
 144 96 l 1
 144 80 l 1xe040
 160 80 l 1
 160 64 l 1xe010
368 544 m 1xf008
 288 544 l 1xf008
 288 560 l 1
 256 560 l 1xe408
 256 576 l 1
 240 576 l 1
 240 592 l 1
 224 592 l 1
 224 608 l 1
 208 608 l 1xe208
 208 624 l 1
 192 624 l 1xe108
 192 640 l 1
 160 640 l 1xe098
 160 624 l 1xe118
 144 624 l 1xe140
 144 608 l 1xe240
 128 608 l 1xe220
 128 544 l 1
 64 544 l 1
 64 640 l 1xe8a0
 80 640 l 1
 80 656 l 1xe890
 96 656 l 1
 96 672 l 1
 112 672 l 1
 112 688 l 1
 144 688 l 1xe240
 144 704 l 1
 208 704 l 1xe140
 208 688 l 1
 240 688 l 1xe240
 240 672 l 1
 256 672 l 1
 256 656 l 1
 272 656 l 1
 272 640 l 1
 288 640 l 1xe440
 288 624 l 1
 304 624 l 1xf040
 304 608 l 1
 352 608 l 1xe840
 352 624 l 1
 368 624 l 1xf048
 368 640 l 1xe448
 384 640 l 1xe404
 384 704 l 1
 448 704 l 1xe084
 448 608 l 1
 432 608 l 1xe204
 432 592 l 1
 416 592 l 1
 416 576 l 1
 400 576 l 1
 400 560 l 1
 368 560 l 1xe408
 368 544 l 1xf008
EndSplineSet
EndChar

StartChar: LATIN
Encoding: 228 228 165
Width: 512
GlyphClass: 1
Flags: W
HStem: 0 64<160 384> 224 64<160 384> 384 64<96 352> 544 96<128 192 320 384>
VStem: 64 80<80 96 192 208> 64 64<96 192> 80 80<64 80 208 224> 128 64<544 640> 320 64<544 640> 384 64<64 224 288 352>
LayerCount: 2
Fore
SplineSet
448 0 m 1xf840
 144 0 l 1
 144 16 l 1xf840
 112 16 l 1
 112 32 l 1
 96 32 l 1
 96 48 l 1
 80 48 l 1
 80 80 l 1xf2
 64 80 l 1
 64 208 l 1xf8
 80 208 l 1
 80 240 l 1xf2
 96 240 l 1
 96 256 l 1
 112 256 l 1
 112 272 l 1
 144 272 l 1
 144 288 l 1
 384 288 l 1
 384 352 l 1
 368 352 l 1
 368 368 l 1
 352 368 l 1
 352 384 l 1
 96 384 l 1
 96 448 l 1
 368 448 l 1
 368 432 l 1
 400 432 l 1
 400 416 l 1
 416 416 l 1
 416 400 l 1
 432 400 l 1
 432 368 l 1
 448 368 l 1
 448 0 l 1xf840
160 64 m 1xf2
 384 64 l 1
 384 224 l 1
 160 224 l 1
 160 208 l 1xf240
 144 208 l 1
 144 192 l 1xf8
 128 192 l 1
 128 96 l 1xf4
 144 96 l 1
 144 80 l 1xf8
 160 80 l 1
 160 64 l 1xf2
384 544 m 1xf080
 320 544 l 1
 320 640 l 1
 384 640 l 1
 384 544 l 1xf080
192 544 m 1xf1
 128 544 l 1
 128 640 l 1
 192 640 l 1
 192 544 l 1xf1
EndSplineSet
EndChar

StartChar: LATIN
Encoding: 229 229 166
Width: 512
GlyphClass: 1
Flags: W
HStem: 0 64<160 384> 224 64<160 384> 384 64<96 352> 512 64<240 304> 528 64<224 240 304 320> 592 64<160 176 368 384> 656 64<224 240 304 320> 672 64<240 304>
VStem: 64 80<80 96 192 208> 64 64<96 192> 80 80<64 80 208 224> 160 64<592 656> 176 64<576 592 656 672> 240 64<512 528 720 736> 304 64<576 592 656 672> 320 64<592 656> 384 64<64 224 288 352>
LayerCount: 2
Fore
SplineSet
448 0 m 1xe08280
 144 0 l 1
 144 16 l 1xe08280
 112 16 l 1
 112 32 l 1
 96 32 l 1
 96 48 l 1
 80 48 l 1
 80 80 l 1xe020
 64 80 l 1
 64 208 l 1xe080
 80 208 l 1
 80 240 l 1xe020
 96 240 l 1
 96 256 l 1
 112 256 l 1
 112 272 l 1
 144 272 l 1
 144 288 l 1
 384 288 l 1
 384 352 l 1
 368 352 l 1
 368 368 l 1
 352 368 l 1
 352 384 l 1
 96 384 l 1
 96 448 l 1
 368 448 l 1
 368 432 l 1
 400 432 l 1
 400 416 l 1
 416 416 l 1
 416 400 l 1
 432 400 l 1
 432 368 l 1
 448 368 l 1
 448 0 l 1xe08280
160 64 m 1xe020
 384 64 l 1
 384 224 l 1
 160 224 l 1
 160 208 l 1xe02080
 144 208 l 1
 144 192 l 1xe080
 128 192 l 1
 128 96 l 1xe040
 144 96 l 1
 144 80 l 1xe080
 160 80 l 1
 160 64 l 1xe020
304 512 m 1xf004
 240 512 l 1xf004
 240 528 l 1
 208 528 l 1xe804
 208 544 l 1
 192 544 l 1
 192 560 l 1
 176 560 l 1
 176 592 l 1xe408
 160 592 l 1
 160 656 l 1xe410
 176 656 l 1
 176 688 l 1xe408
 192 688 l 1
 192 704 l 1
 208 704 l 1
 208 720 l 1
 240 720 l 1xe204
 240 736 l 1
 304 736 l 1xe104
 304 720 l 1
 336 720 l 1xe204
 336 704 l 1
 352 704 l 1
 352 688 l 1
 368 688 l 1
 368 656 l 1xe402
 384 656 l 1
 384 592 l 1xe401
 368 592 l 1
 368 560 l 1xe402
 352 560 l 1
 352 544 l 1
 336 544 l 1
 336 528 l 1
 304 528 l 1xe804
 304 512 l 1xf004
240 576 m 1xf008
 304 576 l 1xf00a
 304 592 l 1xe80a
 320 592 l 1
 320 656 l 1xea01
 304 656 l 1xea02
 304 672 l 1
 240 672 l 1xe10a
 240 656 l 1xe20a
 224 656 l 1
 224 592 l 1xea10
 240 592 l 1xea08
 240 576 l 1xf008
EndSplineSet
EndChar

StartChar: LATIN
Encoding: 230 230 167
Width: 512
GlyphClass: 1
Flags: W
HStem: 0 80<144 160 208 224 304 320> 0 64<160 208 320 448> 192 64<288 384> 224 64<160 224> 368 80<192 208 304 320> 384 64<96 192 320 384>
VStem: 64 80<80 96 192 208> 64 64<96 192> 80 80<64 80 208 224> 224 64<96 192 288 352> 384 64<256 384>
LayerCount: 2
Fore
SplineSet
448 0 m 1x4260
 288 0 l 1x4260
 288 16 l 1
 272 16 l 1
 272 32 l 1
 240 32 l 1
 240 16 l 1
 224 16 l 1
 224 0 l 1
 144 0 l 1
 144 16 l 1x8260
 112 16 l 1
 112 32 l 1
 96 32 l 1
 96 48 l 1
 80 48 l 1
 80 80 l 1x80e0
 64 80 l 1
 64 208 l 1x8260
 80 208 l 1
 80 240 l 1
 96 240 l 1
 96 256 l 1
 112 256 l 1xa0e0
 112 272 l 1
 144 272 l 1
 144 288 l 1
 224 288 l 1
 224 352 l 1
 208 352 l 1
 208 368 l 1
 192 368 l 1x1a60
 192 384 l 1
 96 384 l 1
 96 448 l 1
 224 448 l 1
 224 432 l 1
 240 432 l 1
 240 416 l 1
 272 416 l 1
 272 432 l 1
 288 432 l 1
 288 448 l 1
 448 448 l 1
 448 192 l 1
 288 192 l 1
 288 96 l 1
 304 96 l 1
 304 80 l 1
 320 80 l 1xa660
 320 64 l 1
 448 64 l 1
 448 0 l 1x4260
160 64 m 1x40e0
 208 64 l 1x40e0
 208 80 l 1
 224 80 l 1
 224 224 l 1
 160 224 l 1
 160 208 l 1x90e0
 144 208 l 1
 144 192 l 1x2260
 128 192 l 1
 128 96 l 1x2160
 144 96 l 1
 144 80 l 1xa260
 160 80 l 1xa0e0
 160 64 l 1x40e0
288 256 m 1x2860
 384 256 l 1
 384 384 l 1
 320 384 l 1x2460
 320 368 l 1
 304 368 l 1
 304 352 l 1
 288 352 l 1
 288 256 l 1x2860
EndSplineSet
EndChar

StartChar: LATIN
Encoding: 231 231 168
Width: 512
GlyphClass: 1
Flags: W
HStem: -192 64<192 224> 0 64<160 256 320 448> 384 64<160 448>
VStem: 64 80<80 96 352 368> 64 64<96 352> 80 80<64 80 368 384> 192 48<-192 -176> 256 64<-96 0>
LayerCount: 2
Fore
SplineSet
240 -192 m 1xe7
 192 -192 l 1
 192 -128 l 1
 224 -128 l 1
 224 -112 l 1
 240 -112 l 1
 240 -96 l 1
 256 -96 l 1
 256 0 l 1
 144 0 l 1
 144 16 l 1xf3
 112 16 l 1
 112 32 l 1
 96 32 l 1
 96 48 l 1
 80 48 l 1
 80 80 l 1xe7
 64 80 l 1
 64 368 l 1xf3
 80 368 l 1
 80 400 l 1xe7
 96 400 l 1
 96 416 l 1
 112 416 l 1
 112 432 l 1
 144 432 l 1
 144 448 l 1xf3
 448 448 l 1
 448 384 l 1
 160 384 l 1
 160 368 l 1xe7
 144 368 l 1
 144 352 l 1xf3
 128 352 l 1
 128 96 l 1xeb
 144 96 l 1
 144 80 l 1xf3
 160 80 l 1
 160 64 l 1
 448 64 l 1
 448 0 l 1
 320 0 l 1
 320 -112 l 1
 304 -112 l 1
 304 -144 l 1
 288 -144 l 1
 288 -160 l 1
 272 -160 l 1
 272 -176 l 1
 240 -176 l 1
 240 -192 l 1xe7
EndSplineSet
EndChar

StartChar: LATIN
Encoding: 232 232 169
Width: 512
GlyphClass: 1
Flags: W
HStem: 0 64<160 448> 192 64<128 384> 384 64<160 384> 512 48<336 352>
VStem: 64 80<80 96 352 368> 64 64<96 192 256 352> 80 80<64 80 368 384> 160 48<688 704> 384 64<256 384>
LayerCount: 2
Fore
SplineSet
448 0 m 1xf280
 144 0 l 1
 144 16 l 1xf880
 112 16 l 1
 112 32 l 1
 96 32 l 1
 96 48 l 1
 80 48 l 1
 80 80 l 1xf280
 64 80 l 1
 64 368 l 1xf880
 80 368 l 1
 80 400 l 1xf280
 96 400 l 1
 96 416 l 1
 112 416 l 1
 112 432 l 1
 144 432 l 1
 144 448 l 1xf880
 448 448 l 1
 448 192 l 1
 128 192 l 1
 128 96 l 1xf480
 144 96 l 1
 144 80 l 1xf880
 160 80 l 1
 160 64 l 1
 448 64 l 1
 448 0 l 1xf280
128 256 m 1xf480
 384 256 l 1
 384 384 l 1
 160 384 l 1
 160 368 l 1xf280
 144 368 l 1
 144 352 l 1xf880
 128 352 l 1
 128 256 l 1xf480
352 512 m 1
 288 512 l 1
 288 528 l 1
 272 528 l 1
 272 544 l 1
 256 544 l 1
 256 560 l 1
 240 560 l 1
 240 576 l 1
 224 576 l 1
 224 592 l 1
 208 592 l 1
 208 608 l 1
 192 608 l 1
 192 624 l 1
 176 624 l 1
 176 640 l 1
 160 640 l 1
 160 704 l 1
 208 704 l 1
 208 688 l 1xf180
 224 688 l 1
 224 672 l 1
 240 672 l 1
 240 656 l 1
 256 656 l 1
 256 640 l 1
 272 640 l 1
 272 624 l 1
 288 624 l 1
 288 608 l 1
 304 608 l 1
 304 592 l 1
 320 592 l 1
 320 576 l 1
 336 576 l 1
 336 560 l 1
 352 560 l 1
 352 512 l 1
EndSplineSet
EndChar

StartChar: LATIN
Encoding: 233 233 170
Width: 512
GlyphClass: 1
Flags: W
HStem: 0 64<160 448> 192 64<128 384> 384 64<160 384> 512 48<192 208>
VStem: 64 80<80 96 352 368> 64 64<96 192 256 352> 80 80<64 80 368 384> 336 48<688 704> 384 64<256 384>
LayerCount: 2
Fore
SplineSet
448 0 m 1xf280
 144 0 l 1
 144 16 l 1xf880
 112 16 l 1
 112 32 l 1
 96 32 l 1
 96 48 l 1
 80 48 l 1
 80 80 l 1xf2
 64 80 l 1
 64 368 l 1xf8
 80 368 l 1
 80 400 l 1xf2
 96 400 l 1
 96 416 l 1
 112 416 l 1
 112 432 l 1
 144 432 l 1
 144 448 l 1xf8
 448 448 l 1
 448 192 l 1
 128 192 l 1
 128 96 l 1xf480
 144 96 l 1
 144 80 l 1xf8
 160 80 l 1
 160 64 l 1
 448 64 l 1
 448 0 l 1xf280
128 256 m 1xf4
 384 256 l 1
 384 384 l 1
 160 384 l 1
 160 368 l 1xf280
 144 368 l 1
 144 352 l 1xf8
 128 352 l 1
 128 256 l 1xf4
256 512 m 1
 192 512 l 1
 192 560 l 1
 208 560 l 1
 208 576 l 1
 224 576 l 1
 224 592 l 1
 240 592 l 1
 240 608 l 1
 256 608 l 1
 256 624 l 1
 272 624 l 1
 272 640 l 1
 288 640 l 1
 288 656 l 1
 304 656 l 1
 304 672 l 1
 320 672 l 1
 320 688 l 1
 336 688 l 1
 336 704 l 1
 384 704 l 1xf1
 384 640 l 1xf080
 368 640 l 1
 368 624 l 1
 352 624 l 1
 352 608 l 1
 336 608 l 1
 336 592 l 1xf1
 320 592 l 1
 320 576 l 1
 304 576 l 1
 304 560 l 1
 288 560 l 1
 288 544 l 1
 272 544 l 1
 272 528 l 1
 256 528 l 1
 256 512 l 1
EndSplineSet
EndChar

StartChar: LATIN
Encoding: 234 234 171
Width: 512
GlyphClass: 1
Flags: W
HStem: 0 64<160 448> 192 64<128 384> 384 64<160 384> 512 80<112 128 384 400> 512 64<96 112 400 416> 624 80<240 272>
VStem: 64 64<96 192 256 352> 80 80<64 80 368 384> 96 48<512 528> 368 48<512 528> 384 64<256 384>
LayerCount: 2
Fore
SplineSet
448 0 m 1xe520
 144 0 l 1
 144 16 l 1
 112 16 l 1
 112 32 l 1
 96 32 l 1
 96 48 l 1xe4a0
 80 48 l 1
 80 80 l 1xe5
 64 80 l 1
 64 368 l 1xe6
 80 368 l 1
 80 400 l 1xe5
 96 400 l 1
 96 416 l 1
 112 416 l 1
 112 432 l 1
 144 432 l 1
 144 448 l 1xe480
 448 448 l 1
 448 192 l 1
 128 192 l 1
 128 96 l 1xe620
 144 96 l 1
 144 80 l 1xe480
 160 80 l 1
 160 64 l 1
 448 64 l 1
 448 0 l 1xe520
128 256 m 1xe6
 384 256 l 1
 384 384 l 1
 160 384 l 1
 160 368 l 1xe520
 144 368 l 1
 144 352 l 1xe480
 128 352 l 1
 128 256 l 1xe6
416 512 m 1xec40
 368 512 l 1
 368 528 l 1
 352 528 l 1
 352 544 l 1
 336 544 l 1
 336 560 l 1
 320 560 l 1
 320 576 l 1
 304 576 l 1xec40
 304 592 l 1
 288 592 l 1
 288 608 l 1
 272 608 l 1
 272 624 l 1
 240 624 l 1
 240 608 l 1
 224 608 l 1
 224 592 l 1
 208 592 l 1xf440
 208 576 l 1
 192 576 l 1
 192 560 l 1
 176 560 l 1
 176 544 l 1
 160 544 l 1
 160 528 l 1xed40
 144 528 l 1
 144 512 l 1
 96 512 l 1
 96 576 l 1
 112 576 l 1xec80
 112 592 l 1
 128 592 l 1
 128 608 l 1xf6
 144 608 l 1
 144 624 l 1xf480
 160 624 l 1
 160 640 l 1
 176 640 l 1
 176 656 l 1
 192 656 l 1
 192 672 l 1
 208 672 l 1
 208 688 l 1
 224 688 l 1
 224 704 l 1
 288 704 l 1
 288 688 l 1
 304 688 l 1
 304 672 l 1
 320 672 l 1
 320 656 l 1
 336 656 l 1
 336 640 l 1
 352 640 l 1
 352 624 l 1
 368 624 l 1
 368 608 l 1xf540
 384 608 l 1
 384 592 l 1
 400 592 l 1xf420
 400 576 l 1
 416 576 l 1
 416 512 l 1xec40
EndSplineSet
EndChar

StartChar: LATIN
Encoding: 235 235 172
Width: 512
GlyphClass: 1
Flags: W
HStem: 0 64<160 448> 192 64<128 384> 384 64<160 384> 544 96<128 192 320 384>
VStem: 64 80<80 96 352 368> 64 64<96 192 256 352> 80 80<64 80 368 384> 128 64<544 640> 320 64<544 640> 384 64<256 384>
LayerCount: 2
Fore
SplineSet
448 0 m 1xf240
 144 0 l 1
 144 16 l 1xf840
 112 16 l 1
 112 32 l 1
 96 32 l 1
 96 48 l 1
 80 48 l 1
 80 80 l 1xf2
 64 80 l 1
 64 368 l 1xf8
 80 368 l 1
 80 400 l 1xf2
 96 400 l 1
 96 416 l 1
 112 416 l 1
 112 432 l 1
 144 432 l 1
 144 448 l 1xf8
 448 448 l 1
 448 192 l 1
 128 192 l 1
 128 96 l 1xf440
 144 96 l 1
 144 80 l 1xf8
 160 80 l 1
 160 64 l 1
 448 64 l 1
 448 0 l 1xf240
128 256 m 1xf4
 384 256 l 1
 384 384 l 1
 160 384 l 1
 160 368 l 1xf240
 144 368 l 1
 144 352 l 1xf8
 128 352 l 1
 128 256 l 1xf4
384 544 m 1xf080
 320 544 l 1
 320 640 l 1
 384 640 l 1
 384 544 l 1xf080
192 544 m 1xf1
 128 544 l 1
 128 640 l 1
 192 640 l 1
 192 544 l 1xf1
EndSplineSet
EndChar

StartChar: LATIN
Encoding: 236 236 173
Width: 512
GlyphClass: 1
Flags: W
HStem: 0 64<288 352> 384 64<160 224> 512 48<336 352>
VStem: 160 48<688 704> 224 128<0 64> 224 64<64 384>
LayerCount: 2
Fore
SplineSet
352 0 m 1xf8
 224 0 l 1xf8
 224 384 l 1
 160 384 l 1
 160 448 l 1
 288 448 l 1
 288 64 l 1xf4
 352 64 l 1
 352 0 l 1xf8
352 512 m 1
 288 512 l 1
 288 528 l 1
 272 528 l 1
 272 544 l 1
 256 544 l 1
 256 560 l 1
 240 560 l 1
 240 576 l 1
 224 576 l 1
 224 592 l 1
 208 592 l 1
 208 608 l 1
 192 608 l 1
 192 624 l 1
 176 624 l 1
 176 640 l 1
 160 640 l 1
 160 704 l 1
 208 704 l 1
 208 688 l 1
 224 688 l 1
 224 672 l 1
 240 672 l 1
 240 656 l 1
 256 656 l 1
 256 640 l 1
 272 640 l 1
 272 624 l 1
 288 624 l 1
 288 608 l 1xf4
 304 608 l 1
 304 592 l 1
 320 592 l 1
 320 576 l 1
 336 576 l 1
 336 560 l 1
 352 560 l 1
 352 512 l 1
EndSplineSet
EndChar

StartChar: LATIN
Encoding: 237 237 174
Width: 512
GlyphClass: 1
Flags: W
HStem: 0 64<288 352> 384 64<160 224> 512 48<160 176>
VStem: 160 128<384 448> 224 64<64 384> 304 48<688 704>
LayerCount: 2
Fore
SplineSet
352 0 m 1xec
 224 0 l 1
 224 384 l 1xec
 160 384 l 1
 160 448 l 1
 288 448 l 1xf4
 288 64 l 1
 352 64 l 1
 352 0 l 1xec
224 512 m 1
 160 512 l 1
 160 560 l 1xf4
 176 560 l 1
 176 576 l 1
 192 576 l 1
 192 592 l 1
 208 592 l 1
 208 608 l 1
 224 608 l 1
 224 624 l 1
 240 624 l 1
 240 640 l 1
 256 640 l 1
 256 656 l 1
 272 656 l 1
 272 672 l 1
 288 672 l 1
 288 688 l 1
 304 688 l 1
 304 704 l 1
 352 704 l 1
 352 640 l 1
 336 640 l 1
 336 624 l 1
 320 624 l 1
 320 608 l 1
 304 608 l 1
 304 592 l 1
 288 592 l 1
 288 576 l 1
 272 576 l 1
 272 560 l 1
 256 560 l 1
 256 544 l 1
 240 544 l 1
 240 528 l 1
 224 528 l 1
 224 512 l 1
EndSplineSet
EndChar

StartChar: LATIN
Encoding: 238 238 175
Width: 512
GlyphClass: 1
Flags: W
HStem: 0 64<288 352> 384 64<160 224> 512 80<112 128 384 400> 512 64<96 112 400 416> 624 80<240 272>
VStem: 96 48<512 528> 160 128<384 448> 224 128<0 64> 224 64<64 384 688 704> 368 48<512 528>
LayerCount: 2
Fore
SplineSet
352 0 m 1xcd40
 224 0 l 1xcd40
 224 384 l 1xccc0
 160 384 l 1
 160 448 l 1
 288 448 l 1xce40
 288 64 l 1xccc0
 352 64 l 1
 352 0 l 1xcd40
416 512 m 1xdd40
 368 512 l 1
 368 528 l 1
 352 528 l 1
 352 544 l 1
 336 544 l 1
 336 560 l 1
 320 560 l 1
 320 576 l 1
 304 576 l 1xdd40
 304 592 l 1
 288 592 l 1
 288 608 l 1
 272 608 l 1
 272 624 l 1
 240 624 l 1
 240 608 l 1
 224 608 l 1
 224 592 l 1
 208 592 l 1xecc0
 208 576 l 1
 192 576 l 1
 192 560 l 1
 176 560 l 1
 176 544 l 1
 160 544 l 1
 160 528 l 1
 144 528 l 1
 144 512 l 1
 96 512 l 1
 96 576 l 1
 112 576 l 1xde40
 112 592 l 1
 128 592 l 1
 128 608 l 1
 144 608 l 1
 144 624 l 1
 160 624 l 1
 160 640 l 1xee40
 176 640 l 1
 176 656 l 1
 192 656 l 1
 192 672 l 1
 208 672 l 1
 208 688 l 1
 224 688 l 1
 224 704 l 1
 288 704 l 1
 288 688 l 1xecc0
 304 688 l 1
 304 672 l 1
 320 672 l 1
 320 656 l 1
 336 656 l 1
 336 640 l 1
 352 640 l 1
 352 624 l 1
 368 624 l 1
 368 608 l 1
 384 608 l 1
 384 592 l 1
 400 592 l 1xed40
 400 576 l 1
 416 576 l 1
 416 512 l 1xdd40
EndSplineSet
EndChar

StartChar: LATIN
Encoding: 239 239 176
Width: 512
GlyphClass: 1
Flags: W
HStem: 0 64<288 352> 384 64<160 224> 544 96<128 192 320 384>
VStem: 128 64<544 640> 160 128<384 448> 224 128<0 64> 224 64<64 384> 320 64<544 640>
LayerCount: 2
Fore
SplineSet
352 0 m 1xe4
 224 0 l 1xe4
 224 384 l 1xe2
 160 384 l 1
 160 448 l 1
 288 448 l 1xe8
 288 64 l 1xe2
 352 64 l 1
 352 0 l 1xe4
384 544 m 1xe1
 320 544 l 1
 320 640 l 1
 384 640 l 1
 384 544 l 1xe1
192 544 m 1xf0
 128 544 l 1
 128 640 l 1
 192 640 l 1
 192 544 l 1xf0
EndSplineSet
EndChar

StartChar: LATIN
Encoding: 240 240 177
Width: 512
GlyphClass: 1
Flags: W
HStem: 0 80<144 160 352 368> 0 64<160 352> 16 80<128 144 368 384> 384 64<160 272> 592 80<128 144 240 256> 608 64<112 128 256 272> 624 48<96 112 272 288>
VStem: 64 80<80 96 352 368> 64 64<96 352> 80 80<64 80 368 384> 96 80<496 512 640 656> 96 64<480 496 656 672> 352 80<64 80 368 384> 368 80<80 96 352 368> 384 64<96 352>
LayerCount: 2
Fore
SplineSet
368 0 m 1x9004
 144 0 l 1x9104
 144 16 l 1x3104
 112 16 l 1
 112 32 l 1
 96 32 l 1
 96 48 l 1x3010
 80 48 l 1
 80 80 l 1x9040
 64 80 l 1
 64 368 l 1x91
 80 368 l 1
 80 400 l 1x9040
 96 400 l 1
 96 416 l 1x9010
 112 416 l 1
 112 432 l 1
 144 432 l 1
 144 448 l 1x91
 272 448 l 1
 272 464 l 1
 256 464 l 1
 256 480 l 1
 240 480 l 1
 240 496 l 1
 224 496 l 1
 224 512 l 1
 208 512 l 1
 208 528 l 1
 192 528 l 1
 192 512 l 1
 176 512 l 1
 176 496 l 1x9020
 160 496 l 1
 160 480 l 1
 96 480 l 1
 96 544 l 1x9010
 112 544 l 1
 112 560 l 1
 128 560 l 1
 128 576 l 1x9080
 144 576 l 1
 144 592 l 1x99
 128 592 l 1x9880
 128 608 l 1
 112 608 l 1x1480
 112 624 l 1
 96 624 l 1
 96 672 l 1
 160 672 l 1
 160 656 l 1x1210
 176 656 l 1
 176 640 l 1
 208 640 l 1
 208 656 l 1
 224 656 l 1
 224 672 l 1
 288 672 l 1
 288 624 l 1
 272 624 l 1x1220
 272 608 l 1
 256 608 l 1x1420
 256 592 l 1
 240 592 l 1
 240 576 l 1
 256 576 l 1
 256 560 l 1
 272 560 l 1
 272 544 l 1
 288 544 l 1
 288 528 l 1
 304 528 l 1
 304 512 l 1
 320 512 l 1
 320 496 l 1
 336 496 l 1
 336 480 l 1
 352 480 l 1
 352 464 l 1x1828
 368 464 l 1
 368 448 l 1x1804
 384 448 l 1
 384 432 l 1x1802
 400 432 l 1
 400 416 l 1
 416 416 l 1
 416 400 l 1
 432 400 l 1
 432 368 l 1x1808
 448 368 l 1
 448 80 l 1x9804
 432 80 l 1
 432 48 l 1x9808
 416 48 l 1
 416 32 l 1
 400 32 l 1
 400 16 l 1
 368 16 l 1x3004
 368 0 l 1x9004
160 64 m 1x5040
 352 64 l 1x5048
 352 80 l 1x9048
 368 80 l 1x9004
 368 96 l 1x3004
 384 96 l 1
 384 352 l 1x3002
 368 352 l 1
 368 368 l 1x3004
 352 368 l 1
 352 384 l 1
 160 384 l 1
 160 368 l 1x3048
 144 368 l 1
 144 352 l 1x31
 128 352 l 1
 128 96 l 1x3080
 144 96 l 1x31
 144 80 l 1x91
 160 80 l 1x9040
 160 64 l 1x5040
EndSplineSet
EndChar

StartChar: LATIN
Encoding: 241 241 178
Width: 512
GlyphClass: 1
Flags: W
HStem: 0 21G<64 128 384 448> 384 64<128 352> 544 80<288 304 352 368> 544 64<304 352> 560 80<272 288 368 384> 608 80<128 144 208 224> 624 80<144 160 192 208> 640 64<160 192>
VStem: 64 64<0 384 544 608> 368 80<352 368 624 640> 384 64<0 352 640 704>
LayerCount: 2
Fore
SplineSet
448 0 m 1xc0a0
 384 0 l 1
 384 352 l 1xc0a0
 368 352 l 1
 368 368 l 1
 352 368 l 1
 352 384 l 1
 128 384 l 1
 128 0 l 1
 64 0 l 1
 64 448 l 1
 368 448 l 1
 368 432 l 1
 400 432 l 1
 400 416 l 1
 416 416 l 1
 416 400 l 1
 432 400 l 1
 432 368 l 1
 448 368 l 1xc0c0
 448 0 l 1xc0a0
368 544 m 1xe0c0
 288 544 l 1xe0c0
 288 560 l 1
 256 560 l 1xc8c0
 256 576 l 1
 240 576 l 1
 240 592 l 1
 224 592 l 1
 224 608 l 1
 208 608 l 1xc4c0
 208 624 l 1
 192 624 l 1xc2c0
 192 640 l 1
 160 640 l 1xc1c0
 160 624 l 1
 144 624 l 1xc2c0
 144 608 l 1
 128 608 l 1xc4c0
 128 544 l 1
 64 544 l 1
 64 640 l 1
 80 640 l 1xd1c0
 80 656 l 1
 96 656 l 1
 96 672 l 1
 112 672 l 1
 112 688 l 1
 144 688 l 1xc4c0
 144 704 l 1
 208 704 l 1xc2c0
 208 688 l 1
 240 688 l 1xc4c0
 240 672 l 1
 256 672 l 1
 256 656 l 1
 272 656 l 1
 272 640 l 1
 288 640 l 1xc8c0
 288 624 l 1
 304 624 l 1xe0c0
 304 608 l 1
 352 608 l 1xd0c0
 352 624 l 1
 368 624 l 1xe0c0
 368 640 l 1xc8c0
 384 640 l 1xc8a0
 384 704 l 1
 448 704 l 1xc1a0
 448 608 l 1
 432 608 l 1xc4a0
 432 592 l 1
 416 592 l 1
 416 576 l 1
 400 576 l 1
 400 560 l 1
 368 560 l 1xc8c0
 368 544 l 1xe0c0
EndSplineSet
EndChar

StartChar: LATIN
Encoding: 242 242 179
Width: 512
GlyphClass: 1
Flags: W
HStem: 0 80<144 160 352 368> 0 64<160 352> 16 80<128 144 368 384> 352 80<128 144 368 384> 368 80<144 160 352 368> 384 64<160 352> 512 48<336 352>
VStem: 64 80<80 96 352 368> 64 64<96 352> 80 80<64 80 368 384> 160 48<688 704> 352 80<64 80 368 384> 368 80<80 96 352 368> 384 64<96 352>
LayerCount: 2
Fore
SplineSet
368 0 m 1x8208
 144 0 l 1x8308
 144 16 l 1
 112 16 l 1x2308
 112 32 l 1
 96 32 l 1
 96 48 l 1
 80 48 l 1
 80 80 l 1x8240
 64 80 l 1
 64 368 l 1x8b
 80 368 l 1
 80 400 l 1x8a40
 96 400 l 1
 96 416 l 1
 112 416 l 1
 112 432 l 1
 144 432 l 1x13
 144 448 l 1
 368 448 l 1x0b08
 368 432 l 1
 400 432 l 1x1308
 400 416 l 1
 416 416 l 1
 416 400 l 1
 432 400 l 1
 432 368 l 1x0a10
 448 368 l 1
 448 80 l 1x8a08
 432 80 l 1
 432 48 l 1x8a10
 416 48 l 1
 416 32 l 1
 400 32 l 1
 400 16 l 1
 368 16 l 1x2208
 368 0 l 1x8208
160 64 m 1x4240
 352 64 l 1x4250
 352 80 l 1x8250
 368 80 l 1x8208
 368 96 l 1x2208
 384 96 l 1
 384 352 l 1x3204
 368 352 l 1x3208
 368 368 l 1x0a08
 352 368 l 1x0a10
 352 384 l 1
 160 384 l 1x0650
 160 368 l 1x0a50
 144 368 l 1x0b
 144 352 l 1x13
 128 352 l 1
 128 96 l 1x3280
 144 96 l 1x33
 144 80 l 1x83
 160 80 l 1x8240
 160 64 l 1x4240
352 512 m 1
 288 512 l 1
 288 528 l 1
 272 528 l 1
 272 544 l 1
 256 544 l 1
 256 560 l 1
 240 560 l 1
 240 576 l 1
 224 576 l 1
 224 592 l 1
 208 592 l 1
 208 608 l 1
 192 608 l 1
 192 624 l 1
 176 624 l 1
 176 640 l 1
 160 640 l 1
 160 704 l 1
 208 704 l 1
 208 688 l 1x0230
 224 688 l 1
 224 672 l 1
 240 672 l 1
 240 656 l 1
 256 656 l 1
 256 640 l 1
 272 640 l 1
 272 624 l 1
 288 624 l 1
 288 608 l 1
 304 608 l 1
 304 592 l 1
 320 592 l 1
 320 576 l 1
 336 576 l 1
 336 560 l 1
 352 560 l 1
 352 512 l 1
EndSplineSet
EndChar

StartChar: LATIN
Encoding: 243 243 180
Width: 512
GlyphClass: 1
Flags: W
HStem: 0 80<144 160 352 368> 0 64<160 352> 16 80<128 144 368 384> 352 80<128 144 368 384> 368 80<144 160 352 368> 384 64<160 352> 512 48<160 176>
VStem: 64 80<80 96 352 368> 64 64<96 352> 80 80<64 80 368 384> 304 48<688 704> 352 80<64 80 368 384> 368 80<80 96 352 368> 384 64<96 352>
LayerCount: 2
Fore
SplineSet
368 0 m 1x8208
 144 0 l 1x8308
 144 16 l 1
 112 16 l 1x2308
 112 32 l 1
 96 32 l 1
 96 48 l 1
 80 48 l 1
 80 80 l 1x8240
 64 80 l 1
 64 368 l 1x8b
 80 368 l 1
 80 400 l 1x8a40
 96 400 l 1
 96 416 l 1
 112 416 l 1
 112 432 l 1
 144 432 l 1x13
 144 448 l 1
 368 448 l 1x0b08
 368 432 l 1
 400 432 l 1x1308
 400 416 l 1
 416 416 l 1
 416 400 l 1
 432 400 l 1
 432 368 l 1x0a10
 448 368 l 1
 448 80 l 1x8a08
 432 80 l 1
 432 48 l 1x8a10
 416 48 l 1
 416 32 l 1
 400 32 l 1
 400 16 l 1
 368 16 l 1x2208
 368 0 l 1x8208
160 64 m 1x4240
 352 64 l 1x4250
 352 80 l 1x8250
 368 80 l 1x8208
 368 96 l 1x2208
 384 96 l 1
 384 352 l 1x3204
 368 352 l 1x3208
 368 368 l 1x0a08
 352 368 l 1x0a10
 352 384 l 1
 160 384 l 1x0650
 160 368 l 1x0a50
 144 368 l 1x0b
 144 352 l 1x13
 128 352 l 1
 128 96 l 1x3280
 144 96 l 1x33
 144 80 l 1x83
 160 80 l 1x8240
 160 64 l 1x4240
224 512 m 1
 160 512 l 1
 160 560 l 1
 176 560 l 1
 176 576 l 1
 192 576 l 1
 192 592 l 1
 208 592 l 1
 208 608 l 1
 224 608 l 1
 224 624 l 1
 240 624 l 1
 240 640 l 1
 256 640 l 1
 256 656 l 1
 272 656 l 1
 272 672 l 1
 288 672 l 1
 288 688 l 1
 304 688 l 1
 304 704 l 1
 352 704 l 1x0260
 352 640 l 1x0210
 336 640 l 1
 336 624 l 1
 320 624 l 1
 320 608 l 1
 304 608 l 1
 304 592 l 1x0220
 288 592 l 1
 288 576 l 1
 272 576 l 1
 272 560 l 1
 256 560 l 1
 256 544 l 1
 240 544 l 1
 240 528 l 1
 224 528 l 1
 224 512 l 1
EndSplineSet
EndChar

StartChar: LATIN
Encoding: 244 244 181
Width: 512
GlyphClass: 1
Flags: W
HStem: 0 80<144 160 352 368> 0 64<160 352> 16 80<128 144 368 384> 352 80<128 144 368 384> 368 80<144 160 352 368> 384 64<160 352> 512 80<112 128 384 400> 512 64<96 112 400 416> 624 80<240 272>
VStem: 64 64<96 352> 80 80<64 80 368 384> 96 48<512 528> 352 80<64 80 368 384> 368 48<512 528> 384 64<96 352>
LayerCount: 2
Fore
SplineSet
368 0 m 1x8084
 144 0 l 1x8094
 144 16 l 1
 112 16 l 1
 112 32 l 1
 96 32 l 1
 96 48 l 1x2094
 80 48 l 1
 80 80 l 1x80a0
 64 80 l 1
 64 368 l 1x88c0
 80 368 l 1
 80 400 l 1x88a0
 96 400 l 1
 96 416 l 1
 112 416 l 1
 112 432 l 1
 144 432 l 1x1090
 144 448 l 1
 368 448 l 1x0894
 368 432 l 1
 400 432 l 1
 400 416 l 1
 416 416 l 1
 416 400 l 1x1094
 432 400 l 1
 432 368 l 1x0888
 448 368 l 1
 448 80 l 1x8882
 432 80 l 1
 432 48 l 1x8888
 416 48 l 1
 416 32 l 1
 400 32 l 1
 400 16 l 1
 368 16 l 1x2084
 368 0 l 1x8084
160 64 m 1x40a0
 352 64 l 1x40a8
 352 80 l 1x80a8
 368 80 l 1x8084
 368 96 l 1x2084
 384 96 l 1
 384 352 l 1x3082
 368 352 l 1x3084
 368 368 l 1x0884
 352 368 l 1x0888
 352 384 l 1
 160 384 l 1x04a8
 160 368 l 1x08a8
 144 368 l 1x0890
 144 352 l 1x1090
 128 352 l 1
 128 96 l 1x30c0
 144 96 l 1x3090
 144 80 l 1x8090
 160 80 l 1x80a0
 160 64 l 1x40a0
416 512 m 1x0184
 368 512 l 1
 368 528 l 1x0184
 352 528 l 1
 352 544 l 1
 336 544 l 1
 336 560 l 1
 320 560 l 1
 320 576 l 1
 304 576 l 1x0188
 304 592 l 1
 288 592 l 1
 288 608 l 1
 272 608 l 1
 272 624 l 1
 240 624 l 1
 240 608 l 1
 224 608 l 1
 224 592 l 1
 208 592 l 1x0288
 208 576 l 1
 192 576 l 1
 192 560 l 1
 176 560 l 1
 176 544 l 1
 160 544 l 1
 160 528 l 1x01a8
 144 528 l 1
 144 512 l 1
 96 512 l 1
 96 576 l 1
 112 576 l 1x0190
 112 592 l 1
 128 592 l 1
 128 608 l 1x02c0
 144 608 l 1
 144 624 l 1x0290
 160 624 l 1
 160 640 l 1
 176 640 l 1
 176 656 l 1
 192 656 l 1
 192 672 l 1
 208 672 l 1
 208 688 l 1
 224 688 l 1
 224 704 l 1
 288 704 l 1
 288 688 l 1
 304 688 l 1
 304 672 l 1
 320 672 l 1
 320 656 l 1
 336 656 l 1
 336 640 l 1
 352 640 l 1
 352 624 l 1x02a8
 368 624 l 1
 368 608 l 1x0284
 384 608 l 1
 384 592 l 1
 400 592 l 1x0282
 400 576 l 1
 416 576 l 1
 416 512 l 1x0184
EndSplineSet
EndChar

StartChar: LATIN
Encoding: 245 245 182
Width: 512
GlyphClass: 1
Flags: W
HStem: 0 80<144 160 352 368> 0 64<160 352> 16 80<128 144 368 384> 352 80<128 144 368 384> 368 80<144 160 352 368> 384 64<160 352> 544 80<288 304 352 368> 544 64<304 352> 560 80<272 288 368 384> 608 80<128 144 208 224> 624 80<144 160 192 208> 640 64<160 192>
VStem: 64 80<80 96 352 368 608 624> 64 64<96 352 544 608> 80 80<64 80 368 384> 352 80<64 80 368 384> 368 80<80 96 352 368 624 640> 384 64<96 352 640 704>
LayerCount: 2
Fore
SplineSet
368 0 m 1x800080
 144 0 l 1x800880
 144 16 l 1
 112 16 l 1x200880
 112 32 l 1
 96 32 l 1
 96 48 l 1
 80 48 l 1
 80 80 l 1x8002
 64 80 l 1
 64 368 l 1x8808
 80 368 l 1
 80 400 l 1x8802
 96 400 l 1
 96 416 l 1
 112 416 l 1
 112 432 l 1
 144 432 l 1x1008
 144 448 l 1
 368 448 l 1x080880
 368 432 l 1
 400 432 l 1x100880
 400 416 l 1
 416 416 l 1
 416 400 l 1
 432 400 l 1
 432 368 l 1x0801
 448 368 l 1
 448 80 l 1x880080
 432 80 l 1
 432 48 l 1x8801
 416 48 l 1
 416 32 l 1
 400 32 l 1
 400 16 l 1
 368 16 l 1x200080
 368 0 l 1x800080
160 64 m 1x4002
 352 64 l 1x4003
 352 80 l 1x8003
 368 80 l 1x800080
 368 96 l 1x200080
 384 96 l 1
 384 352 l 1x300040
 368 352 l 1x300080
 368 368 l 1x080080
 352 368 l 1x0801
 352 384 l 1
 160 384 l 1x0403
 160 368 l 1x0803
 144 368 l 1x0808
 144 352 l 1x1008
 128 352 l 1
 128 96 l 1x3004
 144 96 l 1x3008
 144 80 l 1x8008
 160 80 l 1x8002
 160 64 l 1x4002
368 544 m 1x020080
 288 544 l 1x020080
 288 560 l 1
 256 560 l 1x008080
 256 576 l 1
 240 576 l 1
 240 592 l 1
 224 592 l 1
 224 608 l 1
 208 608 l 1x004080
 208 624 l 1
 192 624 l 1x002080
 192 640 l 1
 160 640 l 1x001280
 160 624 l 1x002280
 144 624 l 1x0028
 144 608 l 1x0048
 128 608 l 1x0044
 128 544 l 1
 64 544 l 1
 64 640 l 1x0114
 80 640 l 1
 80 656 l 1x0112
 96 656 l 1
 96 672 l 1
 112 672 l 1
 112 688 l 1
 144 688 l 1x0048
 144 704 l 1
 208 704 l 1x0028
 208 688 l 1
 240 688 l 1x0048
 240 672 l 1
 256 672 l 1
 256 656 l 1
 272 656 l 1
 272 640 l 1
 288 640 l 1x0088
 288 624 l 1
 304 624 l 1x0208
 304 608 l 1
 352 608 l 1x0109
 352 624 l 1x0209
 368 624 l 1x020080
 368 640 l 1x008080
 384 640 l 1x008040
 384 704 l 1
 448 704 l 1x001040
 448 608 l 1x004040
 432 608 l 1
 432 592 l 1x0041
 416 592 l 1
 416 576 l 1
 400 576 l 1
 400 560 l 1
 368 560 l 1x008080
 368 544 l 1x020080
EndSplineSet
EndChar

StartChar: LATIN
Encoding: 246 246 183
Width: 512
GlyphClass: 1
Flags: W
HStem: 0 80<144 160 352 368> 0 64<160 352> 16 80<128 144 368 384> 352 80<128 144 368 384> 368 80<144 160 352 368> 384 64<160 352> 544 96<128 192 320 384>
VStem: 64 80<80 96 352 368> 64 64<96 352> 80 80<64 80 368 384> 128 64<544 640> 320 64<544 640> 352 80<64 80 368 384> 368 80<80 96 352 368> 384 64<96 352>
LayerCount: 2
Fore
SplineSet
368 0 m 1x8204
 144 0 l 1x8304
 144 16 l 1
 112 16 l 1x2304
 112 32 l 1
 96 32 l 1
 96 48 l 1
 80 48 l 1
 80 80 l 1x8240
 64 80 l 1
 64 368 l 1x8b
 80 368 l 1
 80 400 l 1x8a40
 96 400 l 1
 96 416 l 1
 112 416 l 1
 112 432 l 1
 144 432 l 1x13
 144 448 l 1
 368 448 l 1x0b04
 368 432 l 1
 400 432 l 1x1304
 400 416 l 1
 416 416 l 1
 416 400 l 1
 432 400 l 1
 432 368 l 1x0a08
 448 368 l 1
 448 80 l 1x8a04
 432 80 l 1
 432 48 l 1x8a08
 416 48 l 1
 416 32 l 1
 400 32 l 1
 400 16 l 1
 368 16 l 1x2204
 368 0 l 1x8204
160 64 m 1x4240
 352 64 l 1x4248
 352 80 l 1x8248
 368 80 l 1x8204
 368 96 l 1x2204
 384 96 l 1
 384 352 l 1x3202
 368 352 l 1x3204
 368 368 l 1x0a04
 352 368 l 1x0a08
 352 384 l 1
 160 384 l 1x0648
 160 368 l 1x0a48
 144 368 l 1x0b
 144 352 l 1x13
 128 352 l 1
 128 96 l 1x3280
 144 96 l 1x33
 144 80 l 1x83
 160 80 l 1x8240
 160 64 l 1x4240
384 544 m 1x0210
 320 544 l 1
 320 640 l 1
 384 640 l 1
 384 544 l 1x0210
192 544 m 1x0220
 128 544 l 1
 128 640 l 1
 192 640 l 1
 192 544 l 1x0220
EndSplineSet
EndChar

StartChar: DIVISION
Encoding: 247 247 184
Width: 512
GlyphClass: 1
Flags: W
HStem: 96 96<224 288> 256 64<96 416> 384 96<224 288>
VStem: 224 64<96 192 384 480>
CounterMasks: 1 e0
LayerCount: 2
Fore
SplineSet
288 96 m 1
 224 96 l 1
 224 192 l 1
 288 192 l 1
 288 96 l 1
416 256 m 1
 96 256 l 1
 96 320 l 1
 416 320 l 1
 416 256 l 1
288 384 m 1
 224 384 l 1
 224 480 l 1
 288 480 l 1
 288 384 l 1
EndSplineSet
EndChar

StartChar: LATIN
Encoding: 248 248 185
Width: 512
GlyphClass: 1
Flags: W
HStem: 0 64<48 64 160 352> 0 48<32 48> 384 64<160 352 448 464> 400 48<464 480>
VStem: 32 48<0 16> 64 64<144 352> 384 64<96 288> 432 48<432 448>
LayerCount: 2
Fore
SplineSet
368 0 m 1x61
 144 0 l 1
 144 16 l 1
 112 16 l 1
 112 32 l 1
 96 32 l 1
 96 16 l 1
 80 16 l 1
 80 0 l 1
 32 0 l 1
 32 48 l 1
 48 48 l 1x69
 48 64 l 1
 64 64 l 1
 64 368 l 1x84
 80 368 l 1
 80 400 l 1
 96 400 l 1
 96 416 l 1
 112 416 l 1
 112 432 l 1
 144 432 l 1
 144 448 l 1
 368 448 l 1
 368 432 l 1
 400 432 l 1
 400 416 l 1
 416 416 l 1
 416 432 l 1
 432 432 l 1
 432 448 l 1
 480 448 l 1
 480 400 l 1
 464 400 l 1x99
 464 384 l 1
 448 384 l 1
 448 80 l 1x22
 432 80 l 1
 432 48 l 1
 416 48 l 1
 416 32 l 1
 400 32 l 1
 400 16 l 1
 368 16 l 1
 368 0 l 1x61
160 64 m 1x82
 352 64 l 1
 352 80 l 1
 368 80 l 1
 368 96 l 1
 384 96 l 1
 384 288 l 1
 368 288 l 1
 368 272 l 1
 352 272 l 1
 352 256 l 1
 336 256 l 1
 336 240 l 1
 320 240 l 1
 320 224 l 1
 304 224 l 1
 304 208 l 1
 288 208 l 1
 288 192 l 1
 272 192 l 1
 272 176 l 1
 256 176 l 1
 256 160 l 1
 240 160 l 1
 240 144 l 1
 224 144 l 1
 224 128 l 1
 208 128 l 1
 208 112 l 1
 192 112 l 1
 192 96 l 1
 176 96 l 1
 176 80 l 1
 160 80 l 1
 160 64 l 1x82
144 144 m 1
 144 160 l 1
 160 160 l 1
 160 176 l 1
 176 176 l 1
 176 192 l 1
 192 192 l 1
 192 208 l 1
 208 208 l 1
 208 224 l 1
 224 224 l 1
 224 240 l 1
 240 240 l 1
 240 256 l 1
 256 256 l 1
 256 272 l 1
 272 272 l 1
 272 288 l 1
 288 288 l 1
 288 304 l 1
 304 304 l 1
 304 320 l 1
 320 320 l 1
 320 336 l 1
 336 336 l 1
 336 352 l 1
 352 352 l 1
 352 384 l 1
 160 384 l 1
 160 368 l 1
 144 368 l 1
 144 352 l 1
 128 352 l 1
 128 144 l 1x24
 144 144 l 1
EndSplineSet
EndChar

StartChar: LATIN
Encoding: 249 249 186
Width: 512
GlyphClass: 1
Flags: W
HStem: 0 64<160 384> 428 20G<64 128 384 448> 512 48<336 352>
VStem: 64 64<96 448> 160 48<688 704> 384 64<64 448>
LayerCount: 2
Fore
SplineSet
448 0 m 1
 144 0 l 1
 144 16 l 1
 112 16 l 1
 112 32 l 1
 96 32 l 1
 96 48 l 1
 80 48 l 1
 80 80 l 1
 64 80 l 1
 64 448 l 1
 128 448 l 1
 128 96 l 1
 144 96 l 1
 144 80 l 1
 160 80 l 1
 160 64 l 1
 384 64 l 1
 384 448 l 1
 448 448 l 1
 448 0 l 1
352 512 m 1
 288 512 l 1
 288 528 l 1
 272 528 l 1
 272 544 l 1
 256 544 l 1
 256 560 l 1
 240 560 l 1
 240 576 l 1
 224 576 l 1
 224 592 l 1
 208 592 l 1
 208 608 l 1
 192 608 l 1
 192 624 l 1
 176 624 l 1
 176 640 l 1
 160 640 l 1
 160 704 l 1
 208 704 l 1
 208 688 l 1
 224 688 l 1
 224 672 l 1
 240 672 l 1
 240 656 l 1
 256 656 l 1
 256 640 l 1
 272 640 l 1
 272 624 l 1
 288 624 l 1
 288 608 l 1
 304 608 l 1
 304 592 l 1
 320 592 l 1
 320 576 l 1
 336 576 l 1
 336 560 l 1
 352 560 l 1
 352 512 l 1
EndSplineSet
EndChar

StartChar: LATIN
Encoding: 250 250 187
Width: 512
GlyphClass: 1
Flags: W
HStem: 0 64<160 384> 428 20G<64 128 384 448> 512 48<160 176>
VStem: 64 64<96 448> 304 48<688 704> 384 64<64 448>
LayerCount: 2
Fore
SplineSet
448 0 m 1
 144 0 l 1
 144 16 l 1
 112 16 l 1
 112 32 l 1
 96 32 l 1
 96 48 l 1
 80 48 l 1
 80 80 l 1
 64 80 l 1
 64 448 l 1
 128 448 l 1
 128 96 l 1
 144 96 l 1
 144 80 l 1
 160 80 l 1
 160 64 l 1
 384 64 l 1
 384 448 l 1
 448 448 l 1
 448 0 l 1
224 512 m 1
 160 512 l 1
 160 560 l 1
 176 560 l 1
 176 576 l 1
 192 576 l 1
 192 592 l 1
 208 592 l 1
 208 608 l 1
 224 608 l 1
 224 624 l 1
 240 624 l 1
 240 640 l 1
 256 640 l 1
 256 656 l 1
 272 656 l 1
 272 672 l 1
 288 672 l 1
 288 688 l 1
 304 688 l 1
 304 704 l 1
 352 704 l 1
 352 640 l 1
 336 640 l 1
 336 624 l 1
 320 624 l 1
 320 608 l 1
 304 608 l 1
 304 592 l 1
 288 592 l 1
 288 576 l 1
 272 576 l 1
 272 560 l 1
 256 560 l 1
 256 544 l 1
 240 544 l 1
 240 528 l 1
 224 528 l 1
 224 512 l 1
EndSplineSet
EndChar

StartChar: LATIN
Encoding: 251 251 188
Width: 512
GlyphClass: 1
Flags: W
HStem: 0 64<160 384> 428 20G<64 128 384 448> 512 80<112 128 384 400> 512 64<96 112 400 416> 624 80<240 272>
VStem: 64 64<96 448> 96 48<512 528> 368 48<512 528> 384 64<64 448>
LayerCount: 2
Fore
SplineSet
448 0 m 1xca80
 144 0 l 1
 144 16 l 1
 112 16 l 1
 112 32 l 1
 96 32 l 1
 96 48 l 1xca80
 80 48 l 1
 80 80 l 1
 64 80 l 1
 64 448 l 1
 128 448 l 1
 128 96 l 1xcc
 144 96 l 1
 144 80 l 1
 160 80 l 1
 160 64 l 1
 384 64 l 1
 384 448 l 1
 448 448 l 1
 448 0 l 1xca80
416 512 m 1xd9
 368 512 l 1
 368 528 l 1
 352 528 l 1
 352 544 l 1
 336 544 l 1
 336 560 l 1
 320 560 l 1
 320 576 l 1
 304 576 l 1xd9
 304 592 l 1
 288 592 l 1
 288 608 l 1
 272 608 l 1
 272 624 l 1
 240 624 l 1
 240 608 l 1
 224 608 l 1
 224 592 l 1
 208 592 l 1xe9
 208 576 l 1
 192 576 l 1
 192 560 l 1
 176 560 l 1
 176 544 l 1
 160 544 l 1
 160 528 l 1
 144 528 l 1
 144 512 l 1
 96 512 l 1
 96 576 l 1
 112 576 l 1xdb
 112 592 l 1
 128 592 l 1
 128 608 l 1xec
 144 608 l 1
 144 624 l 1
 160 624 l 1
 160 640 l 1
 176 640 l 1
 176 656 l 1
 192 656 l 1
 192 672 l 1
 208 672 l 1
 208 688 l 1
 224 688 l 1
 224 704 l 1
 288 704 l 1
 288 688 l 1
 304 688 l 1
 304 672 l 1
 320 672 l 1
 320 656 l 1
 336 656 l 1
 336 640 l 1
 352 640 l 1
 352 624 l 1
 368 624 l 1
 368 608 l 1xeb
 384 608 l 1
 384 592 l 1
 400 592 l 1xe880
 400 576 l 1
 416 576 l 1
 416 512 l 1xd9
EndSplineSet
EndChar

StartChar: LATIN
Encoding: 252 252 189
Width: 512
GlyphClass: 1
Flags: W
HStem: 0 64<160 384> 428 20G<64 128 384 448> 544 96<128 192 320 384>
VStem: 64 64<96 448> 128 64<544 640> 320 64<544 640> 384 64<64 448>
LayerCount: 2
Fore
SplineSet
448 0 m 1xf2
 144 0 l 1
 144 16 l 1
 112 16 l 1
 112 32 l 1
 96 32 l 1
 96 48 l 1
 80 48 l 1
 80 80 l 1
 64 80 l 1
 64 448 l 1
 128 448 l 1
 128 96 l 1
 144 96 l 1
 144 80 l 1
 160 80 l 1
 160 64 l 1
 384 64 l 1
 384 448 l 1
 448 448 l 1
 448 0 l 1xf2
384 544 m 1xe4
 320 544 l 1
 320 640 l 1
 384 640 l 1
 384 544 l 1xe4
192 544 m 1xe8
 128 544 l 1
 128 640 l 1
 192 640 l 1
 192 544 l 1xe8
EndSplineSet
EndChar

StartChar: LATIN
Encoding: 253 253 190
Width: 512
GlyphClass: 1
Flags: W
HStem: -192 64<64 352> 0 64<160 384> 428 20G<64 128 384 448> 512 48<160 176>
VStem: 64 64<96 448> 304 48<688 704> 384 64<-96 0 64 448>
LayerCount: 2
Fore
SplineSet
368 -192 m 1
 64 -192 l 1
 64 -128 l 1
 352 -128 l 1
 352 -112 l 1
 368 -112 l 1
 368 -96 l 1
 384 -96 l 1
 384 0 l 1
 144 0 l 1
 144 16 l 1
 112 16 l 1
 112 32 l 1
 96 32 l 1
 96 48 l 1
 80 48 l 1
 80 80 l 1
 64 80 l 1
 64 448 l 1
 128 448 l 1
 128 96 l 1
 144 96 l 1
 144 80 l 1
 160 80 l 1
 160 64 l 1
 384 64 l 1
 384 448 l 1
 448 448 l 1
 448 -112 l 1
 432 -112 l 1
 432 -144 l 1
 416 -144 l 1
 416 -160 l 1
 400 -160 l 1
 400 -176 l 1
 368 -176 l 1
 368 -192 l 1
224 512 m 1
 160 512 l 1
 160 560 l 1
 176 560 l 1
 176 576 l 1
 192 576 l 1
 192 592 l 1
 208 592 l 1
 208 608 l 1
 224 608 l 1
 224 624 l 1
 240 624 l 1
 240 640 l 1
 256 640 l 1
 256 656 l 1
 272 656 l 1
 272 672 l 1
 288 672 l 1
 288 688 l 1
 304 688 l 1
 304 704 l 1
 352 704 l 1
 352 640 l 1
 336 640 l 1
 336 624 l 1
 320 624 l 1
 320 608 l 1
 304 608 l 1
 304 592 l 1
 288 592 l 1
 288 576 l 1
 272 576 l 1
 272 560 l 1
 256 560 l 1
 256 544 l 1
 240 544 l 1
 240 528 l 1
 224 528 l 1
 224 512 l 1
EndSplineSet
EndChar

StartChar: LATIN
Encoding: 254 254 191
Width: 512
GlyphClass: 1
Flags: W
HStem: -192 21G<64 128> 0 64<128 352> 384 64<128 352> 620 20G<64 128>
VStem: 64 64<-192 0 64 384 448 640> 352 80<64 80 368 384> 368 80<80 96 352 368> 384 64<96 352>
LayerCount: 2
Fore
SplineSet
128 -192 m 1xfa
 64 -192 l 1
 64 640 l 1
 128 640 l 1
 128 448 l 1
 368 448 l 1
 368 432 l 1xfa
 400 432 l 1
 400 416 l 1
 416 416 l 1
 416 400 l 1
 432 400 l 1
 432 368 l 1xfc
 448 368 l 1
 448 80 l 1xfa
 432 80 l 1
 432 48 l 1xfc
 416 48 l 1
 416 32 l 1
 400 32 l 1
 400 16 l 1
 368 16 l 1
 368 0 l 1
 128 0 l 1
 128 -192 l 1xfa
128 64 m 1
 352 64 l 1
 352 80 l 1xfc
 368 80 l 1
 368 96 l 1xfa
 384 96 l 1
 384 352 l 1xf9
 368 352 l 1
 368 368 l 1xfa
 352 368 l 1
 352 384 l 1xfc
 128 384 l 1
 128 64 l 1
EndSplineSet
EndChar

StartChar: LATIN
Encoding: 255 255 192
Width: 512
GlyphClass: 1
Flags: W
HStem: -192 64<64 352> 0 64<160 384> 428 20G<64 128 384 448> 544 96<128 192 320 384>
VStem: 64 64<96 448> 128 64<544 640> 320 64<544 640> 384 64<-96 0 64 448>
LayerCount: 2
Fore
SplineSet
368 -192 m 1xf9
 64 -192 l 1
 64 -128 l 1
 352 -128 l 1
 352 -112 l 1
 368 -112 l 1
 368 -96 l 1
 384 -96 l 1
 384 0 l 1
 144 0 l 1
 144 16 l 1
 112 16 l 1
 112 32 l 1
 96 32 l 1
 96 48 l 1
 80 48 l 1
 80 80 l 1
 64 80 l 1
 64 448 l 1
 128 448 l 1
 128 96 l 1
 144 96 l 1
 144 80 l 1
 160 80 l 1
 160 64 l 1
 384 64 l 1
 384 448 l 1
 448 448 l 1
 448 -112 l 1
 432 -112 l 1
 432 -144 l 1
 416 -144 l 1
 416 -160 l 1
 400 -160 l 1
 400 -176 l 1
 368 -176 l 1
 368 -192 l 1xf9
384 544 m 1xf2
 320 544 l 1
 320 640 l 1
 384 640 l 1
 384 544 l 1xf2
192 544 m 1xf4
 128 544 l 1
 128 640 l 1
 192 640 l 1
 192 544 l 1xf4
EndSplineSet
EndChar

StartChar: LATIN
Encoding: 256 256 193
Width: 512
GlyphClass: 1
Flags: W
HStem: 0 21G<64 128 384 448> 288 64<128 384> 544 80<128 144 368 384> 560 80<144 160 352 368> 576 64<160 352> 704 64<128 384>
VStem: 64 64<0 288 352 544> 384 64<0 288 352 544>
LayerCount: 2
Fore
SplineSet
448 0 m 1xd7
 384 0 l 1
 384 288 l 1
 128 288 l 1
 128 0 l 1
 64 0 l 1
 64 560 l 1
 80 560 l 1xd7
 80 592 l 1
 96 592 l 1
 96 608 l 1
 112 608 l 1
 112 624 l 1
 144 624 l 1xe7
 144 640 l 1
 368 640 l 1xd7
 368 624 l 1
 400 624 l 1xe7
 400 608 l 1
 416 608 l 1
 416 592 l 1
 432 592 l 1
 432 560 l 1
 448 560 l 1
 448 0 l 1xd7
128 352 m 1
 384 352 l 1
 384 544 l 1
 368 544 l 1xe7
 368 560 l 1
 352 560 l 1xd7
 352 576 l 1
 160 576 l 1xcf
 160 560 l 1
 144 560 l 1xd7
 144 544 l 1
 128 544 l 1xe7
 128 352 l 1
384 704 m 1
 128 704 l 1
 128 768 l 1
 384 768 l 1
 384 704 l 1
EndSplineSet
EndChar

StartChar: LATIN
Encoding: 257 257 194
Width: 512
GlyphClass: 1
Flags: W
HStem: 0 64<160 384> 224 64<160 384> 384 64<96 352> 512 64<128 384>
VStem: 64 80<80 96 192 208> 64 64<96 192> 80 80<64 80 208 224> 384 64<64 224 288 352>
LayerCount: 2
Fore
SplineSet
448 0 m 1xf9
 144 0 l 1
 144 16 l 1xf9
 112 16 l 1
 112 32 l 1
 96 32 l 1
 96 48 l 1
 80 48 l 1
 80 80 l 1xf3
 64 80 l 1
 64 208 l 1xf9
 80 208 l 1
 80 240 l 1xf3
 96 240 l 1
 96 256 l 1
 112 256 l 1
 112 272 l 1
 144 272 l 1
 144 288 l 1
 384 288 l 1
 384 352 l 1
 368 352 l 1
 368 368 l 1
 352 368 l 1
 352 384 l 1
 96 384 l 1
 96 448 l 1
 368 448 l 1
 368 432 l 1
 400 432 l 1
 400 416 l 1
 416 416 l 1
 416 400 l 1
 432 400 l 1
 432 368 l 1
 448 368 l 1
 448 0 l 1xf9
160 64 m 1xf3
 384 64 l 1
 384 224 l 1
 160 224 l 1
 160 208 l 1xf3
 144 208 l 1
 144 192 l 1xf9
 128 192 l 1
 128 96 l 1xf5
 144 96 l 1
 144 80 l 1xf9
 160 80 l 1
 160 64 l 1xf3
384 512 m 1
 128 512 l 1
 128 576 l 1xf5
 384 576 l 1
 384 512 l 1
EndSplineSet
EndChar

StartChar: LATIN
Encoding: 258 258 195
Width: 512
GlyphClass: 1
Flags: W
HStem: 0 21G<64 128 384 448> 288 64<128 384> 544 80<128 144 368 384> 560 80<144 160 352 368> 576 64<160 352> 704 64<208 304> 720 64<192 208 304 320> 752 80<144 160 352 368> 784 48<128 144 368 384>
VStem: 64 64<0 288 352 544> 128 64<784 832> 320 64<784 832> 384 64<0 288 352 544>
LayerCount: 2
Fore
SplineSet
448 0 m 1xd048
 384 0 l 1
 384 288 l 1
 128 288 l 1
 128 0 l 1
 64 0 l 1
 64 560 l 1
 80 560 l 1xd048
 80 592 l 1
 96 592 l 1
 96 608 l 1
 112 608 l 1
 112 624 l 1
 144 624 l 1xe048
 144 640 l 1
 368 640 l 1xd048
 368 624 l 1
 400 624 l 1xe048
 400 608 l 1
 416 608 l 1
 416 592 l 1
 432 592 l 1
 432 560 l 1
 448 560 l 1
 448 0 l 1xd048
128 352 m 1
 384 352 l 1
 384 544 l 1
 368 544 l 1xe048
 368 560 l 1
 352 560 l 1xd048
 352 576 l 1
 160 576 l 1xc848
 160 560 l 1
 144 560 l 1xd048
 144 544 l 1
 128 544 l 1xe048
 128 352 l 1
304 704 m 1xc430
 208 704 l 1xc430
 208 720 l 1
 176 720 l 1xc230
 176 736 l 1
 160 736 l 1
 160 752 l 1
 144 752 l 1xc130
 144 784 l 1
 128 784 l 1
 128 832 l 1
 192 832 l 1xc0b0
 192 784 l 1
 208 784 l 1xc230
 208 768 l 1
 304 768 l 1xc430
 304 784 l 1
 320 784 l 1xc230
 320 832 l 1
 384 832 l 1
 384 784 l 1
 368 784 l 1xc0b0
 368 752 l 1
 352 752 l 1xc130
 352 736 l 1
 336 736 l 1
 336 720 l 1
 304 720 l 1xc230
 304 704 l 1xc430
EndSplineSet
EndChar

StartChar: LATIN
Encoding: 259 259 196
Width: 512
GlyphClass: 1
Flags: W
HStem: 0 64<160 384> 224 64<160 384> 384 64<96 352> 512 64<208 304> 528 64<192 208 304 320> 560 80<144 160 352 368> 592 48<128 144 368 384>
VStem: 64 80<80 96 192 208> 64 64<96 192> 80 80<64 80 208 224> 128 64<592 640> 320 64<592 640> 384 64<64 224 288 352>
LayerCount: 2
Fore
SplineSet
448 0 m 1xe108
 144 0 l 1
 144 16 l 1xe108
 112 16 l 1
 112 32 l 1
 96 32 l 1
 96 48 l 1
 80 48 l 1
 80 80 l 1xe040
 64 80 l 1
 64 208 l 1xe1
 80 208 l 1
 80 240 l 1xe040
 96 240 l 1
 96 256 l 1
 112 256 l 1
 112 272 l 1
 144 272 l 1
 144 288 l 1
 384 288 l 1
 384 352 l 1
 368 352 l 1
 368 368 l 1
 352 368 l 1
 352 384 l 1
 96 384 l 1
 96 448 l 1
 368 448 l 1
 368 432 l 1
 400 432 l 1
 400 416 l 1
 416 416 l 1
 416 400 l 1
 432 400 l 1
 432 368 l 1
 448 368 l 1
 448 0 l 1xe108
160 64 m 1xe040
 384 64 l 1
 384 224 l 1
 160 224 l 1
 160 208 l 1xe048
 144 208 l 1
 144 192 l 1xe1
 128 192 l 1
 128 96 l 1xe080
 144 96 l 1
 144 80 l 1xe1
 160 80 l 1
 160 64 l 1xe040
304 512 m 1xf030
 208 512 l 1xf030
 208 528 l 1
 176 528 l 1xe830
 176 544 l 1
 160 544 l 1
 160 560 l 1xe450
 144 560 l 1xe5
 144 592 l 1xe3
 128 592 l 1
 128 640 l 1
 192 640 l 1xe220
 192 592 l 1
 208 592 l 1xe820
 208 576 l 1
 304 576 l 1xf020
 304 592 l 1
 320 592 l 1xe830
 320 640 l 1
 384 640 l 1
 384 592 l 1
 368 592 l 1xe230
 368 560 l 1
 352 560 l 1xe430
 352 544 l 1
 336 544 l 1
 336 528 l 1
 304 528 l 1xe830
 304 512 l 1xf030
EndSplineSet
EndChar

StartChar: LATIN
Encoding: 260 260 197
Width: 512
GlyphClass: 1
Flags: W
HStem: -160 64<368 480> -48 48<352 368> -32 32<368 384> 0 21G<64 128> 288 64<128 384> 544 80<128 144 368 384> 560 80<144 160 352 368> 576 64<160 352>
VStem: 64 64<0 288 352 544> 288 80<-96 -80 -48 -32> 288 64<-80 -48> 384 64<0 288 352 544>
LayerCount: 2
Fore
SplineSet
480 -160 m 1xc8d0
 320 -160 l 1
 320 -144 l 1
 304 -144 l 1
 304 -128 l 1
 288 -128 l 1xc8b0
 288 -32 l 1
 304 -32 l 1xa8d0
 304 -16 l 1
 320 -16 l 1
 320 0 l 1x98d0
 384 0 l 1xa8d0
 384 288 l 1
 128 288 l 1
 128 0 l 1
 64 0 l 1
 64 560 l 1
 80 560 l 1x9ad0
 80 592 l 1
 96 592 l 1
 96 608 l 1
 112 608 l 1
 112 624 l 1
 144 624 l 1x8cd0
 144 640 l 1
 368 640 l 1x8ad0
 368 624 l 1
 400 624 l 1x8cd0
 400 608 l 1
 416 608 l 1
 416 592 l 1
 432 592 l 1
 432 560 l 1
 448 560 l 1
 448 -32 l 1
 368 -32 l 1xaad0
 368 -48 l 1xc8d0
 352 -48 l 1
 352 -80 l 1xc8b0
 368 -80 l 1
 368 -96 l 1
 480 -96 l 1
 480 -160 l 1xc8d0
128 352 m 1
 384 352 l 1
 384 544 l 1
 368 544 l 1x8cd0
 368 560 l 1x8ad0
 352 560 l 1x8ab0
 352 576 l 1
 160 576 l 1x89b0
 160 560 l 1
 144 560 l 1x8ab0
 144 544 l 1
 128 544 l 1x8cb0
 128 352 l 1
EndSplineSet
EndChar

StartChar: LATIN
Encoding: 261 261 198
Width: 512
GlyphClass: 1
Flags: W
HStem: -160 64<368 480> 0 64<160 320> 224 64<160 384> 384 64<96 352>
VStem: 64 80<80 96 192 208> 64 64<96 192> 80 80<64 80 208 224> 288 80<-96 -80 -48 -32> 288 64<-80 -48> 384 64<64 224 288 352>
LayerCount: 2
Fore
SplineSet
480 -160 m 1xf140
 320 -160 l 1
 320 -144 l 1
 304 -144 l 1
 304 -128 l 1
 288 -128 l 1xf0c0
 288 -32 l 1
 304 -32 l 1
 304 -16 l 1
 320 -16 l 1
 320 0 l 1
 144 0 l 1
 144 16 l 1xf940
 112 16 l 1
 112 32 l 1
 96 32 l 1
 96 48 l 1
 80 48 l 1
 80 80 l 1xf240
 64 80 l 1
 64 208 l 1xf840
 80 208 l 1
 80 240 l 1xf240
 96 240 l 1
 96 256 l 1
 112 256 l 1
 112 272 l 1
 144 272 l 1
 144 288 l 1
 384 288 l 1
 384 352 l 1
 368 352 l 1
 368 368 l 1xf940
 352 368 l 1
 352 384 l 1xf0c0
 96 384 l 1
 96 448 l 1
 368 448 l 1
 368 432 l 1
 400 432 l 1
 400 416 l 1
 416 416 l 1
 416 400 l 1
 432 400 l 1
 432 368 l 1
 448 368 l 1
 448 -16 l 1
 400 -16 l 1
 400 -32 l 1
 368 -32 l 1
 368 -48 l 1xf140
 352 -48 l 1
 352 -80 l 1xf0c0
 368 -80 l 1
 368 -96 l 1
 480 -96 l 1
 480 -160 l 1xf140
160 64 m 1xf240
 384 64 l 1
 384 224 l 1
 160 224 l 1
 160 208 l 1xf240
 144 208 l 1
 144 192 l 1xf840
 128 192 l 1
 128 96 l 1xf440
 144 96 l 1
 144 80 l 1xf840
 160 80 l 1
 160 64 l 1xf240
EndSplineSet
EndChar

StartChar: LATIN
Encoding: 262 262 199
Width: 512
GlyphClass: 1
Flags: W
HStem: 0 64<160 448> 576 64<160 448> 672 48<224 240> 672 32<208 224> 752 48<352 368> 768 32<368 384>
VStem: 64 80<80 96 544 560> 64 64<96 544> 80 80<64 80 560 576>
LayerCount: 2
Fore
SplineSet
448 0 m 1xc080
 144 0 l 1
 144 16 l 1xc2
 112 16 l 1
 112 32 l 1
 96 32 l 1
 96 48 l 1
 80 48 l 1
 80 80 l 1xc080
 64 80 l 1
 64 560 l 1xc2
 80 560 l 1
 80 592 l 1xc080
 96 592 l 1
 96 608 l 1
 112 608 l 1
 112 624 l 1
 144 624 l 1
 144 640 l 1xc2
 448 640 l 1
 448 576 l 1
 160 576 l 1
 160 560 l 1xc080
 144 560 l 1
 144 544 l 1xc2
 128 544 l 1
 128 96 l 1xc1
 144 96 l 1
 144 80 l 1xc2
 160 80 l 1
 160 64 l 1
 448 64 l 1
 448 0 l 1xc080
288 672 m 1xd0
 208 672 l 1
 208 704 l 1
 224 704 l 1xd0
 224 720 l 1
 240 720 l 1
 240 736 l 1
 256 736 l 1
 256 752 l 1
 272 752 l 1xe8
 272 768 l 1
 288 768 l 1
 288 784 l 1
 304 784 l 1
 304 800 l 1
 384 800 l 1
 384 768 l 1
 368 768 l 1xc4
 368 752 l 1
 352 752 l 1
 352 736 l 1
 336 736 l 1
 336 720 l 1
 320 720 l 1xe8
 320 704 l 1
 304 704 l 1
 304 688 l 1
 288 688 l 1
 288 672 l 1xd0
EndSplineSet
EndChar

StartChar: LATIN
Encoding: 263 263 200
Width: 512
GlyphClass: 1
Flags: W
HStem: 0 64<160 448> 384 64<160 448> 512 48<192 208>
VStem: 64 80<80 96 352 368> 64 64<96 352> 80 80<64 80 368 384> 336 48<688 704>
LayerCount: 2
Fore
SplineSet
448 0 m 1xe6
 144 0 l 1
 144 16 l 1xf2
 112 16 l 1
 112 32 l 1
 96 32 l 1
 96 48 l 1
 80 48 l 1
 80 80 l 1xe6
 64 80 l 1
 64 368 l 1xf2
 80 368 l 1
 80 400 l 1xe6
 96 400 l 1
 96 416 l 1
 112 416 l 1
 112 432 l 1
 144 432 l 1
 144 448 l 1xf2
 448 448 l 1
 448 384 l 1
 160 384 l 1
 160 368 l 1xe6
 144 368 l 1
 144 352 l 1xf2
 128 352 l 1
 128 96 l 1xea
 144 96 l 1
 144 80 l 1xf2
 160 80 l 1
 160 64 l 1
 448 64 l 1
 448 0 l 1xe6
256 512 m 1
 192 512 l 1
 192 560 l 1
 208 560 l 1
 208 576 l 1
 224 576 l 1
 224 592 l 1
 240 592 l 1
 240 608 l 1
 256 608 l 1
 256 624 l 1
 272 624 l 1
 272 640 l 1
 288 640 l 1
 288 656 l 1
 304 656 l 1
 304 672 l 1
 320 672 l 1
 320 688 l 1
 336 688 l 1
 336 704 l 1
 384 704 l 1
 384 640 l 1
 368 640 l 1
 368 624 l 1
 352 624 l 1
 352 608 l 1
 336 608 l 1
 336 592 l 1
 320 592 l 1
 320 576 l 1
 304 576 l 1
 304 560 l 1
 288 560 l 1
 288 544 l 1
 272 544 l 1
 272 528 l 1
 256 528 l 1
 256 512 l 1
EndSplineSet
EndChar

StartChar: LATIN
Encoding: 264 264 201
Width: 512
GlyphClass: 1
Flags: W
HStem: 0 64<160 448> 576 64<160 448> 704 80<176 192 320 336> 704 64<160 176 336 352> 704 48<144 160 352 368> 704 32<128 144 368 384> 752 80<240 272>
VStem: 64 80<80 96 544 560> 64 64<96 544> 80 80<64 80 560 576>
LayerCount: 2
Fore
SplineSet
448 0 m 1xc040
 144 0 l 1
 144 16 l 1xc1
 112 16 l 1
 112 32 l 1
 96 32 l 1
 96 48 l 1
 80 48 l 1
 80 80 l 1xc040
 64 80 l 1
 64 560 l 1xc1
 80 560 l 1
 80 592 l 1xc040
 96 592 l 1
 96 608 l 1
 112 608 l 1
 112 624 l 1
 144 624 l 1
 144 640 l 1xc1
 448 640 l 1
 448 576 l 1
 160 576 l 1
 160 560 l 1xc040
 144 560 l 1
 144 544 l 1xc1
 128 544 l 1
 128 96 l 1xc080
 144 96 l 1
 144 80 l 1xc1
 160 80 l 1
 160 64 l 1
 448 64 l 1
 448 0 l 1xc040
384 704 m 1xc440
 304 704 l 1
 304 720 l 1
 288 720 l 1
 288 736 l 1
 272 736 l 1
 272 752 l 1
 240 752 l 1
 240 736 l 1
 224 736 l 1
 224 720 l 1
 208 720 l 1
 208 704 l 1
 128 704 l 1
 128 736 l 1xc680
 144 736 l 1xc7
 144 752 l 1xc9
 160 752 l 1xc840
 160 768 l 1
 176 768 l 1xd040
 176 784 l 1
 192 784 l 1xe040
 192 800 l 1
 208 800 l 1
 208 816 l 1
 224 816 l 1
 224 832 l 1
 288 832 l 1xc240
 288 816 l 1
 304 816 l 1
 304 800 l 1
 320 800 l 1
 320 784 l 1
 336 784 l 1xe040
 336 768 l 1
 352 768 l 1xd040
 352 752 l 1
 368 752 l 1xc840
 368 736 l 1
 384 736 l 1
 384 704 l 1xc440
EndSplineSet
EndChar

StartChar: LATIN
Encoding: 265 265 202
Width: 512
GlyphClass: 1
Flags: W
HStem: 0 64<160 448> 384 64<160 448> 512 80<112 128 384 400> 512 64<96 112 400 416> 624 80<240 272>
VStem: 64 64<96 352> 80 80<64 80 368 384> 96 48<512 528> 368 48<512 528>
LayerCount: 2
Fore
SplineSet
448 0 m 1xca80
 144 0 l 1
 144 16 l 1
 112 16 l 1
 112 32 l 1
 96 32 l 1
 96 48 l 1xc980
 80 48 l 1
 80 80 l 1xca80
 64 80 l 1
 64 368 l 1xcc80
 80 368 l 1
 80 400 l 1xca80
 96 400 l 1
 96 416 l 1
 112 416 l 1
 112 432 l 1
 144 432 l 1
 144 448 l 1xc980
 448 448 l 1
 448 384 l 1
 160 384 l 1
 160 368 l 1xca80
 144 368 l 1
 144 352 l 1xc980
 128 352 l 1
 128 96 l 1xcc80
 144 96 l 1
 144 80 l 1xc980
 160 80 l 1
 160 64 l 1
 448 64 l 1
 448 0 l 1xca80
416 512 m 1xda80
 368 512 l 1
 368 528 l 1
 352 528 l 1
 352 544 l 1
 336 544 l 1
 336 560 l 1
 320 560 l 1
 320 576 l 1
 304 576 l 1xda80
 304 592 l 1
 288 592 l 1
 288 608 l 1
 272 608 l 1
 272 624 l 1
 240 624 l 1
 240 608 l 1
 224 608 l 1
 224 592 l 1
 208 592 l 1xea80
 208 576 l 1
 192 576 l 1
 192 560 l 1
 176 560 l 1
 176 544 l 1
 160 544 l 1
 160 528 l 1xda80
 144 528 l 1
 144 512 l 1
 96 512 l 1
 96 576 l 1
 112 576 l 1xd980
 112 592 l 1
 128 592 l 1
 128 608 l 1xec80
 144 608 l 1
 144 624 l 1xe980
 160 624 l 1
 160 640 l 1
 176 640 l 1
 176 656 l 1
 192 656 l 1
 192 672 l 1
 208 672 l 1
 208 688 l 1
 224 688 l 1
 224 704 l 1
 288 704 l 1
 288 688 l 1
 304 688 l 1
 304 672 l 1
 320 672 l 1
 320 656 l 1
 336 656 l 1
 336 640 l 1
 352 640 l 1
 352 624 l 1
 368 624 l 1
 368 608 l 1
 384 608 l 1
 384 592 l 1
 400 592 l 1xea80
 400 576 l 1
 416 576 l 1
 416 512 l 1xda80
EndSplineSet
EndChar

StartChar: LATIN
Encoding: 266 266 203
Width: 512
GlyphClass: 1
Flags: W
HStem: 0 64<160 448> 576 64<160 448> 704 96<224 288>
VStem: 64 80<80 96 544 560> 64 64<96 544> 80 80<64 80 560 576> 224 64<704 800>
LayerCount: 2
Fore
SplineSet
448 0 m 1xe6
 144 0 l 1
 144 16 l 1xf2
 112 16 l 1
 112 32 l 1
 96 32 l 1
 96 48 l 1
 80 48 l 1
 80 80 l 1xe6
 64 80 l 1
 64 560 l 1xf2
 80 560 l 1
 80 592 l 1xe6
 96 592 l 1
 96 608 l 1
 112 608 l 1
 112 624 l 1
 144 624 l 1
 144 640 l 1xf2
 448 640 l 1
 448 576 l 1
 160 576 l 1
 160 560 l 1xe6
 144 560 l 1
 144 544 l 1xf2
 128 544 l 1
 128 96 l 1xea
 144 96 l 1
 144 80 l 1xf2
 160 80 l 1
 160 64 l 1
 448 64 l 1
 448 0 l 1xe6
288 704 m 1
 224 704 l 1
 224 800 l 1
 288 800 l 1
 288 704 l 1
EndSplineSet
EndChar

StartChar: LATIN
Encoding: 267 267 204
Width: 512
GlyphClass: 1
Flags: W
HStem: 0 64<160 448> 384 64<160 448> 544 96<224 288>
VStem: 64 80<80 96 352 368> 64 64<96 352> 80 80<64 80 368 384> 224 64<544 640>
LayerCount: 2
Fore
SplineSet
448 0 m 1xe6
 144 0 l 1
 144 16 l 1xf2
 112 16 l 1
 112 32 l 1
 96 32 l 1
 96 48 l 1
 80 48 l 1
 80 80 l 1xe6
 64 80 l 1
 64 368 l 1xf2
 80 368 l 1
 80 400 l 1xe6
 96 400 l 1
 96 416 l 1
 112 416 l 1
 112 432 l 1
 144 432 l 1
 144 448 l 1xf2
 448 448 l 1
 448 384 l 1
 160 384 l 1
 160 368 l 1xe6
 144 368 l 1
 144 352 l 1xf2
 128 352 l 1
 128 96 l 1xea
 144 96 l 1
 144 80 l 1xf2
 160 80 l 1
 160 64 l 1
 448 64 l 1
 448 0 l 1xe6
288 544 m 1
 224 544 l 1
 224 640 l 1
 288 640 l 1
 288 544 l 1
EndSplineSet
EndChar

StartChar: LATIN
Encoding: 268 268 205
Width: 512
GlyphClass: 1
Flags: W
HStem: 0 64<160 448> 576 64<160 448> 704 80<240 272> 752 80<176 192 320 336> 768 64<160 176 336 352> 784 48<144 160 352 368> 800 32<128 144 368 384>
VStem: 64 80<80 96 544 560> 64 64<96 544> 80 80<64 80 560 576>
LayerCount: 2
Fore
SplineSet
448 0 m 1xc040
 144 0 l 1
 144 16 l 1xc1
 112 16 l 1
 112 32 l 1
 96 32 l 1
 96 48 l 1
 80 48 l 1
 80 80 l 1xc040
 64 80 l 1
 64 560 l 1xc1
 80 560 l 1
 80 592 l 1xc040
 96 592 l 1
 96 608 l 1
 112 608 l 1
 112 624 l 1
 144 624 l 1
 144 640 l 1xc1
 448 640 l 1
 448 576 l 1
 160 576 l 1
 160 560 l 1xc040
 144 560 l 1
 144 544 l 1xc1
 128 544 l 1
 128 96 l 1xc080
 144 96 l 1
 144 80 l 1xc1
 160 80 l 1
 160 64 l 1
 448 64 l 1
 448 0 l 1xc040
288 704 m 1xe080
 224 704 l 1xe080
 224 720 l 1
 208 720 l 1
 208 736 l 1
 192 736 l 1
 192 752 l 1
 176 752 l 1xd080
 176 768 l 1
 160 768 l 1xc840
 160 784 l 1xc440
 144 784 l 1xc5
 144 800 l 1xc3
 128 800 l 1
 128 832 l 1
 208 832 l 1
 208 816 l 1
 224 816 l 1
 224 800 l 1
 240 800 l 1
 240 784 l 1
 272 784 l 1
 272 800 l 1
 288 800 l 1
 288 816 l 1
 304 816 l 1
 304 832 l 1
 384 832 l 1
 384 800 l 1
 368 800 l 1xe280
 368 784 l 1
 352 784 l 1xc480
 352 768 l 1
 336 768 l 1xc880
 336 752 l 1
 320 752 l 1xd080
 320 736 l 1
 304 736 l 1
 304 720 l 1
 288 720 l 1
 288 704 l 1xe080
EndSplineSet
EndChar

StartChar: LATIN
Encoding: 269 269 206
Width: 512
GlyphClass: 1
Flags: W
HStem: 0 64<160 448> 384 64<160 448> 512 80<240 272> 624 80<112 128 384 400> 640 64<96 112 400 416>
VStem: 64 64<96 352> 80 80<64 80 368 384> 96 48<688 704> 368 48<688 704>
LayerCount: 2
Fore
SplineSet
448 0 m 1xe280
 144 0 l 1
 144 16 l 1
 112 16 l 1
 112 32 l 1
 96 32 l 1
 96 48 l 1xe180
 80 48 l 1
 80 80 l 1xe280
 64 80 l 1
 64 368 l 1xe480
 80 368 l 1
 80 400 l 1xe280
 96 400 l 1
 96 416 l 1
 112 416 l 1
 112 432 l 1
 144 432 l 1
 144 448 l 1xe180
 448 448 l 1
 448 384 l 1
 160 384 l 1
 160 368 l 1xe280
 144 368 l 1
 144 352 l 1xe180
 128 352 l 1
 128 96 l 1xe480
 144 96 l 1
 144 80 l 1xe180
 160 80 l 1
 160 64 l 1
 448 64 l 1
 448 0 l 1xe280
288 512 m 1
 224 512 l 1
 224 528 l 1
 208 528 l 1
 208 544 l 1
 192 544 l 1
 192 560 l 1
 176 560 l 1
 176 576 l 1
 160 576 l 1
 160 592 l 1xf280
 144 592 l 1
 144 608 l 1xf180
 128 608 l 1
 128 624 l 1
 112 624 l 1xf480
 112 640 l 1
 96 640 l 1
 96 704 l 1
 144 704 l 1
 144 688 l 1xe980
 160 688 l 1
 160 672 l 1
 176 672 l 1
 176 656 l 1
 192 656 l 1
 192 640 l 1
 208 640 l 1xea80
 208 624 l 1
 224 624 l 1
 224 608 l 1
 240 608 l 1
 240 592 l 1
 272 592 l 1
 272 608 l 1
 288 608 l 1
 288 624 l 1
 304 624 l 1xf280
 304 640 l 1
 320 640 l 1
 320 656 l 1
 336 656 l 1
 336 672 l 1
 352 672 l 1
 352 688 l 1
 368 688 l 1
 368 704 l 1
 416 704 l 1
 416 640 l 1
 400 640 l 1xea80
 400 624 l 1
 384 624 l 1xf280
 384 608 l 1
 368 608 l 1
 368 592 l 1
 352 592 l 1
 352 576 l 1
 336 576 l 1
 336 560 l 1
 320 560 l 1
 320 544 l 1
 304 544 l 1
 304 528 l 1
 288 528 l 1
 288 512 l 1
EndSplineSet
EndChar

StartChar: LATIN
Encoding: 270 270 207
Width: 512
GlyphClass: 1
Flags: W
HStem: 0 64<128 352> 576 64<128 352> 704 80<240 272> 752 80<176 192 320 336> 768 64<160 176 336 352> 784 48<144 160 352 368> 800 32<128 144 368 384>
VStem: 64 64<64 576> 352 80<64 80 560 576> 368 80<80 96 544 560> 384 64<96 544>
LayerCount: 2
Fore
SplineSet
368 0 m 1xc140
 64 0 l 1
 64 640 l 1
 368 640 l 1
 368 624 l 1xc140
 400 624 l 1
 400 608 l 1
 416 608 l 1
 416 592 l 1
 432 592 l 1
 432 560 l 1xc180
 448 560 l 1
 448 80 l 1xc140
 432 80 l 1
 432 48 l 1xc180
 416 48 l 1
 416 32 l 1
 400 32 l 1
 400 16 l 1
 368 16 l 1
 368 0 l 1xc140
128 64 m 1
 352 64 l 1
 352 80 l 1xc180
 368 80 l 1
 368 96 l 1xc140
 384 96 l 1
 384 544 l 1xc120
 368 544 l 1
 368 560 l 1xc140
 352 560 l 1
 352 576 l 1xc180
 128 576 l 1
 128 64 l 1
288 704 m 1xe180
 224 704 l 1xe180
 224 720 l 1
 208 720 l 1
 208 736 l 1
 192 736 l 1
 192 752 l 1
 176 752 l 1xd180
 176 768 l 1
 160 768 l 1xc980
 160 784 l 1
 144 784 l 1xc580
 144 800 l 1
 128 800 l 1
 128 832 l 1
 208 832 l 1
 208 816 l 1
 224 816 l 1
 224 800 l 1
 240 800 l 1
 240 784 l 1
 272 784 l 1
 272 800 l 1
 288 800 l 1
 288 816 l 1
 304 816 l 1
 304 832 l 1
 384 832 l 1
 384 800 l 1xe320
 368 800 l 1xe340
 368 784 l 1xc540
 352 784 l 1xc580
 352 768 l 1
 336 768 l 1xc980
 336 752 l 1
 320 752 l 1xd180
 320 736 l 1
 304 736 l 1
 304 720 l 1
 288 720 l 1
 288 704 l 1xe180
EndSplineSet
EndChar

StartChar: LATIN
Encoding: 271 271 208
Width: 512
GlyphClass: 1
Flags: W
HStem: 0 64<160 384> 384 64<160 384> 620 20G<384 448> 704 80<240 272> 752 80<176 192 320 336> 768 64<160 176 336 352> 784 48<144 160 352 368> 800 32<128 144 368 384>
VStem: 64 80<80 96 352 368> 64 64<96 352> 80 80<64 80 368 384> 384 64<64 384 448 640>
LayerCount: 2
Fore
SplineSet
448 0 m 1xe090
 144 0 l 1
 144 16 l 1xe090
 112 16 l 1
 112 32 l 1
 96 32 l 1
 96 48 l 1
 80 48 l 1
 80 80 l 1xe030
 64 80 l 1
 64 368 l 1xe090
 80 368 l 1
 80 400 l 1xe030
 96 400 l 1
 96 416 l 1
 112 416 l 1
 112 432 l 1
 144 432 l 1
 144 448 l 1
 384 448 l 1
 384 640 l 1
 448 640 l 1
 448 0 l 1xe090
160 64 m 1xe030
 384 64 l 1
 384 384 l 1
 160 384 l 1
 160 368 l 1xe030
 144 368 l 1
 144 352 l 1xe090
 128 352 l 1
 128 96 l 1xe050
 144 96 l 1
 144 80 l 1xe090
 160 80 l 1
 160 64 l 1xe030
288 704 m 1xf050
 224 704 l 1xf050
 224 720 l 1
 208 720 l 1
 208 736 l 1
 192 736 l 1
 192 752 l 1
 176 752 l 1xe850
 176 768 l 1
 160 768 l 1xe430
 160 784 l 1xe230
 144 784 l 1xe290
 144 800 l 1xe190
 128 800 l 1
 128 832 l 1
 208 832 l 1
 208 816 l 1
 224 816 l 1
 224 800 l 1
 240 800 l 1
 240 784 l 1
 272 784 l 1
 272 800 l 1
 288 800 l 1
 288 816 l 1
 304 816 l 1
 304 832 l 1
 384 832 l 1
 384 800 l 1
 368 800 l 1xf150
 368 784 l 1
 352 784 l 1xe250
 352 768 l 1
 336 768 l 1xe450
 336 752 l 1
 320 752 l 1xe850
 320 736 l 1
 304 736 l 1
 304 720 l 1
 288 720 l 1
 288 704 l 1xf050
EndSplineSet
EndChar

StartChar: LATIN
Encoding: 272 272 209
Width: 512
GlyphClass: 1
Flags: W
HStem: 0 64<128 352> 288 64<0 64 128 256> 576 64<128 352>
VStem: 64 64<64 288 352 576> 352 80<64 80 560 576> 368 80<80 96 544 560> 384 64<96 544>
CounterMasks: 1 e0
LayerCount: 2
Fore
SplineSet
368 0 m 1xf4
 64 0 l 1
 64 288 l 1
 0 288 l 1
 0 352 l 1
 64 352 l 1
 64 640 l 1
 368 640 l 1
 368 624 l 1xf4
 400 624 l 1
 400 608 l 1
 416 608 l 1
 416 592 l 1
 432 592 l 1
 432 560 l 1xf8
 448 560 l 1
 448 80 l 1xf4
 432 80 l 1
 432 48 l 1xf8
 416 48 l 1
 416 32 l 1
 400 32 l 1
 400 16 l 1
 368 16 l 1
 368 0 l 1xf4
128 64 m 1
 352 64 l 1
 352 80 l 1xf8
 368 80 l 1
 368 96 l 1xf4
 384 96 l 1
 384 544 l 1xf2
 368 544 l 1
 368 560 l 1xf4
 352 560 l 1
 352 576 l 1xf8
 128 576 l 1
 128 352 l 1
 256 352 l 1
 256 288 l 1
 128 288 l 1
 128 64 l 1
EndSplineSet
EndChar

StartChar: LATIN
Encoding: 273 273 210
Width: 512
GlyphClass: 1
Flags: W
HStem: 0 64<160 384> 384 64<160 384> 512 64<256 384 448 512> 620 20G<384 448>
VStem: 64 80<80 96 352 368> 64 64<96 352> 80 80<64 80 368 384> 384 64<64 384 448 512 576 640>
LayerCount: 2
Fore
SplineSet
448 0 m 1xf9
 144 0 l 1
 144 16 l 1xf9
 112 16 l 1
 112 32 l 1
 96 32 l 1
 96 48 l 1
 80 48 l 1
 80 80 l 1xf3
 64 80 l 1
 64 368 l 1xf9
 80 368 l 1
 80 400 l 1xf3
 96 400 l 1
 96 416 l 1
 112 416 l 1
 112 432 l 1
 144 432 l 1
 144 448 l 1
 384 448 l 1
 384 512 l 1
 256 512 l 1
 256 576 l 1
 384 576 l 1
 384 640 l 1
 448 640 l 1
 448 576 l 1
 512 576 l 1
 512 512 l 1
 448 512 l 1
 448 0 l 1xf9
160 64 m 1xf3
 384 64 l 1
 384 384 l 1
 160 384 l 1
 160 368 l 1xf3
 144 368 l 1
 144 352 l 1xf9
 128 352 l 1
 128 96 l 1xf5
 144 96 l 1
 144 80 l 1xf9
 160 80 l 1
 160 64 l 1xf3
EndSplineSet
EndChar

StartChar: LATIN
Encoding: 274 274 211
Width: 512
GlyphClass: 1
Flags: W
HStem: 0 64<160 448> 288 64<128 352> 576 64<160 448> 704 64<128 384>
VStem: 64 80<80 96 544 560> 64 64<96 288 352 544> 80 80<64 80 560 576>
LayerCount: 2
Fore
SplineSet
448 0 m 1xf2
 144 0 l 1
 144 16 l 1xf8
 112 16 l 1
 112 32 l 1
 96 32 l 1
 96 48 l 1
 80 48 l 1
 80 80 l 1xf2
 64 80 l 1
 64 560 l 1xf8
 80 560 l 1
 80 592 l 1xf2
 96 592 l 1
 96 608 l 1
 112 608 l 1
 112 624 l 1
 144 624 l 1
 144 640 l 1xf8
 448 640 l 1
 448 576 l 1
 160 576 l 1
 160 560 l 1xf2
 144 560 l 1
 144 544 l 1xf8
 128 544 l 1
 128 352 l 1
 352 352 l 1
 352 288 l 1
 128 288 l 1
 128 96 l 1xf4
 144 96 l 1
 144 80 l 1xf8
 160 80 l 1
 160 64 l 1
 448 64 l 1
 448 0 l 1xf2
384 704 m 1
 128 704 l 1
 128 768 l 1xf4
 384 768 l 1
 384 704 l 1
EndSplineSet
EndChar

StartChar: LATIN
Encoding: 275 275 212
Width: 512
GlyphClass: 1
Flags: W
HStem: 0 64<160 448> 192 64<128 384> 384 64<160 384> 512 64<128 384>
VStem: 64 80<80 96 352 368> 64 64<96 192 256 352> 80 80<64 80 368 384> 384 64<256 384>
LayerCount: 2
Fore
SplineSet
448 0 m 1xf3
 144 0 l 1
 144 16 l 1xf9
 112 16 l 1
 112 32 l 1
 96 32 l 1
 96 48 l 1
 80 48 l 1
 80 80 l 1xf3
 64 80 l 1
 64 368 l 1xf9
 80 368 l 1
 80 400 l 1xf3
 96 400 l 1
 96 416 l 1
 112 416 l 1
 112 432 l 1
 144 432 l 1
 144 448 l 1xf9
 448 448 l 1
 448 192 l 1
 128 192 l 1
 128 96 l 1xf5
 144 96 l 1
 144 80 l 1xf9
 160 80 l 1
 160 64 l 1
 448 64 l 1
 448 0 l 1xf3
128 256 m 1xf5
 384 256 l 1
 384 384 l 1
 160 384 l 1
 160 368 l 1xf3
 144 368 l 1
 144 352 l 1xf9
 128 352 l 1
 128 256 l 1xf5
384 512 m 1
 128 512 l 1
 128 576 l 1xf5
 384 576 l 1
 384 512 l 1
EndSplineSet
EndChar

StartChar: LATIN
Encoding: 276 276 213
Width: 512
GlyphClass: 1
Flags: W
HStem: 0 64<160 448> 288 64<128 352> 576 64<160 448> 704 64<208 304> 720 64<192 208 304 320> 752 80<144 160 352 368> 784 48<128 144 368 384>
VStem: 64 80<80 96 544 560> 64 64<96 288 352 544> 80 80<64 80 560 576> 128 64<784 832> 320 64<784 832>
LayerCount: 2
Fore
SplineSet
448 0 m 1xe050
 144 0 l 1
 144 16 l 1xe110
 112 16 l 1
 112 32 l 1
 96 32 l 1
 96 48 l 1
 80 48 l 1
 80 80 l 1xe050
 64 80 l 1
 64 560 l 1xe110
 80 560 l 1
 80 592 l 1xe050
 96 592 l 1
 96 608 l 1
 112 608 l 1
 112 624 l 1
 144 624 l 1
 144 640 l 1xe110
 448 640 l 1
 448 576 l 1
 160 576 l 1
 160 560 l 1xe050
 144 560 l 1
 144 544 l 1xe110
 128 544 l 1
 128 352 l 1
 352 352 l 1
 352 288 l 1
 128 288 l 1
 128 96 l 1xe090
 144 96 l 1
 144 80 l 1xe110
 160 80 l 1
 160 64 l 1
 448 64 l 1
 448 0 l 1xe050
304 704 m 1xf030
 208 704 l 1xf030
 208 720 l 1
 176 720 l 1xe830
 176 736 l 1
 160 736 l 1
 160 752 l 1xe450
 144 752 l 1xe510
 144 784 l 1xe310
 128 784 l 1
 128 832 l 1
 192 832 l 1xe230
 192 784 l 1
 208 784 l 1xe830
 208 768 l 1
 304 768 l 1xf030
 304 784 l 1
 320 784 l 1xe830
 320 832 l 1
 384 832 l 1
 384 784 l 1
 368 784 l 1xe230
 368 752 l 1
 352 752 l 1xe430
 352 736 l 1
 336 736 l 1
 336 720 l 1
 304 720 l 1xe830
 304 704 l 1xf030
EndSplineSet
EndChar

StartChar: LATIN
Encoding: 277 277 214
Width: 512
GlyphClass: 1
Flags: W
HStem: 0 64<160 448> 192 64<128 384> 384 64<160 384> 512 64<208 304> 528 64<192 208 304 320> 560 80<144 160 352 368> 592 48<128 144 368 384>
VStem: 64 80<80 96 352 368> 64 64<96 192 256 352> 80 80<64 80 368 384> 128 64<592 640> 320 64<592 640> 384 64<256 384>
LayerCount: 2
Fore
SplineSet
448 0 m 1xe048
 144 0 l 1
 144 16 l 1xe108
 112 16 l 1
 112 32 l 1
 96 32 l 1
 96 48 l 1
 80 48 l 1
 80 80 l 1xe040
 64 80 l 1
 64 368 l 1xe1
 80 368 l 1
 80 400 l 1xe040
 96 400 l 1
 96 416 l 1
 112 416 l 1
 112 432 l 1
 144 432 l 1
 144 448 l 1xe1
 448 448 l 1
 448 192 l 1
 128 192 l 1
 128 96 l 1xe088
 144 96 l 1
 144 80 l 1xe1
 160 80 l 1
 160 64 l 1
 448 64 l 1
 448 0 l 1xe048
128 256 m 1xe080
 384 256 l 1
 384 384 l 1
 160 384 l 1
 160 368 l 1xe048
 144 368 l 1
 144 352 l 1xe1
 128 352 l 1
 128 256 l 1xe080
304 512 m 1xf030
 208 512 l 1xf030
 208 528 l 1
 176 528 l 1xe830
 176 544 l 1
 160 544 l 1
 160 560 l 1xe450
 144 560 l 1xe5
 144 592 l 1xe3
 128 592 l 1
 128 640 l 1
 192 640 l 1xe220
 192 592 l 1
 208 592 l 1xe820
 208 576 l 1
 304 576 l 1xf020
 304 592 l 1
 320 592 l 1xe830
 320 640 l 1
 384 640 l 1
 384 592 l 1
 368 592 l 1xe230
 368 560 l 1
 352 560 l 1xe430
 352 544 l 1
 336 544 l 1
 336 528 l 1
 304 528 l 1xe830
 304 512 l 1xf030
EndSplineSet
EndChar

StartChar: LATIN
Encoding: 278 278 215
Width: 512
GlyphClass: 1
Flags: W
HStem: 0 64<160 448> 288 64<128 352> 576 64<160 448> 704 96<224 288>
VStem: 64 80<80 96 544 560> 64 64<96 288 352 544> 80 80<64 80 560 576> 224 64<704 800>
LayerCount: 2
Fore
SplineSet
448 0 m 1xf3
 144 0 l 1
 144 16 l 1xf9
 112 16 l 1
 112 32 l 1
 96 32 l 1
 96 48 l 1
 80 48 l 1
 80 80 l 1xf3
 64 80 l 1
 64 560 l 1xf9
 80 560 l 1
 80 592 l 1xf3
 96 592 l 1
 96 608 l 1
 112 608 l 1
 112 624 l 1
 144 624 l 1
 144 640 l 1xf9
 448 640 l 1
 448 576 l 1
 160 576 l 1
 160 560 l 1xf3
 144 560 l 1
 144 544 l 1xf9
 128 544 l 1
 128 352 l 1
 352 352 l 1
 352 288 l 1
 128 288 l 1
 128 96 l 1xf5
 144 96 l 1
 144 80 l 1xf9
 160 80 l 1
 160 64 l 1
 448 64 l 1
 448 0 l 1xf3
288 704 m 1
 224 704 l 1
 224 800 l 1
 288 800 l 1
 288 704 l 1
EndSplineSet
EndChar

StartChar: LATIN
Encoding: 279 279 216
Width: 512
GlyphClass: 1
Flags: W
HStem: 0 64<160 448> 192 64<128 384> 384 64<160 384> 544 96<224 288>
VStem: 64 80<80 96 352 368> 64 64<96 192 256 352> 80 80<64 80 368 384> 224 64<544 640> 384 64<256 384>
LayerCount: 2
Fore
SplineSet
448 0 m 1xf380
 144 0 l 1
 144 16 l 1xf980
 112 16 l 1
 112 32 l 1
 96 32 l 1
 96 48 l 1
 80 48 l 1
 80 80 l 1xf380
 64 80 l 1
 64 368 l 1xf980
 80 368 l 1
 80 400 l 1xf380
 96 400 l 1
 96 416 l 1
 112 416 l 1
 112 432 l 1
 144 432 l 1
 144 448 l 1xf980
 448 448 l 1
 448 192 l 1
 128 192 l 1
 128 96 l 1xf580
 144 96 l 1
 144 80 l 1xf980
 160 80 l 1
 160 64 l 1
 448 64 l 1
 448 0 l 1xf380
128 256 m 1xf580
 384 256 l 1
 384 384 l 1
 160 384 l 1
 160 368 l 1xf380
 144 368 l 1
 144 352 l 1xf980
 128 352 l 1
 128 256 l 1xf580
288 544 m 1
 224 544 l 1
 224 640 l 1
 288 640 l 1
 288 544 l 1
EndSplineSet
EndChar

StartChar: LATIN
Encoding: 280 280 217
Width: 512
GlyphClass: 1
Flags: W
HStem: -160 64<368 480> -16 80<400 448> 0 64<160 320> 288 64<128 352> 576 64<160 448>
VStem: 64 80<80 96 544 560> 64 64<96 288 352 544> 80 80<64 80 560 576> 288 80<-96 -80 -48 -32> 288 64<-80 -48>
LayerCount: 2
Fore
SplineSet
480 -160 m 1xd880
 320 -160 l 1
 320 -144 l 1
 304 -144 l 1
 304 -128 l 1
 288 -128 l 1xd840
 288 -32 l 1
 304 -32 l 1
 304 -16 l 1
 320 -16 l 1xd880
 320 0 l 1
 144 0 l 1
 144 16 l 1xbc80
 112 16 l 1
 112 32 l 1
 96 32 l 1
 96 48 l 1
 80 48 l 1
 80 80 l 1xb9
 64 80 l 1
 64 560 l 1xbc
 80 560 l 1
 80 592 l 1xb9
 96 592 l 1
 96 608 l 1
 112 608 l 1
 112 624 l 1
 144 624 l 1
 144 640 l 1xbc
 448 640 l 1
 448 576 l 1
 160 576 l 1
 160 560 l 1xb9
 144 560 l 1
 144 544 l 1xbc
 128 544 l 1
 128 352 l 1
 352 352 l 1
 352 288 l 1
 128 288 l 1
 128 96 l 1xba40
 144 96 l 1
 144 80 l 1xbc
 160 80 l 1
 160 64 l 1xb9
 448 64 l 1
 448 -16 l 1
 400 -16 l 1
 400 -32 l 1
 368 -32 l 1
 368 -48 l 1xd980
 352 -48 l 1
 352 -80 l 1xd840
 368 -80 l 1
 368 -96 l 1
 480 -96 l 1
 480 -160 l 1xd880
EndSplineSet
EndChar

StartChar: LATIN
Encoding: 281 281 218
Width: 512
GlyphClass: 1
Flags: W
HStem: -160 64<368 480> -16 80<400 448> 0 64<160 320> 192 64<128 384> 384 64<160 384>
VStem: 64 80<80 96 352 368> 64 64<96 192 256 352> 80 80<64 80 368 384> 288 80<-96 -80 -48 -32> 288 64<-80 -48> 384 64<256 384>
LayerCount: 2
Fore
SplineSet
480 -160 m 1xd8a0
 320 -160 l 1
 320 -144 l 1
 304 -144 l 1
 304 -128 l 1
 288 -128 l 1xd860
 288 -32 l 1
 304 -32 l 1
 304 -16 l 1
 320 -16 l 1xd8a0
 320 0 l 1
 144 0 l 1
 144 16 l 1xbca0
 112 16 l 1
 112 32 l 1
 96 32 l 1
 96 48 l 1
 80 48 l 1
 80 80 l 1xb920
 64 80 l 1
 64 368 l 1xbc20
 80 368 l 1
 80 400 l 1xb920
 96 400 l 1
 96 416 l 1
 112 416 l 1
 112 432 l 1
 144 432 l 1
 144 448 l 1xbc20
 448 448 l 1
 448 192 l 1
 128 192 l 1
 128 96 l 1xba20
 144 96 l 1
 144 80 l 1xbc20
 160 80 l 1
 160 64 l 1xb920
 448 64 l 1
 448 -16 l 1
 400 -16 l 1
 400 -32 l 1
 368 -32 l 1
 368 -48 l 1xd9a0
 352 -48 l 1
 352 -80 l 1xd860
 368 -80 l 1
 368 -96 l 1
 480 -96 l 1
 480 -160 l 1xd8a0
128 256 m 1x9a20
 384 256 l 1
 384 384 l 1
 160 384 l 1
 160 368 l 1x9920
 144 368 l 1
 144 352 l 1x9c20
 128 352 l 1
 128 256 l 1x9a20
EndSplineSet
EndChar

StartChar: LATIN
Encoding: 282 282 219
Width: 512
GlyphClass: 1
Flags: W
HStem: 0 64<160 448> 288 64<128 352> 576 64<160 448> 704 80<240 272> 752 80<176 192 320 336> 768 64<160 176 336 352> 784 48<144 160 352 368> 800 32<128 144 368 384>
VStem: 64 80<80 96 544 560> 64 64<96 288 352 544> 80 80<64 80 560 576>
LayerCount: 2
Fore
SplineSet
448 0 m 1xe020
 144 0 l 1
 144 16 l 1xe080
 112 16 l 1
 112 32 l 1
 96 32 l 1
 96 48 l 1
 80 48 l 1
 80 80 l 1xe020
 64 80 l 1
 64 560 l 1xe080
 80 560 l 1
 80 592 l 1xe020
 96 592 l 1
 96 608 l 1
 112 608 l 1
 112 624 l 1
 144 624 l 1
 144 640 l 1xe080
 448 640 l 1
 448 576 l 1
 160 576 l 1
 160 560 l 1xe020
 144 560 l 1
 144 544 l 1xe080
 128 544 l 1
 128 352 l 1
 352 352 l 1
 352 288 l 1
 128 288 l 1
 128 96 l 1xe040
 144 96 l 1
 144 80 l 1xe080
 160 80 l 1
 160 64 l 1
 448 64 l 1
 448 0 l 1xe020
288 704 m 1xf040
 224 704 l 1xf040
 224 720 l 1
 208 720 l 1
 208 736 l 1
 192 736 l 1
 192 752 l 1
 176 752 l 1xe840
 176 768 l 1
 160 768 l 1xe420
 160 784 l 1xe220
 144 784 l 1xe280
 144 800 l 1xe180
 128 800 l 1
 128 832 l 1
 208 832 l 1
 208 816 l 1
 224 816 l 1
 224 800 l 1
 240 800 l 1
 240 784 l 1
 272 784 l 1
 272 800 l 1
 288 800 l 1
 288 816 l 1
 304 816 l 1
 304 832 l 1
 384 832 l 1
 384 800 l 1
 368 800 l 1xf140
 368 784 l 1
 352 784 l 1xe240
 352 768 l 1
 336 768 l 1xe440
 336 752 l 1
 320 752 l 1xe840
 320 736 l 1
 304 736 l 1
 304 720 l 1
 288 720 l 1
 288 704 l 1xf040
EndSplineSet
EndChar

